advent_pro_thn_flat_kern.ufo
<glyph name="exclam" format="1">
  <advance width="100"/>
  <unicode hex="0021"/>
  <outline>
    <contour>
      <point x="57" y="120" type="line"/>
      <point x="42" y="120" type="line"/>
      <point x="33" y="690" type="line" smooth="yes"/>
      <point x="33" y="702"/>
      <point x="42" y="708"/>
      <point x="51" y="708" type="curve" smooth="yes"/>
      <point x="60" y="708"/>
      <point x="65" y="702"/>
      <point x="65" y="690" type="curve"/>
    </contour>
    <contour>
      <point x="66" y="18" type="curve" smooth="yes"/>
      <point x="66" y="9"/>
      <point x="59" y="0"/>
      <point x="50" y="0" type="curve" smooth="yes"/>
      <point x="41" y="0"/>
      <point x="32" y="9"/>
      <point x="32" y="18" type="curve" smooth="yes"/>
      <point x="32" y="26"/>
      <point x="41" y="34"/>
      <point x="50" y="34" type="curve" smooth="yes"/>
      <point x="59" y="34"/>
      <point x="66" y="26"/>
    </contour>
  </outline>
</glyph>
<glyph name="quotedbl" format="1">
  <advance width="220"/>
  <unicode hex="0022"/>
  <outline>
    <contour>
      <point x="184" y="587" type="line"/>
      <point x="167" y="587" type="line"/>
      <point x="162" y="721" type="line" smooth="yes"/>
      <point x="162" y="741"/>
      <point x="191" y="741"/>
      <point x="191" y="721" type="curve"/>
    </contour>
    <contour>
      <point x="49" y="587" type="line"/>
      <point x="32" y="587" type="line"/>
      <point x="27" y="721" type="line" smooth="yes"/>
      <point x="27" y="741"/>
      <point x="55" y="741"/>
      <point x="55" y="721" type="curve"/>
    </contour>
  </outline>
</glyph>
<glyph name="numbersign" format="1">
  <advance width="586"/>
  <unicode hex="0023"/>
  <outline>
    <contour>
      <point x="566" y="414" type="line"/>
      <point x="420" y="414" type="line"/>
      <point x="379" y="243" type="line"/>
      <point x="566" y="243" type="line"/>
      <point x="566" y="226" type="line"/>
      <point x="376" y="226" type="line"/>
      <point x="323" y="0" type="line"/>
      <point x="305" y="0" type="line"/>
      <point x="357" y="226" type="line"/>
      <point x="166" y="226" type="line"/>
      <point x="113" y="0" type="line"/>
      <point x="95" y="0" type="line"/>
      <point x="147" y="226" type="line"/>
      <point x="19" y="226" type="line"/>
      <point x="19" y="243" type="line"/>
      <point x="152" y="243" type="line"/>
      <point x="191" y="414" type="line"/>
      <point x="19" y="414" type="line"/>
      <point x="19" y="431" type="line"/>
      <point x="197" y="431" type="line"/>
      <point x="258" y="698" type="line"/>
      <point x="277" y="698" type="line"/>
      <point x="216" y="431" type="line"/>
      <point x="405" y="431" type="line"/>
      <point x="467" y="698" type="line"/>
      <point x="486" y="698" type="line"/>
      <point x="423" y="431" type="line"/>
      <point x="566" y="431" type="line"/>
    </contour>
    <contour>
      <point x="210" y="414" type="line"/>
      <point x="170" y="243" type="line"/>
      <point x="361" y="243" type="line"/>
      <point x="400" y="414" type="line"/>
    </contour>
  </outline>
</glyph>
<glyph name="dollar" format="1">
  <advance width="91"/>
  <unicode hex="0024"/>
  <outline>
    <contour>
      <point x="54" y="815" type="line"/>
      <point x="54" y="-113" type="line"/>
      <point x="35" y="-113" type="line"/>
      <point x="35" y="815" type="line"/>
    </contour>
    <component base="S"/>
  </outline>
</glyph>
<glyph name="percent" format="1">
  <advance width="686"/>
  <unicode hex="0025"/>
  <outline>
    <contour>
      <point x="621" y="698" type="line"/>
      <point x="84" y="0" type="line"/>
      <point x="58" y="0" type="line"/>
      <point x="595" y="698" type="line"/>
    </contour>
    <contour>
      <point x="163" y="712" type="curve" smooth="yes"/>
      <point x="243" y="712"/>
      <point x="308" y="648"/>
      <point x="308" y="566" type="curve" smooth="yes"/>
      <point x="308" y="486"/>
      <point x="243" y="421"/>
      <point x="163" y="421" type="curve" smooth="yes"/>
      <point x="82" y="421"/>
      <point x="17" y="486"/>
      <point x="17" y="566" type="curve" smooth="yes"/>
      <point x="17" y="648"/>
      <point x="82" y="712"/>
    </contour>
    <contour>
      <point x="163" y="692" type="curve" smooth="yes"/>
      <point x="93" y="692"/>
      <point x="37" y="636"/>
      <point x="37" y="566" type="curve" smooth="yes"/>
      <point x="37" y="498"/>
      <point x="93" y="441"/>
      <point x="163" y="441" type="curve" smooth="yes"/>
      <point x="232" y="441"/>
      <point x="288" y="498"/>
      <point x="288" y="566" type="curve" smooth="yes"/>
      <point x="288" y="636"/>
      <point x="232" y="692"/>
    </contour>
    <contour>
      <point x="522" y="276" type="curve" smooth="yes"/>
      <point x="603" y="276"/>
      <point x="667" y="211"/>
      <point x="667" y="131" type="curve" smooth="yes"/>
      <point x="667" y="51"/>
      <point x="603" y="-14"/>
      <point x="522" y="-14" type="curve" smooth="yes"/>
      <point x="444" y="-14"/>
      <point x="378" y="51"/>
      <point x="378" y="131" type="curve" smooth="yes"/>
      <point x="378" y="211"/>
      <point x="444" y="276"/>
    </contour>
    <contour>
      <point x="522" y="256" type="curve" smooth="yes"/>
      <point x="455" y="256"/>
      <point x="398" y="200"/>
      <point x="398" y="131" type="curve" smooth="yes"/>
      <point x="398" y="62"/>
      <point x="455" y="7"/>
      <point x="522" y="7" type="curve" smooth="yes"/>
      <point x="592" y="7"/>
      <point x="648" y="62"/>
      <point x="648" y="131" type="curve" smooth="yes"/>
      <point x="648" y="200"/>
      <point x="592" y="256"/>
    </contour>
  </outline>
</glyph>
<glyph name="ampersand" format="1">
  <advance width="510"/>
  <unicode hex="0026"/>
  <outline>
    <contour>
      <point x="237" y="702" type="curve" smooth="yes"/>
      <point x="395" y="702" type="line"/>
      <point x="385" y="682" type="line"/>
      <point x="233" y="682" type="line" smooth="yes"/>
      <point x="147" y="682"/>
      <point x="104" y="627"/>
      <point x="104" y="554" type="curve" smooth="yes"/>
      <point x="104" y="463"/>
      <point x="212" y="403"/>
      <point x="267" y="403" type="curve" smooth="yes"/>
      <point x="374" y="403" type="line"/>
      <point x="374" y="505" type="line"/>
      <point x="390" y="505" type="line"/>
      <point x="390" y="403" type="line"/>
      <point x="489" y="403" type="line"/>
      <point x="480" y="383" type="line"/>
      <point x="390" y="383" type="line"/>
      <point x="390" y="136" type="line" smooth="yes"/>
      <point x="390" y="63"/>
      <point x="419" y="28"/>
      <point x="484" y="7" type="curve"/>
      <point x="479" y="-9" type="line"/>
      <point x="414" y="10"/>
      <point x="382" y="46"/>
      <point x="374" y="105" type="curve"/>
      <point x="350" y="33"/>
      <point x="278" y="0"/>
      <point x="216" y="-4" type="curve" smooth="yes"/>
      <point x="143" y="-9"/>
      <point x="22" y="4"/>
      <point x="22" y="161" type="curve" smooth="yes"/>
      <point x="22" y="254" type="line" smooth="yes"/>
      <point x="22" y="318"/>
      <point x="41" y="403"/>
      <point x="176" y="403" type="curve" smooth="yes"/>
      <point x="198" y="403" type="line"/>
      <point x="125" y="434"/>
      <point x="85" y="496"/>
      <point x="84" y="553" type="curve" smooth="yes"/>
      <point x="82" y="640"/>
      <point x="141" y="702"/>
    </contour>
    <contour>
      <point x="374" y="173" type="curve" smooth="yes"/>
      <point x="374" y="383" type="line"/>
      <point x="174" y="383" type="line" smooth="yes"/>
      <point x="72" y="383"/>
      <point x="41" y="331"/>
      <point x="41" y="255" type="curve" smooth="yes"/>
      <point x="41" y="159" type="line" smooth="yes"/>
      <point x="41" y="47"/>
      <point x="111" y="5"/>
      <point x="216" y="13" type="curve" smooth="yes"/>
      <point x="312" y="21"/>
      <point x="374" y="91"/>
    </contour>
  </outline>
</glyph>
<glyph name="quotesingle" format="1">
  <advance width="85"/>
  <unicode hex="0027"/>
  <outline>
    <contour>
      <point x="49" y="587" type="line"/>
      <point x="33" y="587" type="line"/>
      <point x="27" y="722" type="line" smooth="yes"/>
      <point x="27" y="741"/>
      <point x="56" y="741"/>
      <point x="56" y="722" type="curve"/>
    </contour>
  </outline>
</glyph>
<glyph name="parenleft" format="1">
  <advance width="161"/>
  <unicode hex="0028"/>
  <outline>
    <contour>
      <point x="136" y="813" type="curve"/>
      <point x="146" y="798" type="line"/>
      <point x="90" y="758"/>
      <point x="53" y="729"/>
      <point x="53" y="635" type="curve" smooth="yes"/>
      <point x="53" y="314"/>
      <point x="53" y="155"/>
      <point x="53" y="65" type="curve" smooth="yes"/>
      <point x="53" y="-49"/>
      <point x="119" y="-81"/>
      <point x="147" y="-101" type="curve"/>
      <point x="136" y="-119" type="line"/>
      <point x="63" y="-70"/>
      <point x="34" y="-30"/>
      <point x="34" y="69" type="curve" smooth="yes"/>
      <point x="34" y="625" type="line" smooth="yes"/>
      <point x="34" y="723"/>
      <point x="64" y="767"/>
    </contour>
  </outline>
</glyph>
<glyph name="parenright" format="1">
  <advance width="164"/>
  <unicode hex="0029"/>
  <outline>
    <contour>
      <point x="15" y="798" type="curve"/>
      <point x="25" y="813" type="line"/>
      <point x="99" y="767"/>
      <point x="128" y="722"/>
      <point x="128" y="625" type="curve" smooth="yes"/>
      <point x="128" y="69" type="line" smooth="yes"/>
      <point x="128" y="-30"/>
      <point x="100" y="-71"/>
      <point x="25" y="-119" type="curve"/>
      <point x="14" y="-101" type="line"/>
      <point x="43" y="-80"/>
      <point x="109" y="-50"/>
      <point x="109" y="65" type="curve" smooth="yes"/>
      <point x="109" y="155"/>
      <point x="109" y="314"/>
      <point x="109" y="635" type="curve" smooth="yes"/>
      <point x="109" y="729"/>
      <point x="71" y="758"/>
    </contour>
  </outline>
</glyph>
<glyph name="asterisk" format="1">
  <advance width="325"/>
  <unicode hex="002A"/>
  <outline>
    <contour>
      <point x="145" y="546" type="line"/>
      <point x="17" y="592" type="line"/>
      <point x="24" y="612" type="line"/>
      <point x="150" y="561" type="line"/>
      <point x="149" y="698" type="line"/>
      <point x="171" y="698" type="line"/>
      <point x="170" y="561" type="line"/>
      <point x="300" y="612" type="line"/>
      <point x="307" y="592" type="line"/>
      <point x="177" y="546" type="line"/>
      <point x="259" y="440" type="line"/>
      <point x="243" y="427" type="line"/>
      <point x="161" y="536" type="line"/>
      <point x="84" y="427" type="line"/>
      <point x="66" y="440" type="line"/>
    </contour>
  </outline>
</glyph>
<glyph name="plus" format="1">
  <advance width="357"/>
  <unicode hex="002B"/>
  <outline>
    <contour>
      <point x="168" y="379" type="line"/>
      <point x="168" y="528" type="line"/>
      <point x="187" y="528" type="line"/>
      <point x="187" y="379" type="line"/>
      <point x="337" y="379" type="line"/>
      <point x="337" y="360" type="line"/>
      <point x="187" y="360" type="line"/>
      <point x="187" y="209" type="line"/>
      <point x="168" y="209" type="line"/>
      <point x="168" y="360" type="line"/>
      <point x="18" y="360" type="line"/>
      <point x="18" y="379" type="line"/>
    </contour>
  </outline>
</glyph>
<glyph name="comma" format="1">
  <advance width="106"/>
  <unicode hex="002C"/>
  <outline>
    <contour>
      <point x="35" y="-64" type="curve"/>
      <point x="26" y="-57" type="line"/>
      <point x="45" y="-38"/>
      <point x="51" y="-18"/>
      <point x="52" y="-3" type="curve"/>
      <point x="45" y="0"/>
      <point x="41" y="5"/>
      <point x="41" y="13" type="curve" smooth="yes"/>
      <point x="41" y="22"/>
      <point x="48" y="30"/>
      <point x="57" y="30" type="curve" smooth="yes"/>
      <point x="68" y="30"/>
      <point x="74" y="24"/>
      <point x="74" y="13" type="curve" smooth="yes"/>
      <point x="74" y="-40"/>
      <point x="35" y="-64"/>
    </contour>
  </outline>
</glyph>
<glyph name="hyphen" format="1">
  <advance width="381"/>
  <unicode hex="002D"/>
  <outline>
    <contour>
      <point x="348" y="413" type="line"/>
      <point x="348" y="393" type="line"/>
      <point x="29" y="393" type="line"/>
      <point x="29" y="413" type="line"/>
    </contour>
  </outline>
</glyph>
<glyph name="period" format="1">
  <advance width="95"/>
  <unicode hex="002E"/>
  <outline>
    <contour>
      <point x="30" y="13" type="curve" smooth="yes"/>
      <point x="30" y="23"/>
      <point x="37" y="30"/>
      <point x="47" y="30" type="curve" smooth="yes"/>
      <point x="57" y="30"/>
      <point x="64" y="23"/>
      <point x="64" y="13" type="curve" smooth="yes"/>
      <point x="64" y="3"/>
      <point x="57" y="-4"/>
      <point x="47" y="-4" type="curve" smooth="yes"/>
      <point x="37" y="-4"/>
      <point x="30" y="3"/>
    </contour>
  </outline>
</glyph>
<glyph name="one" format="1">
  <advance width="186"/>
  <unicode hex="0031"/>
  <outline>
    <contour>
      <point x="2" y="590" type="curve"/>
      <point x="-3" y="606" type="line"/>
      <point x="47" y="620"/>
      <point x="106" y="658"/>
      <point x="130" y="698" type="curve"/>
      <point x="150" y="698" type="line"/>
      <point x="150" y="0" type="line"/>
      <point x="130" y="0" type="line"/>
      <point x="130" y="664" type="line"/>
      <point x="96" y="630"/>
      <point x="52" y="602"/>
    </contour>
  </outline>
</glyph>
<glyph name="two" format="1">
  <advance width="383"/>
  <unicode hex="0032"/>
  <outline>
    <contour>
      <point x="42" y="581" type="curve"/>
      <point x="23" y="588" type="line"/>
      <point x="52" y="668"/>
      <point x="110" y="708"/>
      <point x="201" y="708" type="curve" smooth="yes"/>
      <point x="284" y="708"/>
      <point x="364" y="637"/>
      <point x="362" y="546" type="curve" smooth="yes"/>
      <point x="361" y="503"/>
      <point x="345" y="458"/>
      <point x="314" y="411" type="curve" smooth="yes"/>
      <point x="243" y="311"/>
      <point x="174" y="218"/>
      <point x="33" y="20" type="curve"/>
      <point x="360" y="20" type="line"/>
      <point x="360" y="0" type="line"/>
      <point x="11" y="0" type="line"/>
      <point x="11" y="20" type="line"/>
      <point x="107" y="153"/>
      <point x="203" y="286"/>
      <point x="300" y="422" type="curve" smooth="yes"/>
      <point x="327" y="463"/>
      <point x="342" y="505"/>
      <point x="342" y="541" type="curve" smooth="yes"/>
      <point x="344" y="623"/>
      <point x="278" y="689"/>
      <point x="195" y="689" type="curve" smooth="yes"/>
      <point x="110" y="689"/>
      <point x="61" y="642"/>
    </contour>
  </outline>
</glyph>
<glyph name="three" format="1">
  <advance width="412"/>
  <unicode hex="0033"/>
  <outline>
    <contour>
      <point x="343" y="678" type="line"/>
      <point x="143" y="413" type="line"/>
      <point x="186" y="413" type="line" smooth="yes"/>
      <point x="245" y="413"/>
      <point x="296" y="391"/>
      <point x="336" y="350" type="curve" smooth="yes"/>
      <point x="377" y="309"/>
      <point x="398" y="258"/>
      <point x="398" y="199" type="curve" smooth="yes"/>
      <point x="398" y="140"/>
      <point x="377" y="90"/>
      <point x="336" y="50" type="curve" smooth="yes"/>
      <point x="296" y="9"/>
      <point x="246" y="-12"/>
      <point x="186" y="-12" type="curve" smooth="yes"/>
      <point x="114" y="-12"/>
      <point x="49" y="25"/>
      <point x="10" y="82" type="curve"/>
      <point x="27" y="94" type="line"/>
      <point x="66" y="37"/>
      <point x="117" y="7"/>
      <point x="180" y="7" type="curve" smooth="yes"/>
      <point x="243" y="7"/>
      <point x="291" y="26"/>
      <point x="326" y="67" type="curve" smooth="yes"/>
      <point x="362" y="107"/>
      <point x="379" y="154"/>
      <point x="379" y="207" type="curve" smooth="yes"/>
      <point x="379" y="262"/>
      <point x="360" y="305"/>
      <point x="321" y="338" type="curve" smooth="yes"/>
      <point x="281" y="373"/>
      <point x="239" y="393"/>
      <point x="192" y="393" type="curve" smooth="yes"/>
      <point x="106" y="393" type="line"/>
      <point x="319" y="678" type="line"/>
      <point x="54" y="678" type="line"/>
      <point x="54" y="698" type="line"/>
      <point x="343" y="698" type="line"/>
    </contour>
  </outline>
</glyph>
<glyph name="four" format="1">
  <advance width="442"/>
  <unicode hex="0034"/>
  <outline>
    <contour>
      <point x="354" y="393" type="line"/>
      <point x="354" y="0" type="line"/>
      <point x="336" y="0" type="line"/>
      <point x="335" y="393" type="line"/>
      <point x="6" y="393" type="line"/>
      <point x="177" y="698" type="line"/>
      <point x="197" y="698" type="line"/>
      <point x="39" y="413" type="line"/>
      <point x="335" y="413" type="line"/>
      <point x="335" y="698" type="line"/>
      <point x="354" y="698" type="line"/>
      <point x="354" y="413" type="line"/>
      <point x="427" y="413" type="line"/>
      <point x="422" y="393" type="line"/>
    </contour>
  </outline>
</glyph>
<glyph name="five" format="1">
  <advance width="412"/>
  <unicode hex="0035"/>
  <outline>
    <contour>
      <point x="344" y="678" type="line"/>
      <point x="96" y="678" type="line"/>
      <point x="68" y="411" type="line"/>
      <point x="162" y="413" type="line" smooth="yes"/>
      <point x="325" y="413"/>
      <point x="399" y="318"/>
      <point x="399" y="198" type="curve" smooth="yes"/>
      <point x="399" y="75"/>
      <point x="304" y="-12"/>
      <point x="189" y="-12" type="curve" smooth="yes"/>
      <point x="95" y="-14"/>
      <point x="16" y="44"/>
      <point x="16" y="42" type="curve"/>
      <point x="24" y="59" type="line"/>
      <point x="23" y="61"/>
      <point x="102" y="5"/>
      <point x="188" y="7" type="curve" smooth="yes"/>
      <point x="284" y="7"/>
      <point x="380" y="77"/>
      <point x="380" y="199" type="curve" smooth="yes"/>
      <point x="380" y="297"/>
      <point x="321" y="393"/>
      <point x="163" y="393" type="curve" smooth="yes"/>
      <point x="47" y="393" type="line"/>
      <point x="79" y="698" type="line"/>
      <point x="344" y="698" type="line"/>
    </contour>
  </outline>
</glyph>
<glyph name="six" format="1">
  <advance width="459"/>
  <unicode hex="0036"/>
  <outline>
    <contour>
      <point x="301" y="697" type="line"/>
      <point x="301" y="679" type="line"/>
      <point x="268" y="679" type="line" smooth="yes"/>
      <point x="125" y="679"/>
      <point x="43" y="595"/>
      <point x="43" y="457" type="curve" smooth="yes"/>
      <point x="43" y="288" type="line"/>
      <point x="83" y="377"/>
      <point x="158" y="414"/>
      <point x="234" y="414" type="curve" smooth="yes"/>
      <point x="352" y="414"/>
      <point x="448" y="321"/>
      <point x="448" y="202" type="curve" smooth="yes"/>
      <point x="448" y="85"/>
      <point x="352" y="-10"/>
      <point x="235" y="-10" type="curve" smooth="yes"/>
      <point x="118" y="-10"/>
      <point x="23" y="85"/>
      <point x="23" y="202" type="curve" smooth="yes"/>
      <point x="23" y="462" type="line" smooth="yes"/>
      <point x="23" y="610"/>
      <point x="119" y="697"/>
      <point x="267" y="697" type="curve" smooth="yes"/>
    </contour>
    <contour>
      <point x="235" y="395" type="curve" smooth="yes"/>
      <point x="130" y="395"/>
      <point x="43" y="309"/>
      <point x="43" y="202" type="curve" smooth="yes"/>
      <point x="43" y="96"/>
      <point x="130" y="9"/>
      <point x="235" y="9" type="curve" smooth="yes"/>
      <point x="342" y="9"/>
      <point x="428" y="96"/>
      <point x="428" y="202" type="curve" smooth="yes"/>
      <point x="428" y="309"/>
      <point x="342" y="395"/>
    </contour>
  </outline>
</glyph>
<glyph name="seven" format="1">
  <advance width="403"/>
  <unicode hex="0037"/>
  <outline>
    <contour>
      <point x="401" y="698" type="line"/>
      <point x="401" y="678" type="line"/>
      <point x="41" y="0" type="line"/>
      <point x="21" y="0" type="line"/>
      <point x="378" y="678" type="line"/>
      <point x="10" y="678" type="line"/>
      <point x="10" y="698" type="line"/>
    </contour>
  </outline>
</glyph>
<glyph name="eight" format="1">
  <advance width="446"/>
  <unicode hex="0038"/>
  <outline>
    <contour>
      <point x="223" y="707" type="curve" smooth="yes"/>
      <point x="272" y="707"/>
      <point x="312" y="691"/>
      <point x="343" y="658" type="curve" smooth="yes"/>
      <point x="375" y="625"/>
      <point x="390" y="584"/>
      <point x="390" y="536" type="curve" smooth="yes"/>
      <point x="390" y="501"/>
      <point x="379" y="469"/>
      <point x="357" y="440" type="curve" smooth="yes"/>
      <point x="338" y="416"/>
      <point x="311" y="396"/>
      <point x="278" y="385" type="curve"/>
      <point x="323" y="373"/>
      <point x="359" y="349"/>
      <point x="387" y="310" type="curve" smooth="yes"/>
      <point x="414" y="273"/>
      <point x="428" y="232"/>
      <point x="428" y="191" type="curve" smooth="yes"/>
      <point x="428" y="134"/>
      <point x="408" y="85"/>
      <point x="369" y="46" type="curve" smooth="yes"/>
      <point x="330" y="7"/>
      <point x="282" y="-12"/>
      <point x="223" y="-12" type="curve" smooth="yes"/>
      <point x="163" y="-12"/>
      <point x="113" y="7"/>
      <point x="74" y="46" type="curve" smooth="yes"/>
      <point x="35" y="85"/>
      <point x="15" y="134"/>
      <point x="15" y="191" type="curve" smooth="yes"/>
      <point x="15" y="234"/>
      <point x="29" y="275"/>
      <point x="57" y="311" type="curve" smooth="yes"/>
      <point x="84" y="348"/>
      <point x="125" y="373"/>
      <point x="164" y="385" type="curve"/>
      <point x="133" y="396"/>
      <point x="107" y="415"/>
      <point x="86" y="444" type="curve"/>
      <point x="67" y="475"/>
      <point x="56" y="505"/>
      <point x="56" y="536" type="curve" smooth="yes"/>
      <point x="56" y="584"/>
      <point x="72" y="625"/>
      <point x="103" y="658" type="curve" smooth="yes"/>
      <point x="135" y="691"/>
      <point x="175" y="707"/>
    </contour>
    <contour>
      <point x="223" y="391" type="curve" smooth="yes"/>
      <point x="272" y="391"/>
      <point x="316" y="415"/>
      <point x="343" y="451" type="curve" smooth="yes"/>
      <point x="362" y="476"/>
      <point x="371" y="506"/>
      <point x="371" y="539" type="curve" smooth="yes"/>
      <point x="371" y="621"/>
      <point x="305" y="687"/>
      <point x="223" y="687" type="curve" smooth="yes"/>
      <point x="141" y="687"/>
      <point x="74" y="621"/>
      <point x="74" y="539" type="curve" smooth="yes"/>
      <point x="74" y="505"/>
      <point x="85" y="475"/>
      <point x="106" y="448" type="curve" smooth="yes"/>
      <point x="134" y="415"/>
      <point x="175" y="391"/>
    </contour>
    <contour>
      <point x="222" y="5" type="curve" smooth="yes"/>
      <point x="325" y="5"/>
      <point x="409" y="89"/>
      <point x="409" y="189" type="curve" smooth="yes"/>
      <point x="409" y="232"/>
      <point x="395" y="268"/>
      <point x="371" y="299" type="curve" smooth="yes"/>
      <point x="338" y="344"/>
      <point x="283" y="373"/>
      <point x="222" y="373" type="curve" smooth="yes"/>
      <point x="163" y="373"/>
      <point x="111" y="346"/>
      <point x="76" y="305" type="curve" smooth="yes"/>
      <point x="51" y="274"/>
      <point x="35" y="233"/>
      <point x="35" y="189" type="curve" smooth="yes"/>
      <point x="35" y="89"/>
      <point x="118" y="5"/>
    </contour>
  </outline>
</glyph>
<glyph name="nine" format="1">
  <advance width="462"/>
  <unicode hex="0039"/>
  <outline>
    <contour>
      <point x="224" y="706" type="curve" smooth="yes"/>
      <point x="283" y="706"/>
      <point x="333" y="686"/>
      <point x="374" y="645" type="curve" smooth="yes"/>
      <point x="415" y="604"/>
      <point x="436" y="553"/>
      <point x="436" y="494" type="curve" smooth="yes"/>
      <point x="436" y="234" type="line" smooth="yes"/>
      <point x="436" y="181"/>
      <point x="420" y="129"/>
      <point x="385" y="82" type="curve" smooth="yes"/>
      <point x="350" y="33"/>
      <point x="281" y="-1"/>
      <point x="193" y="-1" type="curve" smooth="yes"/>
      <point x="158" y="-1" type="line"/>
      <point x="158" y="20" type="line"/>
      <point x="196" y="20" type="line" smooth="yes"/>
      <point x="252" y="20"/>
      <point x="302" y="34"/>
      <point x="343" y="65" type="curve" smooth="yes"/>
      <point x="388" y="98"/>
      <point x="417" y="162"/>
      <point x="417" y="246" type="curve" smooth="yes"/>
      <point x="417" y="408" type="line"/>
      <point x="376" y="319"/>
      <point x="302" y="283"/>
      <point x="225" y="283" type="curve" smooth="yes"/>
      <point x="165" y="283"/>
      <point x="115" y="304"/>
      <point x="74" y="344" type="curve" smooth="yes"/>
      <point x="33" y="385"/>
      <point x="12" y="435"/>
      <point x="12" y="494" type="curve" smooth="yes"/>
      <point x="12" y="553"/>
      <point x="33" y="603"/>
      <point x="74" y="643" type="curve" smooth="yes"/>
      <point x="115" y="685"/>
      <point x="165" y="706"/>
    </contour>
    <contour>
      <point x="224" y="687" type="curve" smooth="yes"/>
      <point x="118" y="687"/>
      <point x="31" y="603"/>
      <point x="31" y="495" type="curve" smooth="yes"/>
      <point x="31" y="388"/>
      <point x="118" y="301"/>
      <point x="224" y="301" type="curve" smooth="yes"/>
      <point x="330" y="301"/>
      <point x="417" y="388"/>
      <point x="417" y="495" type="curve" smooth="yes"/>
      <point x="417" y="603"/>
      <point x="330" y="687"/>
    </contour>
  </outline>
</glyph>
<glyph name="colon" format="1">
  <advance width="98"/>
  <unicode hex="003A"/>
  <outline>
    <contour>
      <point x="65" y="143" type="curve" smooth="yes"/>
      <point x="65" y="134"/>
      <point x="57" y="127"/>
      <point x="48" y="127" type="curve" smooth="yes"/>
      <point x="39" y="127"/>
      <point x="31" y="134"/>
      <point x="31" y="143" type="curve" smooth="yes"/>
      <point x="31" y="154"/>
      <point x="39" y="159"/>
      <point x="48" y="159" type="curve" smooth="yes"/>
      <point x="57" y="159"/>
      <point x="65" y="154"/>
    </contour>
    <contour>
      <point x="65" y="384" type="curve" smooth="yes"/>
      <point x="65" y="375"/>
      <point x="57" y="367"/>
      <point x="48" y="367" type="curve" smooth="yes"/>
      <point x="39" y="367"/>
      <point x="31" y="375"/>
      <point x="31" y="384" type="curve" smooth="yes"/>
      <point x="31" y="393"/>
      <point x="39" y="400"/>
      <point x="48" y="400" type="curve" smooth="yes"/>
      <point x="57" y="400"/>
      <point x="65" y="393"/>
    </contour>
  </outline>
</glyph>
<glyph name="semicolon" format="1">
  <advance width="109"/>
  <unicode hex="003B"/>
  <outline>
    <contour>
      <point x="37" y="63" type="curve"/>
      <point x="29" y="68" type="line"/>
      <point x="48" y="87"/>
      <point x="53" y="110"/>
      <point x="54" y="123" type="curve"/>
      <point x="47" y="126"/>
      <point x="43" y="132"/>
      <point x="43" y="140" type="curve" smooth="yes"/>
      <point x="43" y="148"/>
      <point x="51" y="156"/>
      <point x="59" y="156" type="curve" smooth="yes"/>
      <point x="70" y="156"/>
      <point x="76" y="151"/>
      <point x="76" y="140" type="curve" smooth="yes"/>
      <point x="76" y="87"/>
      <point x="37" y="63"/>
    </contour>
    <contour>
      <point x="77" y="384" type="curve" smooth="yes"/>
      <point x="77" y="375"/>
      <point x="69" y="367"/>
      <point x="61" y="367" type="curve" smooth="yes"/>
      <point x="52" y="367"/>
      <point x="43" y="375"/>
      <point x="43" y="384" type="curve" smooth="yes"/>
      <point x="43" y="393"/>
      <point x="52" y="400"/>
      <point x="61" y="400" type="curve" smooth="yes"/>
      <point x="69" y="400"/>
      <point x="77" y="393"/>
    </contour>
  </outline>
</glyph>
<glyph name="less" format="1">
  <advance width="330"/>
  <unicode hex="003C"/>
  <outline>
    <contour>
      <point x="309" y="94" type="line"/>
      <point x="295" y="79" type="line"/>
      <point x="18" y="358" type="line"/>
      <point x="295" y="635" type="line"/>
      <point x="309" y="623" type="line"/>
      <point x="42" y="356" type="line"/>
    </contour>
  </outline>
</glyph>
<glyph name="equal" format="1">
  <advance width="382"/>
  <unicode hex="003D"/>
  <outline>
    <contour>
      <point x="349" y="411" type="line"/>
      <point x="349" y="393" type="line"/>
      <point x="30" y="393" type="line"/>
      <point x="30" y="411" type="line"/>
    </contour>
    <contour>
      <point x="349" y="307" type="line"/>
      <point x="349" y="288" type="line"/>
      <point x="30" y="288" type="line"/>
      <point x="30" y="307" type="line"/>
    </contour>
  </outline>
</glyph>
<glyph name="greater" format="1">
  <advance width="329"/>
  <unicode hex="003E"/>
  <outline>
    <contour>
      <point x="19" y="94" type="line"/>
      <point x="287" y="356" type="line"/>
      <point x="19" y="623" type="line"/>
      <point x="33" y="635" type="line"/>
      <point x="310" y="358" type="line"/>
      <point x="33" y="79" type="line"/>
    </contour>
  </outline>
</glyph>
<glyph name="question" format="1">
  <advance width="389"/>
  <unicode hex="003F"/>
  <outline>
    <contour>
      <point x="36" y="530" type="curve"/>
      <point x="17" y="530" type="line"/>
      <point x="18" y="652"/>
      <point x="106" y="709"/>
      <point x="194" y="707" type="curve" smooth="yes"/>
      <point x="282" y="705"/>
      <point x="370" y="646"/>
      <point x="370" y="536" type="curve" smooth="yes"/>
      <point x="370" y="463"/>
      <point x="339" y="420"/>
      <point x="296" y="373" type="curve" smooth="yes"/>
      <point x="216" y="287"/>
      <point x="191" y="272"/>
      <point x="191" y="193" type="curve" smooth="yes"/>
      <point x="191" y="119" type="line"/>
      <point x="173" y="119" type="line"/>
      <point x="173" y="187" type="line" smooth="yes"/>
      <point x="173" y="295"/>
      <point x="219" y="309"/>
      <point x="289" y="393" type="curve" smooth="yes"/>
      <point x="333" y="447"/>
      <point x="352" y="482"/>
      <point x="352" y="535" type="curve" smooth="yes"/>
      <point x="352" y="617"/>
      <point x="290" y="689"/>
      <point x="194" y="689" type="curve" smooth="yes"/>
      <point x="118" y="689"/>
      <point x="36" y="640"/>
    </contour>
    <contour>
      <point x="183" y="30" type="curve" smooth="yes"/>
      <point x="191" y="30"/>
      <point x="199" y="22"/>
      <point x="199" y="13" type="curve" smooth="yes"/>
      <point x="199" y="4"/>
      <point x="191" y="-4"/>
      <point x="183" y="-4" type="curve" smooth="yes"/>
      <point x="174" y="-4"/>
      <point x="165" y="4"/>
      <point x="165" y="13" type="curve" smooth="yes"/>
      <point x="165" y="22"/>
      <point x="174" y="30"/>
    </contour>
  </outline>
</glyph>
<glyph name="at" format="1">
  <advance width="702"/>
  <unicode hex="0040"/>
  <outline>
    <contour>
      <point x="673" y="484" type="curve"/>
      <point x="682" y="472" type="line"/>
      <point x="658" y="452"/>
      <point x="648" y="442"/>
      <point x="648" y="386" type="curve" smooth="yes"/>
      <point x="648" y="170" type="line" smooth="yes"/>
      <point x="648" y="22"/>
      <point x="489" y="-67"/>
      <point x="330" y="-67" type="curve" smooth="yes"/>
      <point x="147" y="-67"/>
      <point x="24" y="31"/>
      <point x="24" y="201" type="curve" smooth="yes"/>
      <point x="24" y="333" type="line" smooth="yes"/>
      <point x="24" y="471"/>
      <point x="113" y="579"/>
      <point x="285" y="579" type="curve" smooth="yes"/>
      <point x="388" y="579"/>
      <point x="482" y="535"/>
      <point x="502" y="442" type="curve"/>
      <point x="571" y="442" type="line"/>
      <point x="567" y="424" type="line"/>
      <point x="505" y="424" type="line"/>
      <point x="505" y="69" type="line"/>
      <point x="506" y="70"/>
      <point x="394" y="61"/>
      <point x="322" y="61" type="curve" smooth="yes"/>
      <point x="188" y="61"/>
      <point x="147" y="141"/>
      <point x="147" y="222" type="curve" smooth="yes"/>
      <point x="147" y="288" type="line" smooth="yes"/>
      <point x="147" y="408"/>
      <point x="222" y="442"/>
      <point x="300" y="442" type="curve" smooth="yes"/>
      <point x="486" y="442" type="line"/>
      <point x="469" y="509"/>
      <point x="406" y="561"/>
      <point x="285" y="561" type="curve" smooth="yes"/>
      <point x="165" y="561"/>
      <point x="43" y="501"/>
      <point x="43" y="338" type="curve" smooth="yes"/>
      <point x="43" y="198" type="line" smooth="yes"/>
      <point x="43" y="53"/>
      <point x="141" y="-48"/>
      <point x="335" y="-48" type="curve" smooth="yes"/>
      <point x="478" y="-48"/>
      <point x="632" y="35"/>
      <point x="632" y="168" type="curve" smooth="yes"/>
      <point x="632" y="371" type="line" smooth="yes"/>
      <point x="632" y="437"/>
      <point x="635" y="458"/>
    </contour>
    <contour>
      <point x="489" y="87" type="curve"/>
      <point x="489" y="424" type="line"/>
      <point x="295" y="424" type="line" smooth="yes"/>
      <point x="207" y="424"/>
      <point x="163" y="373"/>
      <point x="163" y="285" type="curve" smooth="yes"/>
      <point x="163" y="227" type="line" smooth="yes"/>
      <point x="163" y="130"/>
      <point x="216" y="79"/>
      <point x="321" y="79" type="curve" smooth="yes"/>
      <point x="390" y="79"/>
      <point x="490" y="88"/>
    </contour>
  </outline>
</glyph>
<glyph name="A" format="1">
  <advance width="516"/>
  <unicode hex="0041"/>
  <outline>
    <contour>
      <point x="250" y="698" type="line"/>
      <point x="264" y="698" type="line"/>
      <point x="509" y="0" type="line"/>
      <point x="488" y="0" type="line"/>
      <point x="390" y="280" type="line"/>
      <point x="123" y="280" type="line"/>
      <point x="25" y="0" type="line"/>
      <point x="5" y="0" type="line"/>
    </contour>
    <contour>
      <point x="384" y="299" type="line"/>
      <point x="257" y="658" type="line"/>
      <point x="131" y="299" type="line"/>
    </contour>
  </outline>
</glyph>
<glyph name="B" format="1">
  <advance width="486"/>
  <unicode hex="0042"/>
  <outline>
    <contour>
      <point x="34" y="0" type="line"/>
      <point x="34" y="700" type="line"/>
      <point x="253" y="700" type="line" smooth="yes"/>
      <point x="363" y="700"/>
      <point x="431" y="646"/>
      <point x="431" y="540" type="curve" smooth="yes"/>
      <point x="431" y="484"/>
      <point x="393" y="420"/>
      <point x="331" y="402" type="curve"/>
      <point x="424" y="379"/>
      <point x="468" y="299"/>
      <point x="468" y="209" type="curve" smooth="yes"/>
      <point x="468" y="83"/>
      <point x="396" y="0"/>
      <point x="263" y="0" type="curve" smooth="yes"/>
    </contour>
    <contour>
      <point x="53" y="681" type="line"/>
      <point x="53" y="412" type="line"/>
      <point x="291" y="412" type="line" smooth="yes"/>
      <point x="360" y="412"/>
      <point x="412" y="468"/>
      <point x="412" y="542" type="curve" smooth="yes"/>
      <point x="412" y="623"/>
      <point x="364" y="681"/>
      <point x="249" y="681" type="curve" smooth="yes"/>
    </contour>
    <contour>
      <point x="53" y="394" type="line"/>
      <point x="53" y="19" type="line"/>
      <point x="264" y="19" type="line" smooth="yes"/>
      <point x="385" y="19"/>
      <point x="449" y="94"/>
      <point x="449" y="209" type="curve" smooth="yes"/>
      <point x="449" y="318"/>
      <point x="381" y="394"/>
      <point x="266" y="394" type="curve" smooth="yes"/>
    </contour>
  </outline>
</glyph>
<glyph name="C" format="1">
  <advance width="400"/>
  <unicode hex="0043"/>
  <outline>
    <contour>
      <point x="364" y="677" type="curve"/>
      <point x="356" y="660" type="line"/>
      <point x="312" y="683"/>
      <point x="267" y="691"/>
      <point x="225" y="691" type="curve" smooth="yes"/>
      <point x="109" y="691"/>
      <point x="46" y="632"/>
      <point x="46" y="514" type="curve" smooth="yes"/>
      <point x="46" y="186" type="line" smooth="yes"/>
      <point x="46" y="55"/>
      <point x="125" y="8"/>
      <point x="231" y="8" type="curve" smooth="yes"/>
      <point x="271" y="8"/>
      <point x="327" y="18"/>
      <point x="383" y="41" type="curve"/>
      <point x="389" y="23" type="line"/>
      <point x="333" y="1"/>
      <point x="279" y="-10"/>
      <point x="227" y="-10" type="curve" smooth="yes"/>
      <point x="101" y="-10"/>
      <point x="27" y="51"/>
      <point x="27" y="184" type="curve" smooth="yes"/>
      <point x="27" y="514" type="line" smooth="yes"/>
      <point x="27" y="660"/>
      <point x="122" y="710"/>
      <point x="222" y="710" type="curve" smooth="yes"/>
      <point x="276" y="710"/>
      <point x="324" y="699"/>
    </contour>
  </outline>
</glyph>
<glyph name="D" format="1">
  <advance width="481"/>
  <unicode hex="0044"/>
  <outline>
    <contour>
      <point x="34" y="0" type="line"/>
      <point x="34" y="698" type="line"/>
      <point x="222" y="698" type="line" smooth="yes"/>
      <point x="373" y="698"/>
      <point x="453" y="609"/>
      <point x="453" y="473" type="curve" smooth="yes"/>
      <point x="453" y="199" type="line" smooth="yes"/>
      <point x="453" y="67"/>
      <point x="383" y="0"/>
      <point x="242" y="0" type="curve" smooth="yes"/>
    </contour>
    <contour>
      <point x="53" y="678" type="line"/>
      <point x="53" y="20" type="line"/>
      <point x="232" y="20" type="line" smooth="yes"/>
      <point x="359" y="20"/>
      <point x="434" y="63"/>
      <point x="434" y="213" type="curve" smooth="yes"/>
      <point x="434" y="466" type="line" smooth="yes"/>
      <point x="434" y="592"/>
      <point x="367" y="678"/>
      <point x="232" y="678" type="curve" smooth="yes"/>
    </contour>
  </outline>
</glyph>
<glyph name="E" format="1">
  <advance width="380"/>
  <unicode hex="0045"/>
  <outline>
    <contour>
      <point x="365" y="19" type="line"/>
      <point x="365" y="0" type="line"/>
      <point x="34" y="0" type="line"/>
      <point x="34" y="698" type="line"/>
      <point x="367" y="698" type="line"/>
      <point x="367" y="679" type="line"/>
      <point x="53" y="679" type="line"/>
      <point x="53" y="411" type="line"/>
      <point x="280" y="411" type="line"/>
      <point x="274" y="393" type="line"/>
      <point x="53" y="393" type="line"/>
      <point x="53" y="19" type="line"/>
    </contour>
  </outline>
</glyph>
<glyph name="F" format="1">
  <advance width="368"/>
  <unicode hex="0046"/>
  <outline>
    <contour>
      <point x="34" y="0" type="line"/>
      <point x="34" y="698" type="line"/>
      <point x="367" y="698" type="line"/>
      <point x="367" y="678" type="line"/>
      <point x="54" y="678" type="line"/>
      <point x="54" y="411" type="line"/>
      <point x="281" y="411" type="line"/>
      <point x="274" y="393" type="line"/>
      <point x="54" y="393" type="line"/>
      <point x="54" y="0" type="line"/>
    </contour>
  </outline>
</glyph>
<glyph name="G" format="1">
  <advance width="458"/>
  <unicode hex="0047"/>
  <outline>
    <contour>
      <point x="362" y="674" type="curve"/>
      <point x="355" y="657" type="line"/>
      <point x="308" y="680"/>
      <point x="262" y="689"/>
      <point x="223" y="689" type="curve" smooth="yes"/>
      <point x="97" y="689"/>
      <point x="46" y="616"/>
      <point x="46" y="495" type="curve" smooth="yes"/>
      <point x="46" y="186" type="line" smooth="yes"/>
      <point x="46" y="71"/>
      <point x="132" y="9"/>
      <point x="241" y="9" type="curve" smooth="yes"/>
      <point x="352" y="9"/>
      <point x="418" y="70"/>
      <point x="418" y="182" type="curve" smooth="yes"/>
      <point x="418" y="280" type="line"/>
      <point x="243" y="280" type="line"/>
      <point x="235" y="299" type="line"/>
      <point x="437" y="299" type="line"/>
      <point x="437" y="0" type="line"/>
      <point x="418" y="0" type="line"/>
      <point x="418" y="88" type="line"/>
      <point x="388" y="27"/>
      <point x="326" y="-10"/>
      <point x="238" y="-10" type="curve" smooth="yes"/>
      <point x="124" y="-10"/>
      <point x="26" y="58"/>
      <point x="26" y="188" type="curve" smooth="yes"/>
      <point x="26" y="502" type="line" smooth="yes"/>
      <point x="26" y="630"/>
      <point x="94" y="707"/>
      <point x="220" y="707" type="curve" smooth="yes"/>
      <point x="272" y="707"/>
      <point x="319" y="696"/>
    </contour>
  </outline>
</glyph>
<glyph name="I" format="1">
  <advance width="147"/>
  <unicode hex="0049"/>
  <outline>
    <contour>
      <point x="93" y="0" type="line"/>
      <point x="93" y="676" type="line"/>
      <point x="7" y="679" type="line"/>
      <point x="7" y="698" type="line"/>
      <point x="111" y="698" type="line"/>
      <point x="111" y="0" type="line"/>
    </contour>
  </outline>
</glyph>
<glyph name="J" format="1">
  <advance width="159"/>
  <unicode hex="004A"/>
  <outline>
    <contour>
      <point x="21" y="698" type="line"/>
      <point x="124" y="698" type="line"/>
      <point x="124" y="122" type="line" smooth="yes"/>
      <point x="124" y="43"/>
      <point x="108" y="-22"/>
      <point x="20" y="-37" type="curve"/>
      <point x="14" y="-19" type="line"/>
      <point x="74" y="-10"/>
      <point x="106" y="35"/>
      <point x="106" y="118" type="curve" smooth="yes"/>
      <point x="106" y="676" type="line"/>
      <point x="21" y="679" type="line"/>
    </contour>
  </outline>
</glyph>
<glyph name="K" format="1">
  <advance width="438"/>
  <unicode hex="004B"/>
  <outline>
    <contour>
      <point x="34" y="698" type="line"/>
      <point x="53" y="698" type="line"/>
      <point x="53" y="307" type="line"/>
      <point x="356" y="698" type="line"/>
      <point x="378" y="698" type="line"/>
      <point x="162" y="417" type="line"/>
      <point x="430" y="0" type="line"/>
      <point x="409" y="0" type="line"/>
      <point x="149" y="402" type="line"/>
      <point x="53" y="279" type="line"/>
      <point x="53" y="0" type="line"/>
      <point x="34" y="0" type="line"/>
    </contour>
  </outline>
</glyph>
<glyph name="L" format="1">
  <advance width="400"/>
  <unicode hex="004C"/>
  <outline>
    <contour>
      <point x="394" y="20" type="line"/>
      <point x="394" y="0" type="line"/>
      <point x="34" y="0" type="line"/>
      <point x="34" y="698" type="line"/>
      <point x="53" y="698" type="line"/>
      <point x="53" y="20" type="line"/>
    </contour>
  </outline>
</glyph>
<glyph name="M" format="1">
  <advance width="605"/>
  <unicode hex="004D"/>
  <outline>
    <contour>
      <point x="34" y="0" type="line"/>
      <point x="34" y="698" type="line"/>
      <point x="52" y="698" type="line"/>
      <point x="301" y="30" type="line"/>
      <point x="551" y="698" type="line"/>
      <point x="569" y="698" type="line"/>
      <point x="569" y="0" type="line"/>
      <point x="551" y="0" type="line"/>
      <point x="551" y="646" type="line"/>
      <point x="309" y="0" type="line"/>
      <point x="291" y="0" type="line"/>
      <point x="52" y="646" type="line"/>
      <point x="52" y="0" type="line"/>
    </contour>
  </outline>
</glyph>
<glyph name="N" format="1">
  <advance width="561"/>
  <unicode hex="004E"/>
  <outline>
    <contour>
      <point x="508" y="32" type="line"/>
      <point x="508" y="698" type="line"/>
      <point x="525" y="698" type="line"/>
      <point x="525" y="0" type="line"/>
      <point x="508" y="0" type="line"/>
      <point x="52" y="668" type="line"/>
      <point x="52" y="0" type="line"/>
      <point x="34" y="0" type="line"/>
      <point x="34" y="698" type="line"/>
      <point x="52" y="698" type="line"/>
    </contour>
  </outline>
</glyph>
<glyph name="O" format="1">
  <advance width="473"/>
  <unicode hex="004F"/>
  <outline>
    <contour>
      <point x="26" y="185" type="curve" smooth="yes"/>
      <point x="26" y="506" type="line" smooth="yes"/>
      <point x="26" y="636"/>
      <point x="105" y="714"/>
      <point x="237" y="714" type="curve" smooth="yes"/>
      <point x="368" y="714"/>
      <point x="444" y="636"/>
      <point x="444" y="505" type="curve" smooth="yes"/>
      <point x="444" y="185" type="line" smooth="yes"/>
      <point x="444" y="63"/>
      <point x="361" y="-11"/>
      <point x="236" y="-11" type="curve" smooth="yes"/>
      <point x="119" y="-11"/>
      <point x="26" y="56"/>
    </contour>
    <contour>
      <point x="45" y="506" type="curve" smooth="yes"/>
      <point x="45" y="184" type="line" smooth="yes"/>
      <point x="45" y="66"/>
      <point x="130" y="8"/>
      <point x="236" y="8" type="curve" smooth="yes"/>
      <point x="344" y="8"/>
      <point x="426" y="66"/>
      <point x="426" y="184" type="curve" smooth="yes"/>
      <point x="426" y="508" type="line" smooth="yes"/>
      <point x="426" y="621"/>
      <point x="362" y="694"/>
      <point x="237" y="694" type="curve" smooth="yes"/>
      <point x="110" y="694"/>
      <point x="45" y="621"/>
    </contour>
  </outline>
</glyph>
<glyph name="P" format="1">
  <advance width="485"/>
  <unicode hex="0050"/>
  <outline>
    <contour>
      <point x="34" y="0" type="line"/>
      <point x="34" y="700" type="line"/>
      <point x="284" y="700" type="line" smooth="yes"/>
      <point x="411" y="700"/>
      <point x="469" y="623"/>
      <point x="469" y="494" type="curve" smooth="yes"/>
      <point x="469" y="355"/>
      <point x="412" y="281"/>
      <point x="277" y="281" type="curve" smooth="yes"/>
      <point x="53" y="281" type="line"/>
      <point x="53" y="0" type="line"/>
    </contour>
    <contour>
      <point x="285" y="680" type="curve" smooth="yes"/>
      <point x="53" y="680" type="line"/>
      <point x="53" y="300" type="line"/>
      <point x="276" y="300" type="line" smooth="yes"/>
      <point x="398" y="300"/>
      <point x="450" y="368"/>
      <point x="450" y="494" type="curve" smooth="yes"/>
      <point x="450" y="611"/>
      <point x="401" y="680"/>
    </contour>
  </outline>
</glyph>
<glyph name="Q" format="1">
  <advance width="181"/>
  <unicode hex="0051"/>
  <outline>
    <contour>
      <point x="25" y="173" type="line"/>
      <point x="45" y="173" type="line"/>
      <point x="45" y="43" type="line" smooth="yes"/>
      <point x="45" y="-39"/>
      <point x="91" y="-76"/>
      <point x="187" y="-76" type="curve"/>
      <point x="185" y="-96" type="line"/>
      <point x="77" y="-96"/>
      <point x="25" y="-51"/>
      <point x="25" y="43" type="curve" smooth="yes"/>
    </contour>
    <component base="O"/>
  </outline>
</glyph>
<glyph name="R" format="1">
  <advance width="492"/>
  <unicode hex="0052"/>
  <outline>
    <contour>
      <point x="34" y="0" type="line"/>
      <point x="34" y="698" type="line"/>
      <point x="283" y="698" type="line" smooth="yes"/>
      <point x="409" y="698"/>
      <point x="467" y="621"/>
      <point x="467" y="492" type="curve" smooth="yes"/>
      <point x="467" y="375"/>
      <point x="426" y="304"/>
      <point x="331" y="285" type="curve"/>
      <point x="467" y="0" type="line"/>
      <point x="447" y="0" type="line"/>
      <point x="312" y="283" type="line"/>
      <point x="300" y="282"/>
      <point x="288" y="280"/>
      <point x="276" y="280" type="curve" smooth="yes"/>
      <point x="53" y="280" type="line"/>
      <point x="53" y="0" type="line"/>
    </contour>
    <contour>
      <point x="53" y="678" type="line"/>
      <point x="53" y="299" type="line"/>
      <point x="275" y="299" type="line" smooth="yes"/>
      <point x="397" y="299"/>
      <point x="448" y="367"/>
      <point x="448" y="492" type="curve" smooth="yes"/>
      <point x="448" y="610"/>
      <point x="400" y="678"/>
      <point x="284" y="678" type="curve" smooth="yes"/>
    </contour>
  </outline>
</glyph>
<glyph name="S" format="1">
  <advance width="497"/>
  <unicode hex="0053"/>
  <outline>
    <contour>
      <point x="425" y="670" type="curve"/>
      <point x="418" y="651" type="line"/>
      <point x="375" y="678"/>
      <point x="315" y="691"/>
      <point x="264" y="691" type="curve" smooth="yes"/>
      <point x="177" y="691"/>
      <point x="68" y="649"/>
      <point x="68" y="547" type="curve" smooth="yes"/>
      <point x="68" y="345"/>
      <point x="486" y="415"/>
      <point x="486" y="167" type="curve" smooth="yes"/>
      <point x="486" y="39"/>
      <point x="363" y="-12"/>
      <point x="252" y="-12" type="curve" smooth="yes"/>
      <point x="161" y="-12"/>
      <point x="65" y="22"/>
      <point x="12" y="99" type="curve"/>
      <point x="25" y="109" type="line"/>
      <point x="79" y="39"/>
      <point x="165" y="7"/>
      <point x="251" y="7" type="curve" smooth="yes"/>
      <point x="353" y="7"/>
      <point x="467" y="50"/>
      <point x="467" y="169" type="curve" smooth="yes"/>
      <point x="467" y="398"/>
      <point x="49" y="329"/>
      <point x="49" y="547" type="curve" smooth="yes"/>
      <point x="49" y="663"/>
      <point x="168" y="708"/>
      <point x="267" y="708" type="curve" smooth="yes"/>
      <point x="322" y="708"/>
      <point x="377" y="695"/>
    </contour>
  </outline>
</glyph>
<glyph name="T" format="1">
  <advance width="390"/>
  <unicode hex="0054"/>
  <outline>
    <contour>
      <point x="395" y="698" type="line"/>
      <point x="395" y="678" type="line"/>
      <point x="201" y="678" type="line"/>
      <point x="201" y="0" type="line"/>
      <point x="183" y="0" type="line"/>
      <point x="183" y="678" type="line"/>
      <point x="-7" y="678" type="line"/>
      <point x="-7" y="698" type="line"/>
    </contour>
  </outline>
</glyph>
<glyph name="U" format="1">
  <advance width="483"/>
  <unicode hex="0055"/>
  <outline>
    <contour>
      <point x="430" y="700" type="line"/>
      <point x="450" y="700" type="line"/>
      <point x="450" y="186" type="line" smooth="yes"/>
      <point x="450" y="58"/>
      <point x="364" y="-11"/>
      <point x="241" y="-11" type="curve" smooth="yes"/>
      <point x="116" y="-11"/>
      <point x="30" y="56"/>
      <point x="30" y="186" type="curve" smooth="yes"/>
      <point x="30" y="700" type="line"/>
      <point x="48" y="700" type="line"/>
      <point x="48" y="185" type="line" smooth="yes"/>
      <point x="48" y="69"/>
      <point x="131" y="8"/>
      <point x="241" y="8" type="curve" smooth="yes"/>
      <point x="354" y="8"/>
      <point x="430" y="67"/>
      <point x="430" y="185" type="curve" smooth="yes"/>
    </contour>
  </outline>
</glyph>
<glyph name="V" format="1">
  <advance width="486"/>
  <unicode hex="0056"/>
  <outline>
    <contour>
      <point x="255" y="0" type="line"/>
      <point x="233" y="0" type="line"/>
      <point x="4" y="698" type="line"/>
      <point x="23" y="698" type="line"/>
      <point x="243" y="26" type="line"/>
      <point x="462" y="698" type="line"/>
      <point x="481" y="698" type="line"/>
    </contour>
  </outline>
</glyph>
<glyph name="W" format="1">
  <advance width="710"/>
  <unicode hex="0057"/>
  <outline>
    <contour>
      <point x="199" y="36" type="line"/>
      <point x="344" y="698" type="line"/>
      <point x="365" y="698" type="line"/>
      <point x="511" y="35" type="line"/>
      <point x="679" y="698" type="line"/>
      <point x="701" y="698" type="line"/>
      <point x="521" y="0" type="line"/>
      <point x="500" y="0" type="line"/>
      <point x="355" y="651" type="line"/>
      <point x="210" y="0" type="line"/>
      <point x="189" y="0" type="line"/>
      <point x="7" y="698" type="line"/>
      <point x="28" y="698" type="line"/>
    </contour>
  </outline>
</glyph>
<glyph name="Z" format="1">
  <advance width="509"/>
  <unicode hex="005A"/>
  <outline>
    <contour>
      <point x="24" y="679" type="line"/>
      <point x="23" y="698" type="line"/>
      <point x="490" y="698" type="line"/>
      <point x="490" y="679" type="line"/>
      <point x="34" y="19" type="line"/>
      <point x="496" y="19" type="line"/>
      <point x="496" y="0" type="line"/>
      <point x="11" y="0" type="line"/>
      <point x="11" y="19" type="line"/>
      <point x="466" y="679" type="line"/>
    </contour>
  </outline>
</glyph>
<glyph name="bracketleft" format="1">
  <advance width="209"/>
  <unicode hex="005B"/>
  <outline>
    <contour>
      <point x="196" y="815" type="line"/>
      <point x="196" y="798" type="line"/>
      <point x="54" y="796" type="line"/>
      <point x="54" y="-95" type="line"/>
      <point x="196" y="-96" type="line"/>
      <point x="196" y="-113" type="line"/>
      <point x="35" y="-113" type="line"/>
      <point x="35" y="815" type="line"/>
    </contour>
  </outline>
</glyph>
<glyph name="backslash" format="1">
  <advance width="371"/>
  <unicode hex="005C"/>
  <outline>
    <contour>
      <point x="34" y="815" type="line"/>
      <point x="357" y="-113" type="line"/>
      <point x="337" y="-113" type="line"/>
      <point x="13" y="815" type="line"/>
    </contour>
  </outline>
</glyph>
<glyph name="a" format="1">
  <advance width="430"/>
  <unicode hex="0061"/>
  <outline>
    <contour>
      <point x="380" y="346" type="curve"/>
      <point x="380" y="460"/>
      <point x="286" y="491"/>
      <point x="190" y="491" type="curve"/>
      <point x="191" y="509" type="line"/>
      <point x="304" y="509"/>
      <point x="399" y="478"/>
      <point x="399" y="336" type="curve" smooth="yes"/>
      <point x="399" y="0" type="line"/>
      <point x="402" y="0"/>
      <point x="257" y="-10"/>
      <point x="219" y="-10" type="curve" smooth="yes"/>
      <point x="74" y="-10"/>
      <point x="14" y="50"/>
      <point x="14" y="169" type="curve" smooth="yes"/>
      <point x="14" y="252" type="line" smooth="yes"/>
      <point x="14" y="316"/>
      <point x="41" y="404"/>
      <point x="176" y="404" type="curve" smooth="yes"/>
      <point x="249" y="404"/>
      <point x="320" y="376"/>
    </contour>
    <contour>
      <point x="380" y="18" type="curve"/>
      <point x="380" y="323" type="line"/>
      <point x="309" y="360"/>
      <point x="248" y="385"/>
      <point x="175" y="385" type="curve" smooth="yes"/>
      <point x="71" y="385"/>
      <point x="32" y="324"/>
      <point x="32" y="250" type="curve" smooth="yes"/>
      <point x="32" y="163" type="line" smooth="yes"/>
      <point x="32" y="90"/>
      <point x="62" y="8"/>
      <point x="219" y="8" type="curve" smooth="yes"/>
      <point x="263" y="8"/>
      <point x="383" y="18"/>
    </contour>
  </outline>
</glyph>
<glyph name="b" format="1">
  <advance width="440"/>
  <unicode hex="0062"/>
  <outline>
    <contour>
      <point x="36" y="698" type="line"/>
      <point x="55" y="698" type="line"/>
      <point x="55" y="470" type="line"/>
      <point x="106" y="493"/>
      <point x="169" y="508"/>
      <point x="242" y="508" type="curve" smooth="yes"/>
      <point x="376" y="508"/>
      <point x="420" y="421"/>
      <point x="420" y="358" type="curve"/>
      <point x="420" y="360"/>
      <point x="420" y="167"/>
      <point x="420" y="168" type="curve"/>
      <point x="420" y="50"/>
      <point x="363" y="-11"/>
      <point x="215" y="-11" type="curve" smooth="yes"/>
      <point x="178" y="-11"/>
      <point x="33" y="-1"/>
      <point x="36" y="-1" type="curve"/>
    </contour>
    <contour>
      <point x="55" y="18" type="curve"/>
      <point x="53" y="18"/>
      <point x="170" y="8"/>
      <point x="215" y="7" type="curve" smooth="yes"/>
      <point x="372" y="4"/>
      <point x="401" y="89"/>
      <point x="401" y="161" type="curve" smooth="yes"/>
      <point x="401" y="180"/>
      <point x="401" y="333"/>
      <point x="401" y="354" type="curve" smooth="yes"/>
      <point x="401" y="430"/>
      <point x="347" y="491"/>
      <point x="243" y="491" type="curve" smooth="yes"/>
      <point x="170" y="491"/>
      <point x="108" y="474"/>
      <point x="55" y="450" type="curve"/>
      <point x="55" y="451"/>
      <point x="55" y="17"/>
    </contour>
  </outline>
</glyph>
<glyph name="c" format="1">
  <advance width="361"/>
  <unicode hex="0063"/>
  <outline>
    <contour>
      <point x="342" y="478" type="curve"/>
      <point x="335" y="459" type="line"/>
      <point x="292" y="481"/>
      <point x="247" y="492"/>
      <point x="205" y="491" type="curve" smooth="yes"/>
      <point x="99" y="491"/>
      <point x="41" y="423"/>
      <point x="41" y="314" type="curve" smooth="yes"/>
      <point x="41" y="176" type="line" smooth="yes"/>
      <point x="41" y="54"/>
      <point x="113" y="9"/>
      <point x="219" y="9" type="curve" smooth="yes"/>
      <point x="284" y="9"/>
      <point x="341" y="26"/>
      <point x="340" y="25" type="curve"/>
      <point x="344" y="5" type="line"/>
      <point x="305" y="-6"/>
      <point x="260" y="-12"/>
      <point x="217" y="-11" type="curve" smooth="yes"/>
      <point x="100" y="-9"/>
      <point x="23" y="43"/>
      <point x="22" y="174" type="curve" smooth="yes"/>
      <point x="22" y="314" type="line" smooth="yes"/>
      <point x="21" y="430"/>
      <point x="83" y="510"/>
      <point x="205" y="510" type="curve" smooth="yes"/>
      <point x="251" y="511"/>
      <point x="299" y="499"/>
    </contour>
  </outline>
</glyph>
<glyph name="d" format="1">
  <advance width="440"/>
  <unicode hex="0064"/>
  <outline>
    <contour>
      <point x="383" y="698" type="line"/>
      <point x="402" y="698" type="line"/>
      <point x="402" y="-1" type="line"/>
      <point x="405" y="-1"/>
      <point x="260" y="-11"/>
      <point x="223" y="-11" type="curve" smooth="yes"/>
      <point x="77" y="-11"/>
      <point x="18" y="50"/>
      <point x="18" y="168" type="curve" smooth="yes"/>
      <point x="18" y="358" type="line" smooth="yes"/>
      <point x="18" y="421"/>
      <point x="63" y="508"/>
      <point x="197" y="508" type="curve" smooth="yes"/>
      <point x="270" y="508"/>
      <point x="331" y="493"/>
      <point x="383" y="470" type="curve"/>
    </contour>
    <contour>
      <point x="383" y="18" type="curve"/>
      <point x="383" y="450" type="line"/>
      <point x="331" y="474"/>
      <point x="270" y="491"/>
      <point x="195" y="491" type="curve" smooth="yes"/>
      <point x="93" y="491"/>
      <point x="38" y="430"/>
      <point x="38" y="354" type="curve" smooth="yes"/>
      <point x="38" y="161" type="line" smooth="yes"/>
      <point x="38" y="89"/>
      <point x="67" y="6"/>
      <point x="224" y="7" type="curve" smooth="yes"/>
      <point x="268" y="7"/>
      <point x="385" y="18"/>
    </contour>
  </outline>
</glyph>
<glyph name="e" format="1">
  <advance width="404"/>
  <unicode hex="0065"/>
  <outline>
    <contour>
      <point x="383" y="246" type="line"/>
      <point x="42" y="229" type="line"/>
      <point x="42" y="132" type="line" smooth="yes"/>
      <point x="42" y="37"/>
      <point x="110" y="7"/>
      <point x="195" y="7" type="curve" smooth="yes"/>
      <point x="250" y="7"/>
      <point x="292" y="20"/>
      <point x="349" y="52" type="curve"/>
      <point x="357" y="35" type="line"/>
      <point x="308" y="4"/>
      <point x="253" y="-12"/>
      <point x="197" y="-12" type="curve" smooth="yes"/>
      <point x="100" y="-12"/>
      <point x="23" y="25"/>
      <point x="23" y="133" type="curve" smooth="yes"/>
      <point x="23" y="338" type="line" smooth="yes"/>
      <point x="23" y="449"/>
      <point x="101" y="508"/>
      <point x="207" y="508" type="curve" smooth="yes"/>
      <point x="312" y="508"/>
      <point x="383" y="452"/>
      <point x="383" y="341" type="curve" smooth="yes"/>
    </contour>
    <contour>
      <point x="42" y="248" type="line"/>
      <point x="363" y="264" type="line"/>
      <point x="363" y="342" type="line" smooth="yes"/>
      <point x="363" y="443"/>
      <point x="298" y="491"/>
      <point x="203" y="491" type="curve" smooth="yes"/>
      <point x="102" y="491"/>
      <point x="42" y="434"/>
      <point x="42" y="332" type="curve" smooth="yes"/>
    </contour>
  </outline>
</glyph>
<glyph name="f" format="1">
  <advance width="227"/>
  <unicode hex="0066"/>
  <outline>
    <contour>
      <point x="217" y="707" type="curve"/>
      <point x="213" y="689" type="line"/>
      <point x="203" y="692"/>
      <point x="196" y="693"/>
      <point x="187" y="693" type="curve" smooth="yes"/>
      <point x="125" y="695"/>
      <point x="52" y="665"/>
      <point x="52" y="550" type="curve" smooth="yes"/>
      <point x="52" y="500" type="line"/>
      <point x="203" y="500" type="line"/>
      <point x="196" y="484" type="line"/>
      <point x="52" y="484" type="line"/>
      <point x="52" y="0" type="line"/>
      <point x="32" y="0" type="line"/>
      <point x="32" y="550" type="line" smooth="yes"/>
      <point x="32" y="673"/>
      <point x="111" y="710"/>
      <point x="181" y="710" type="curve" smooth="yes"/>
      <point x="193" y="710"/>
      <point x="206" y="710"/>
    </contour>
  </outline>
</glyph>
<glyph name="g" format="1">
  <advance width="427"/>
  <unicode hex="0067"/>
  <outline>
    <contour>
      <point x="372" y="500" type="line"/>
      <point x="392" y="500" type="line"/>
      <point x="392" y="-64" type="line" smooth="yes"/>
      <point x="392" y="-145"/>
      <point x="360" y="-187"/>
      <point x="284" y="-211" type="curve"/>
      <point x="278" y="-194" type="line"/>
      <point x="310" y="-180"/>
      <point x="372" y="-164"/>
      <point x="372" y="-63" type="curve" smooth="yes"/>
      <point x="372" y="80" type="line"/>
      <point x="350" y="23"/>
      <point x="257" y="-12"/>
      <point x="197" y="-12" type="curve" smooth="yes"/>
      <point x="86" y="-12"/>
      <point x="22" y="54"/>
      <point x="22" y="176" type="curve" smooth="yes"/>
      <point x="22" y="345" type="line" smooth="yes"/>
      <point x="22" y="452"/>
      <point x="89" y="510"/>
      <point x="198" y="510" type="curve" smooth="yes"/>
      <point x="245" y="510"/>
      <point x="322" y="491"/>
      <point x="372" y="453" type="curve"/>
    </contour>
    <contour>
      <point x="372" y="148" type="curve" smooth="yes"/>
      <point x="372" y="427" type="line"/>
      <point x="330" y="472"/>
      <point x="239" y="493"/>
      <point x="182" y="490" type="curve" smooth="yes"/>
      <point x="111" y="487"/>
      <point x="42" y="453"/>
      <point x="42" y="347" type="curve" smooth="yes"/>
      <point x="42" y="169" type="line" smooth="yes"/>
      <point x="42" y="67"/>
      <point x="97" y="13"/>
      <point x="182" y="8" type="curve" smooth="yes"/>
      <point x="268" y="3"/>
      <point x="372" y="51"/>
    </contour>
  </outline>
</glyph>
<glyph name="h" format="1">
  <advance width="428"/>
  <unicode hex="0068"/>
  <outline>
    <contour>
      <point x="34" y="698" type="line"/>
      <point x="54" y="698" type="line"/>
      <point x="54" y="471" type="line"/>
      <point x="86" y="486"/>
      <point x="147" y="505"/>
      <point x="199" y="508" type="curve" smooth="yes"/>
      <point x="286" y="513"/>
      <point x="403" y="502"/>
      <point x="403" y="345" type="curve" smooth="yes"/>
      <point x="403" y="0" type="line"/>
      <point x="384" y="0" type="line"/>
      <point x="384" y="346" type="line" smooth="yes"/>
      <point x="384" y="459"/>
      <point x="320" y="499"/>
      <point x="212" y="493" type="curve" smooth="yes"/>
      <point x="155" y="490"/>
      <point x="90" y="472"/>
      <point x="54" y="453" type="curve"/>
      <point x="54" y="0" type="line"/>
      <point x="34" y="0" type="line"/>
    </contour>
  </outline>
</glyph>
<glyph name="i" format="1">
  <advance width="101"/>
  <unicode hex="0069"/>
  <outline>
    <contour>
      <point x="59" y="499" type="line"/>
      <point x="59" y="0" type="line"/>
      <point x="40" y="0" type="line"/>
      <point x="40" y="499" type="line"/>
    </contour>
    <contour>
      <point x="50" y="708" type="curve" smooth="yes"/>
      <point x="59" y="708"/>
      <point x="67" y="702"/>
      <point x="67" y="691" type="curve" smooth="yes"/>
      <point x="67" y="682"/>
      <point x="59" y="674"/>
      <point x="50" y="674" type="curve" smooth="yes"/>
      <point x="41" y="674"/>
      <point x="33" y="682"/>
      <point x="33" y="691" type="curve" smooth="yes"/>
      <point x="33" y="702"/>
      <point x="41" y="708"/>
    </contour>
  </outline>
</glyph>
<glyph name="j" format="1">
  <advance width="165"/>
  <unicode hex="006A"/>
  <outline>
    <contour>
      <point x="20" y="499" type="line"/>
      <point x="122" y="499" type="line"/>
      <point x="122" y="-68" type="line" smooth="yes"/>
      <point x="122" y="-116"/>
      <point x="111" y="-150"/>
      <point x="87" y="-175" type="curve"/>
      <point x="70" y="-191"/>
      <point x="47" y="-204"/>
      <point x="16" y="-213" type="curve"/>
      <point x="10" y="-196" type="line"/>
      <point x="41" y="-184"/>
      <point x="50" y="-178"/>
      <point x="73" y="-161" type="curve"/>
      <point x="94" y="-142"/>
      <point x="105" y="-112"/>
      <point x="105" y="-67" type="curve" smooth="yes"/>
      <point x="105" y="481" type="line"/>
      <point x="20" y="481" type="line"/>
    </contour>
    <contour>
      <point x="130" y="691" type="curve" smooth="yes"/>
      <point x="130" y="682"/>
      <point x="125" y="674"/>
      <point x="114" y="674" type="curve" smooth="yes"/>
      <point x="105" y="674"/>
      <point x="97" y="682"/>
      <point x="97" y="691" type="curve" smooth="yes"/>
      <point x="97" y="702"/>
      <point x="105" y="707"/>
      <point x="114" y="707" type="curve" smooth="yes"/>
      <point x="125" y="707"/>
      <point x="130" y="702"/>
    </contour>
  </outline>
</glyph>
<glyph name="k" format="1">
  <advance width="407"/>
  <unicode hex="006B"/>
  <outline>
    <contour>
      <point x="290" y="518" type="line"/>
      <point x="303" y="506" type="line"/>
      <point x="166" y="378" type="line"/>
      <point x="400" y="0" type="line"/>
      <point x="377" y="0" type="line"/>
      <point x="152" y="365" type="line"/>
      <point x="54" y="276" type="line"/>
      <point x="54" y="0" type="line"/>
      <point x="34" y="0" type="line"/>
      <point x="34" y="698" type="line"/>
      <point x="54" y="698" type="line"/>
      <point x="54" y="300" type="line"/>
    </contour>
  </outline>
</glyph>
<glyph name="m" format="1">
  <advance width="705"/>
  <unicode hex="006D"/>
  <outline>
    <contour>
      <point x="674" y="0" type="line"/>
      <point x="657" y="0" type="line"/>
      <point x="657" y="345" type="line" smooth="yes"/>
      <point x="657" y="459"/>
      <point x="605" y="503"/>
      <point x="497" y="494" type="curve" smooth="yes"/>
      <point x="440" y="489"/>
      <point x="385" y="465"/>
      <point x="345" y="442" type="curve"/>
      <point x="356" y="418"/>
      <point x="364" y="387"/>
      <point x="364" y="344" type="curve" smooth="yes"/>
      <point x="364" y="0" type="line"/>
      <point x="344" y="0" type="line"/>
      <point x="344" y="345" type="line" smooth="yes"/>
      <point x="344" y="459"/>
      <point x="292" y="502"/>
      <point x="185" y="494" type="curve" smooth="yes"/>
      <point x="125" y="488"/>
      <point x="88" y="471"/>
      <point x="50" y="453" type="curve"/>
      <point x="50" y="0" type="line"/>
      <point x="31" y="0" type="line"/>
      <point x="31" y="500" type="line"/>
      <point x="50" y="500" type="line"/>
      <point x="50" y="472" type="line"/>
      <point x="81" y="488"/>
      <point x="129" y="505"/>
      <point x="180" y="509" type="curve" smooth="yes"/>
      <point x="237" y="514"/>
      <point x="302" y="509"/>
      <point x="336" y="456" type="curve"/>
      <point x="376" y="483"/>
      <point x="444" y="505"/>
      <point x="493" y="509" type="curve" smooth="yes"/>
      <point x="578" y="516"/>
      <point x="674" y="500"/>
      <point x="674" y="344" type="curve" smooth="yes"/>
    </contour>
  </outline>
</glyph>
<glyph name="n" format="1">
  <advance width="429"/>
  <unicode hex="006E"/>
  <outline>
    <contour>
      <point x="399" y="0" type="line"/>
      <point x="381" y="0" type="line"/>
      <point x="381" y="345" type="line" smooth="yes"/>
      <point x="381" y="459"/>
      <point x="317" y="499"/>
      <point x="209" y="493" type="curve" smooth="yes"/>
      <point x="152" y="490"/>
      <point x="87" y="471"/>
      <point x="50" y="452" type="curve"/>
      <point x="50" y="0" type="line"/>
      <point x="31" y="0" type="line"/>
      <point x="31" y="499" type="line"/>
      <point x="50" y="499" type="line"/>
      <point x="50" y="471" type="line"/>
      <point x="93" y="491"/>
      <point x="149" y="506"/>
      <point x="196" y="508" type="curve" smooth="yes"/>
      <point x="283" y="513"/>
      <point x="399" y="502"/>
      <point x="399" y="344" type="curve" smooth="yes"/>
    </contour>
  </outline>
</glyph>
<glyph name="o" format="1">
  <advance width="413"/>
  <unicode hex="006F"/>
  <outline>
    <contour>
      <point x="389" y="315" type="curve" smooth="yes"/>
      <point x="389" y="184" type="line" smooth="yes"/>
      <point x="389" y="68"/>
      <point x="328" y="-10"/>
      <point x="207" y="-10" type="curve" smooth="yes"/>
      <point x="79" y="-10"/>
      <point x="20" y="77"/>
      <point x="20" y="184" type="curve" smooth="yes"/>
      <point x="20" y="315" type="line" smooth="yes"/>
      <point x="20" y="442"/>
      <point x="88" y="510"/>
      <point x="207" y="510" type="curve" smooth="yes"/>
      <point x="326" y="510"/>
      <point x="389" y="436"/>
    </contour>
    <contour>
      <point x="370" y="184" type="curve" smooth="yes"/>
      <point x="370" y="319" type="line" smooth="yes"/>
      <point x="370" y="434"/>
      <point x="302" y="492"/>
      <point x="207" y="492" type="curve" smooth="yes"/>
      <point x="96" y="492"/>
      <point x="40" y="428"/>
      <point x="40" y="319" type="curve" smooth="yes"/>
      <point x="40" y="184" type="line" smooth="yes"/>
      <point x="40" y="86"/>
      <point x="96" y="8"/>
      <point x="207" y="8" type="curve" smooth="yes"/>
      <point x="321" y="8"/>
      <point x="370" y="84"/>
    </contour>
  </outline>
</glyph>
<glyph name="p" format="1">
  <advance width="428"/>
  <unicode hex="0070"/>
  <outline>
    <contour>
      <point x="402" y="345" type="curve" smooth="yes"/>
      <point x="402" y="176" type="line" smooth="yes"/>
      <point x="402" y="54"/>
      <point x="339" y="-12"/>
      <point x="228" y="-12" type="curve" smooth="yes"/>
      <point x="159" y="-12"/>
      <point x="76" y="23"/>
      <point x="52" y="80" type="curve"/>
      <point x="52" y="-213" type="line"/>
      <point x="32" y="-207" type="line"/>
      <point x="32" y="500" type="line"/>
      <point x="52" y="500" type="line"/>
      <point x="52" y="447" type="line"/>
      <point x="106" y="481"/>
      <point x="167" y="508"/>
      <point x="228" y="510" type="curve" smooth="yes"/>
      <point x="336" y="513"/>
      <point x="402" y="452"/>
    </contour>
    <contour>
      <point x="385" y="169" type="curve" smooth="yes"/>
      <point x="385" y="345" type="line" smooth="yes"/>
      <point x="385" y="450"/>
      <point x="318" y="491"/>
      <point x="240" y="494" type="curve" smooth="yes"/>
      <point x="181" y="496"/>
      <point x="101" y="464"/>
      <point x="52" y="427" type="curve"/>
      <point x="52" y="148" type="line" smooth="yes"/>
      <point x="52" y="51"/>
      <point x="153" y="-1"/>
      <point x="242" y="4" type="curve" smooth="yes"/>
      <point x="329" y="9"/>
      <point x="385" y="67"/>
    </contour>
  </outline>
</glyph>
<glyph name="q" format="1">
  <advance width="427"/>
  <unicode hex="0071"/>
  <outline>
    <contour>
      <point x="392" y="-212" type="line"/>
      <point x="373" y="-208" type="line"/>
      <point x="373" y="81" type="line"/>
      <point x="337" y="15"/>
      <point x="259" y="-11"/>
      <point x="198" y="-11" type="curve" smooth="yes"/>
      <point x="87" y="-11"/>
      <point x="23" y="55"/>
      <point x="23" y="177" type="curve" smooth="yes"/>
      <point x="23" y="346" type="line" smooth="yes"/>
      <point x="23" y="458"/>
      <point x="89" y="516"/>
      <point x="199" y="511" type="curve" smooth="yes"/>
      <point x="246" y="509"/>
      <point x="312" y="493"/>
      <point x="373" y="452" type="curve"/>
      <point x="373" y="500" type="line"/>
      <point x="392" y="500" type="line"/>
    </contour>
    <contour>
      <point x="373" y="149" type="curve" smooth="yes"/>
      <point x="373" y="428" type="line"/>
      <point x="342" y="460"/>
      <point x="252" y="496"/>
      <point x="183" y="494" type="curve" smooth="yes"/>
      <point x="112" y="492"/>
      <point x="43" y="460"/>
      <point x="43" y="349" type="curve" smooth="yes"/>
      <point x="43" y="170" type="line" smooth="yes"/>
      <point x="43" y="65"/>
      <point x="104" y="6"/>
      <point x="196" y="6" type="curve" smooth="yes"/>
      <point x="276" y="6"/>
      <point x="373" y="50"/>
    </contour>
  </outline>
</glyph>
<glyph name="r" format="1">
  <advance width="311"/>
  <unicode hex="0072"/>
  <outline>
    <contour>
      <point x="303" y="508" type="curve"/>
      <point x="302" y="492" type="line"/>
      <point x="288" y="494"/>
      <point x="271" y="496"/>
      <point x="256" y="496" type="curve" smooth="yes"/>
      <point x="206" y="496"/>
      <point x="149" y="478"/>
      <point x="50" y="433" type="curve"/>
      <point x="50" y="0" type="line"/>
      <point x="31" y="0" type="line"/>
      <point x="31" y="501" type="line"/>
      <point x="50" y="501" type="line"/>
      <point x="50" y="455" type="line"/>
      <point x="133" y="489"/>
      <point x="200" y="515"/>
      <point x="258" y="515" type="curve" smooth="yes"/>
      <point x="274" y="515"/>
      <point x="290" y="512"/>
    </contour>
  </outline>
</glyph>
<glyph name="s" format="1">
  <advance width="382"/>
  <unicode hex="0073"/>
  <outline>
    <contour>
      <point x="324" y="476" type="curve"/>
      <point x="314" y="461" type="line"/>
      <point x="286" y="478"/>
      <point x="242" y="494"/>
      <point x="197" y="494" type="curve" smooth="yes"/>
      <point x="133" y="494"/>
      <point x="57" y="467"/>
      <point x="57" y="394" type="curve" smooth="yes"/>
      <point x="57" y="245"/>
      <point x="367" y="291"/>
      <point x="367" y="119" type="curve" smooth="yes"/>
      <point x="367" y="25"/>
      <point x="274" y="-15"/>
      <point x="192" y="-15" type="curve" smooth="yes"/>
      <point x="118" y="-15"/>
      <point x="60" y="9"/>
      <point x="14" y="68" type="curve"/>
      <point x="27" y="81" type="line"/>
      <point x="69" y="25"/>
      <point x="123" y="2"/>
      <point x="191" y="2" type="curve" smooth="yes"/>
      <point x="267" y="2"/>
      <point x="349" y="32"/>
      <point x="349" y="115" type="curve" smooth="yes"/>
      <point x="349" y="277"/>
      <point x="39" y="228"/>
      <point x="39" y="392" type="curve" smooth="yes"/>
      <point x="39" y="476"/>
      <point x="124" y="512"/>
      <point x="198" y="512" type="curve" smooth="yes"/>
      <point x="272" y="512"/>
      <point x="323" y="477"/>
    </contour>
  </outline>
</glyph>
<glyph name="t" format="1">
  <advance width="218"/>
  <unicode hex="0074"/>
  <outline>
    <contour>
      <point x="199" y="481" type="line"/>
      <point x="52" y="481" type="line"/>
      <point x="52" y="132" type="line" smooth="yes"/>
      <point x="52" y="59"/>
      <point x="77" y="27"/>
      <point x="144" y="4" type="curve"/>
      <point x="137" y="-13" type="line"/>
      <point x="64" y="8"/>
      <point x="32" y="53"/>
      <point x="32" y="132" type="curve" smooth="yes"/>
      <point x="32" y="698" type="line"/>
      <point x="52" y="698" type="line"/>
      <point x="52" y="499" type="line"/>
      <point x="208" y="499" type="line"/>
    </contour>
  </outline>
</glyph>
<glyph name="u" format="1">
  <advance width="434"/>
  <unicode hex="0075"/>
  <outline>
    <contour>
      <point x="399" y="0" type="line"/>
      <point x="378" y="0" type="line"/>
      <point x="378" y="97" type="line"/>
      <point x="354" y="32"/>
      <point x="290" y="-5"/>
      <point x="223" y="-9" type="curve" smooth="yes"/>
      <point x="150" y="-13"/>
      <point x="29" y="-1"/>
      <point x="29" y="156" type="curve" smooth="yes"/>
      <point x="29" y="499" type="line"/>
      <point x="49" y="499" type="line"/>
      <point x="49" y="155" type="line" smooth="yes"/>
      <point x="49" y="43"/>
      <point x="115" y="2"/>
      <point x="223" y="9" type="curve" smooth="yes"/>
      <point x="320" y="16"/>
      <point x="378" y="87"/>
      <point x="378" y="168" type="curve" smooth="yes"/>
      <point x="378" y="499" type="line"/>
      <point x="399" y="499" type="line"/>
    </contour>
  </outline>
</glyph>
<glyph name="w" format="1">
  <advance width="649"/>
  <unicode hex="0077"/>
  <outline>
    <contour>
      <point x="183" y="36" type="line"/>
      <point x="317" y="498" type="line"/>
      <point x="328" y="498" type="line"/>
      <point x="463" y="36" type="line"/>
      <point x="617" y="498" type="line"/>
      <point x="637" y="498" type="line"/>
      <point x="470" y="0" type="line"/>
      <point x="457" y="0" type="line"/>
      <point x="322" y="453" type="line"/>
      <point x="190" y="0" type="line"/>
      <point x="178" y="0" type="line"/>
      <point x="10" y="498" type="line"/>
      <point x="30" y="498" type="line"/>
    </contour>
  </outline>
</glyph>
<glyph name="x" format="1">
  <advance width="369"/>
  <unicode hex="0078"/>
  <outline>
    <contour>
      <point x="24" y="498" type="line"/>
      <point x="47" y="498" type="line"/>
      <point x="186" y="264" type="line"/>
      <point x="328" y="498" type="line"/>
      <point x="350" y="498" type="line"/>
      <point x="197" y="249" type="line"/>
      <point x="347" y="0" type="line"/>
      <point x="326" y="0" type="line"/>
      <point x="186" y="233" type="line"/>
      <point x="39" y="0" type="line"/>
      <point x="17" y="0" type="line"/>
      <point x="175" y="250" type="line"/>
    </contour>
  </outline>
</glyph>
<glyph name="y" format="1">
  <advance width="448"/>
  <unicode hex="0079"/>
  <outline>
    <contour>
      <point x="409" y="510" type="curve"/>
      <point x="422" y="499" type="line"/>
      <point x="401" y="482"/>
      <point x="396" y="461"/>
      <point x="396" y="417" type="curve" smooth="yes"/>
      <point x="396" y="-67" type="line" smooth="yes"/>
      <point x="396" y="-151"/>
      <point x="367" y="-186"/>
      <point x="291" y="-212" type="curve"/>
      <point x="285" y="-195" type="line"/>
      <point x="351" y="-169"/>
      <point x="379" y="-142"/>
      <point x="379" y="-66" type="curve" smooth="yes"/>
      <point x="379" y="99" type="line"/>
      <point x="355" y="33"/>
      <point x="290" y="-4"/>
      <point x="222" y="-8" type="curve" smooth="yes"/>
      <point x="148" y="-12"/>
      <point x="27" y="0"/>
      <point x="27" y="157" type="curve" smooth="yes"/>
      <point x="27" y="499" type="line"/>
      <point x="47" y="499" type="line"/>
      <point x="47" y="156" type="line" smooth="yes"/>
      <point x="47" y="44"/>
      <point x="114" y="3"/>
      <point x="221" y="10" type="curve" smooth="yes"/>
      <point x="317" y="17"/>
      <point x="379" y="88"/>
      <point x="379" y="169" type="curve" smooth="yes"/>
      <point x="379" y="418" type="line" smooth="yes"/>
      <point x="379" y="465"/>
      <point x="385" y="486"/>
    </contour>
  </outline>
</glyph>
<glyph name="z" format="1">
  <advance width="398"/>
  <unicode hex="007A"/>
  <outline>
    <contour>
      <point x="25" y="481" type="line"/>
      <point x="25" y="499" type="line"/>
      <point x="362" y="499" type="line"/>
      <point x="362" y="481" type="line"/>
      <point x="39" y="19" type="line"/>
      <point x="382" y="19" type="line"/>
      <point x="382" y="0" type="line"/>
      <point x="16" y="0" type="line"/>
      <point x="16" y="19" type="line"/>
      <point x="338" y="481" type="line"/>
    </contour>
  </outline>
</glyph>
<glyph name="braceleft" format="1">
  <advance width="225"/>
  <unicode hex="007B"/>
  <outline>
    <contour>
      <point x="116" y="628" type="curve" smooth="yes"/>
      <point x="116" y="515" type="line" smooth="yes"/>
      <point x="116" y="487"/>
      <point x="113" y="459"/>
      <point x="106" y="432" type="curve" smooth="yes"/>
      <point x="99" y="405"/>
      <point x="79" y="378"/>
      <point x="48" y="352" type="curve"/>
      <point x="79" y="326"/>
      <point x="99" y="299"/>
      <point x="106" y="272" type="curve" smooth="yes"/>
      <point x="113" y="245"/>
      <point x="116" y="217"/>
      <point x="116" y="189" type="curve" smooth="yes"/>
      <point x="116" y="76" type="line" smooth="yes"/>
      <point x="116" y="-68"/>
      <point x="209" y="-98"/>
      <point x="212" y="-98" type="curve"/>
      <point x="208" y="-117" type="line"/>
      <point x="205" y="-117"/>
      <point x="98" y="-84"/>
      <point x="98" y="76" type="curve" smooth="yes"/>
      <point x="98" y="189" type="line" smooth="yes"/>
      <point x="98" y="217"/>
      <point x="94" y="244"/>
      <point x="87" y="269" type="curve" smooth="yes"/>
      <point x="80" y="294"/>
      <point x="60" y="319"/>
      <point x="29" y="344" type="curve" smooth="yes"/>
      <point x="18" y="352" type="line"/>
      <point x="29" y="360" type="line" smooth="yes"/>
      <point x="60" y="384"/>
      <point x="80" y="409"/>
      <point x="87" y="435" type="curve" smooth="yes"/>
      <point x="94" y="460"/>
      <point x="98" y="487"/>
      <point x="98" y="515" type="curve" smooth="yes"/>
      <point x="98" y="628" type="line" smooth="yes"/>
      <point x="98" y="789"/>
      <point x="205" y="817"/>
      <point x="208" y="820" type="curve"/>
      <point x="211" y="801" type="line"/>
      <point x="209" y="801"/>
      <point x="116" y="772"/>
    </contour>
  </outline>
</glyph>
<glyph name="bar" format="1">
  <advance width="90"/>
  <unicode hex="007C"/>
  <outline>
    <contour>
      <point x="53" y="815" type="line"/>
      <point x="53" y="-113" type="line"/>
      <point x="35" y="-113" type="line"/>
      <point x="35" y="815" type="line"/>
    </contour>
  </outline>
</glyph>
<glyph name="braceright" format="1">
  <advance width="227"/>
  <unicode hex="007D"/>
  <outline>
    <contour>
      <point x="14" y="801" type="curve"/>
      <point x="19" y="820" type="line"/>
      <point x="23" y="818"/>
      <point x="128" y="789"/>
      <point x="128" y="628" type="curve" smooth="yes"/>
      <point x="128" y="515" type="line" smooth="yes"/>
      <point x="128" y="459"/>
      <point x="133" y="408"/>
      <point x="197" y="360" type="curve" smooth="yes"/>
      <point x="208" y="352" type="line"/>
      <point x="197" y="344" type="line" smooth="yes"/>
      <point x="133" y="296"/>
      <point x="128" y="244"/>
      <point x="128" y="189" type="curve" smooth="yes"/>
      <point x="128" y="76" type="line" smooth="yes"/>
      <point x="128" y="-84"/>
      <point x="22" y="-117"/>
      <point x="18" y="-117" type="curve"/>
      <point x="14" y="-98" type="line"/>
      <point x="18" y="-98"/>
      <point x="111" y="-68"/>
      <point x="111" y="76" type="curve" smooth="yes"/>
      <point x="111" y="189" type="line" smooth="yes"/>
      <point x="111" y="245"/>
      <point x="117" y="299"/>
      <point x="178" y="352" type="curve"/>
      <point x="117" y="405"/>
      <point x="111" y="459"/>
      <point x="111" y="515" type="curve" smooth="yes"/>
      <point x="111" y="628" type="line" smooth="yes"/>
      <point x="111" y="772"/>
      <point x="18" y="801"/>
    </contour>
  </outline>
</glyph>
<glyph name="asciitilde" format="1">
  <advance width="342"/>
  <unicode hex="007E"/>
  <outline>
    <contour>
      <point x="304" y="322" type="curve"/>
      <point x="314" y="307" type="line"/>
      <point x="290" y="286"/>
      <point x="267" y="278"/>
      <point x="244" y="278" type="curve" smooth="yes"/>
      <point x="192" y="278"/>
      <point x="143" y="317"/>
      <point x="99" y="317" type="curve" smooth="yes"/>
      <point x="79" y="317"/>
      <point x="58" y="310"/>
      <point x="35" y="287" type="curve"/>
      <point x="24" y="304" type="line"/>
      <point x="51" y="329"/>
      <point x="76" y="337"/>
      <point x="101" y="337" type="curve" smooth="yes"/>
      <point x="151" y="337"/>
      <point x="196" y="299"/>
      <point x="240" y="297" type="curve" smooth="yes"/>
      <point x="261" y="296"/>
      <point x="283" y="302"/>
    </contour>
  </outline>
</glyph>
<glyph name="exclamdown" format="1">
  <advance width="100"/>
  <unicode hex="00A1"/>
  <outline>
    <contour>
      <point x="42" y="588" type="line"/>
      <point x="57" y="588" type="line"/>
      <point x="65" y="18" type="line" smooth="yes"/>
      <point x="65" y="6"/>
      <point x="60" y="0"/>
      <point x="50" y="0" type="curve" smooth="yes"/>
      <point x="42" y="0"/>
      <point x="33" y="7"/>
      <point x="33" y="18" type="curve" smooth="yes"/>
    </contour>
    <contour>
      <point x="66" y="691" type="curve" smooth="yes"/>
      <point x="66" y="682"/>
      <point x="58" y="674"/>
      <point x="50" y="674" type="curve" smooth="yes"/>
      <point x="41" y="674"/>
      <point x="32" y="682"/>
      <point x="32" y="691" type="curve" smooth="yes"/>
      <point x="32" y="702"/>
      <point x="41" y="708"/>
      <point x="50" y="708" type="curve" smooth="yes"/>
      <point x="58" y="708"/>
      <point x="66" y="702"/>
    </contour>
  </outline>
</glyph>
<glyph name="cent" format="1">
  <advance width="88"/>
  <unicode hex="00A2"/>
  <outline>
    <contour>
      <point x="51" y="621" type="line"/>
      <point x="51" y="-113" type="line"/>
      <point x="34" y="-113" type="line"/>
      <point x="34" y="621" type="line"/>
    </contour>
    <component base="c"/>
  </outline>
</glyph>
<glyph name="sterling" format="1">
  <advance width="400"/>
  <unicode hex="00A3"/>
  <outline>
    <contour>
      <point x="21" y="0" type="line"/>
      <point x="21" y="19" type="line"/>
      <point x="124" y="19" type="line" smooth="yes"/>
      <point x="217" y="19"/>
      <point x="285" y="65"/>
      <point x="285" y="161" type="curve" smooth="yes"/>
      <point x="284" y="211"/>
      <point x="259" y="265"/>
      <point x="214" y="316" type="curve" smooth="yes"/>
      <point x="162" y="375" type="line"/>
      <point x="21" y="375" type="line"/>
      <point x="21" y="396" type="line"/>
      <point x="143" y="396" type="line"/>
      <point x="132" y="408" type="line" smooth="yes"/>
      <point x="85" y="462"/>
      <point x="50" y="515"/>
      <point x="51" y="571" type="curve" smooth="yes"/>
      <point x="55" y="647"/>
      <point x="108" y="697"/>
      <point x="184" y="705" type="curve" smooth="yes"/>
      <point x="235" y="710"/>
      <point x="295" y="695"/>
      <point x="346" y="667" type="curve"/>
      <point x="340" y="650" type="line"/>
      <point x="297" y="675"/>
      <point x="246" y="692"/>
      <point x="191" y="689" type="curve" smooth="yes"/>
      <point x="120" y="684"/>
      <point x="71" y="634"/>
      <point x="70" y="570" type="curve"/>
      <point x="70" y="511"/>
      <point x="111" y="462"/>
      <point x="148" y="420" type="curve" smooth="yes"/>
      <point x="169" y="396" type="line"/>
      <point x="379" y="396" type="line"/>
      <point x="379" y="375" type="line"/>
      <point x="188" y="375" type="line"/>
      <point x="229" y="329" type="line" smooth="yes"/>
      <point x="277" y="276"/>
      <point x="305" y="219"/>
      <point x="306" y="163" type="curve" smooth="yes"/>
      <point x="309" y="96"/>
      <point x="274" y="45"/>
      <point x="212" y="19" type="curve"/>
      <point x="379" y="19" type="line"/>
      <point x="379" y="0" type="line"/>
    </contour>
  </outline>
</glyph>
<glyph name="currency" format="1">
  <advance width="430"/>
  <unicode hex="00A4"/>
  <outline>
    <contour>
      <point x="391" y="472" type="line"/>
      <point x="404" y="459" type="line"/>
      <point x="323" y="378" type="line"/>
      <point x="346" y="353"/>
      <point x="359" y="319"/>
      <point x="359" y="283" type="curve" smooth="yes"/>
      <point x="359" y="246"/>
      <point x="346" y="213"/>
      <point x="323" y="186" type="curve"/>
      <point x="404" y="106" type="line"/>
      <point x="391" y="92" type="line"/>
      <point x="309" y="173" type="line"/>
      <point x="284" y="152"/>
      <point x="251" y="137"/>
      <point x="215" y="137" type="curve" smooth="yes"/>
      <point x="178" y="137"/>
      <point x="145" y="152"/>
      <point x="118" y="173" type="curve"/>
      <point x="38" y="92" type="line"/>
      <point x="25" y="106" type="line"/>
      <point x="105" y="186" type="line"/>
      <point x="84" y="213"/>
      <point x="70" y="246"/>
      <point x="70" y="283" type="curve" smooth="yes"/>
      <point x="70" y="319"/>
      <point x="84" y="353"/>
      <point x="105" y="378" type="curve"/>
      <point x="25" y="459" type="line"/>
      <point x="38" y="472" type="line"/>
      <point x="118" y="392" type="line"/>
      <point x="144" y="416"/>
      <point x="176" y="428"/>
      <point x="215" y="428" type="curve" smooth="yes"/>
      <point x="251" y="428"/>
      <point x="286" y="415"/>
      <point x="311" y="392" type="curve"/>
    </contour>
    <contour>
      <point x="215" y="157" type="curve" smooth="yes"/>
      <point x="282" y="157"/>
      <point x="339" y="213"/>
      <point x="339" y="283" type="curve" smooth="yes"/>
      <point x="339" y="350"/>
      <point x="282" y="407"/>
      <point x="215" y="407" type="curve" smooth="yes"/>
      <point x="146" y="407"/>
      <point x="89" y="350"/>
      <point x="89" y="283" type="curve" smooth="yes"/>
      <point x="89" y="213"/>
      <point x="146" y="157"/>
    </contour>
  </outline>
</glyph>
<glyph name="yen" format="1">
  <advance width="503"/>
  <unicode hex="00A5"/>
  <outline>
    <contour>
      <point x="242" y="131" type="line"/>
      <point x="242" y="217" type="line"/>
      <point x="92" y="217" type="line"/>
      <point x="92" y="235" type="line"/>
      <point x="242" y="235" type="line"/>
      <point x="242" y="341" type="line"/>
      <point x="16" y="698" type="line"/>
      <point x="39" y="698" type="line"/>
      <point x="251" y="361" type="line"/>
      <point x="464" y="698" type="line"/>
      <point x="487" y="698" type="line"/>
      <point x="259" y="341" type="line"/>
      <point x="259" y="235" type="line"/>
      <point x="411" y="235" type="line"/>
      <point x="411" y="217" type="line"/>
      <point x="259" y="217" type="line"/>
      <point x="259" y="131" type="line"/>
      <point x="411" y="131" type="line"/>
      <point x="411" y="111" type="line"/>
      <point x="259" y="111" type="line"/>
      <point x="259" y="0" type="line"/>
      <point x="242" y="0" type="line"/>
      <point x="242" y="111" type="line"/>
      <point x="92" y="111" type="line"/>
      <point x="92" y="131" type="line"/>
    </contour>
  </outline>
</glyph>
<glyph name="copyright" format="1">
  <advance width="680"/>
  <unicode hex="00A9"/>
  <outline>
    <contour>
      <point x="655" y="319" type="curve" smooth="yes"/>
      <point x="655" y="191" type="line" smooth="yes"/>
      <point x="655" y="20"/>
      <point x="523" y="-68"/>
      <point x="339" y="-68" type="curve" smooth="yes"/>
      <point x="156" y="-68"/>
      <point x="24" y="20"/>
      <point x="24" y="191" type="curve" smooth="yes"/>
      <point x="24" y="319" type="line" smooth="yes"/>
      <point x="24" y="490"/>
      <point x="156" y="579"/>
      <point x="339" y="579" type="curve" smooth="yes"/>
      <point x="523" y="579"/>
      <point x="655" y="490"/>
    </contour>
    <contour>
      <point x="638" y="194" type="curve" smooth="yes"/>
      <point x="638" y="316" type="line" smooth="yes"/>
      <point x="638" y="478"/>
      <point x="513" y="561"/>
      <point x="339" y="561" type="curve" smooth="yes"/>
      <point x="165" y="561"/>
      <point x="40" y="478"/>
      <point x="40" y="316" type="curve" smooth="yes"/>
      <point x="40" y="194" type="line" smooth="yes"/>
      <point x="40" y="32"/>
      <point x="165" y="-52"/>
      <point x="339" y="-52" type="curve" smooth="yes"/>
      <point x="513" y="-52"/>
      <point x="638" y="32"/>
    </contour>
    <contour>
      <point x="494" y="420" type="curve"/>
      <point x="486" y="404" type="line"/>
      <point x="440" y="426"/>
      <point x="396" y="435"/>
      <point x="356" y="435" type="curve" smooth="yes"/>
      <point x="295" y="435"/>
      <point x="250" y="414"/>
      <point x="225" y="388" type="curve" smooth="yes"/>
      <point x="201" y="363"/>
      <point x="180" y="317"/>
      <point x="180" y="254" type="curve" smooth="yes"/>
      <point x="180" y="174"/>
      <point x="208" y="125"/>
      <point x="250" y="99" type="curve" smooth="yes"/>
      <point x="282" y="80"/>
      <point x="325" y="75"/>
      <point x="364" y="75" type="curve" smooth="yes"/>
      <point x="401" y="75"/>
      <point x="456" y="86"/>
      <point x="513" y="109" type="curve"/>
      <point x="519" y="90" type="line"/>
      <point x="463" y="69"/>
      <point x="409" y="58"/>
      <point x="357" y="58" type="curve" smooth="yes"/>
      <point x="336" y="58"/>
      <point x="288" y="56"/>
      <point x="240" y="82" type="curve" smooth="yes"/>
      <point x="191" y="108"/>
      <point x="159" y="165"/>
      <point x="159" y="249" type="curve" smooth="yes"/>
      <point x="159" y="329"/>
      <point x="175" y="384"/>
      <point x="246" y="428" type="curve" smooth="yes"/>
      <point x="275" y="446"/>
      <point x="311" y="453"/>
      <point x="352" y="453" type="curve" smooth="yes"/>
      <point x="407" y="453"/>
      <point x="453" y="443"/>
    </contour>
  </outline>
</glyph>
<glyph name="ordfeminine" format="1">
  <advance width="306"/>
  <unicode hex="00AA"/>
  <outline>
    <contour>
      <point x="281" y="389" type="curve"/>
      <point x="234" y="384"/>
      <point x="202" y="381"/>
      <point x="181" y="378" type="curve"/>
      <point x="31" y="375"/>
      <point x="13" y="453"/>
      <point x="13" y="515" type="curve" smooth="yes"/>
      <point x="13" y="564"/>
      <point x="39" y="628"/>
      <point x="111" y="628" type="curve" smooth="yes"/>
      <point x="156" y="628"/>
      <point x="207" y="608"/>
      <point x="263" y="568" type="curve"/>
      <point x="263" y="609"/>
      <point x="253" y="639"/>
      <point x="233" y="658" type="curve" smooth="yes"/>
      <point x="209" y="681"/>
      <point x="170" y="690"/>
      <point x="114" y="691" type="curve"/>
      <point x="117" y="707" type="line"/>
      <point x="180" y="707"/>
      <point x="224" y="694"/>
      <point x="247" y="669" type="curve" smooth="yes"/>
      <point x="270" y="645"/>
      <point x="281" y="606"/>
      <point x="281" y="553" type="curve"/>
      <point x="281" y="554"/>
      <point x="281" y="390"/>
    </contour>
    <contour>
      <point x="262" y="404" type="curve"/>
      <point x="262" y="547" type="line"/>
      <point x="205" y="590"/>
      <point x="155" y="612"/>
      <point x="112" y="612" type="curve" smooth="yes"/>
      <point x="47" y="612"/>
      <point x="32" y="549"/>
      <point x="32" y="512" type="curve" smooth="yes"/>
      <point x="32" y="468"/>
      <point x="41" y="437"/>
      <point x="78" y="414" type="curve" smooth="yes"/>
      <point x="119" y="390"/>
      <point x="197" y="396"/>
    </contour>
  </outline>
</glyph>
<glyph name="registered" format="1">
  <advance width="681"/>
  <unicode hex="00AE"/>
  <outline>
    <contour>
      <point x="655" y="319" type="curve" smooth="yes"/>
      <point x="655" y="191" type="line" smooth="yes"/>
      <point x="655" y="20"/>
      <point x="523" y="-66"/>
      <point x="339" y="-68" type="curve" smooth="yes"/>
      <point x="156" y="-66"/>
      <point x="24" y="20"/>
      <point x="24" y="191" type="curve" smooth="yes"/>
      <point x="24" y="319" type="line" smooth="yes"/>
      <point x="24" y="490"/>
      <point x="156" y="577"/>
      <point x="339" y="579" type="curve" smooth="yes"/>
      <point x="523" y="577"/>
      <point x="655" y="490"/>
    </contour>
    <contour>
      <point x="638" y="194" type="curve" smooth="yes"/>
      <point x="638" y="316" type="line" smooth="yes"/>
      <point x="638" y="478"/>
      <point x="513" y="561"/>
      <point x="339" y="561" type="curve" smooth="yes"/>
      <point x="165" y="561"/>
      <point x="40" y="478"/>
      <point x="40" y="316" type="curve" smooth="yes"/>
      <point x="40" y="194" type="line" smooth="yes"/>
      <point x="40" y="32"/>
      <point x="165" y="-50"/>
      <point x="339" y="-52" type="curve" smooth="yes"/>
      <point x="513" y="-50"/>
      <point x="638" y="32"/>
    </contour>
    <contour>
      <point x="180" y="59" type="line"/>
      <point x="180" y="442" type="line"/>
      <point x="415" y="442" type="line" smooth="yes"/>
      <point x="478" y="442"/>
      <point x="520" y="418"/>
      <point x="520" y="328" type="curve" smooth="yes"/>
      <point x="520" y="247"/>
      <point x="489" y="219"/>
      <point x="434" y="215" type="curve"/>
      <point x="516" y="59" type="line"/>
      <point x="496" y="59" type="line"/>
      <point x="413" y="212" type="line"/>
      <point x="200" y="212" type="line"/>
      <point x="200" y="59" type="line"/>
    </contour>
    <contour>
      <point x="200" y="422" type="line"/>
      <point x="200" y="232" type="line"/>
      <point x="423" y="232" type="line" smooth="yes"/>
      <point x="483" y="232"/>
      <point x="502" y="262"/>
      <point x="502" y="327" type="curve" smooth="yes"/>
      <point x="501" y="394"/>
      <point x="480" y="422"/>
      <point x="423" y="422" type="curve" smooth="yes"/>
    </contour>
  </outline>
</glyph>
<glyph name="degree" format="1">
  <advance width="331"/>
  <unicode hex="00B0"/>
  <outline>
    <contour>
      <point x="310" y="563" type="curve" smooth="yes"/>
      <point x="310" y="483"/>
      <point x="245" y="418"/>
      <point x="165" y="418" type="curve" smooth="yes"/>
      <point x="84" y="418"/>
      <point x="19" y="483"/>
      <point x="19" y="563" type="curve" smooth="yes"/>
      <point x="19" y="643"/>
      <point x="84" y="708"/>
      <point x="165" y="708" type="curve" smooth="yes"/>
      <point x="245" y="708"/>
      <point x="310" y="643"/>
    </contour>
    <contour>
      <point x="165" y="689" type="curve" smooth="yes"/>
      <point x="95" y="689"/>
      <point x="39" y="633"/>
      <point x="39" y="563" type="curve" smooth="yes"/>
      <point x="39" y="495"/>
      <point x="95" y="438"/>
      <point x="165" y="438" type="curve" smooth="yes"/>
      <point x="234" y="438"/>
      <point x="290" y="495"/>
      <point x="290" y="563" type="curve" smooth="yes"/>
      <point x="290" y="633"/>
      <point x="234" y="689"/>
    </contour>
  </outline>
</glyph>
<glyph name="plusminus" format="1">
  <advance width="362"/>
  <unicode hex="00B1"/>
  <outline>
    <contour>
      <point x="171" y="246" type="line"/>
      <point x="171" y="396" type="line"/>
      <point x="21" y="396" type="line"/>
      <point x="21" y="414" type="line"/>
      <point x="171" y="414" type="line"/>
      <point x="171" y="563" type="line"/>
      <point x="190" y="563" type="line"/>
      <point x="190" y="414" type="line"/>
      <point x="340" y="414" type="line"/>
      <point x="340" y="396" type="line"/>
      <point x="190" y="396" type="line"/>
      <point x="190" y="246" type="line"/>
      <point x="339" y="246" type="line"/>
      <point x="339" y="226" type="line"/>
      <point x="20" y="226" type="line"/>
      <point x="20" y="246" type="line"/>
    </contour>
  </outline>
</glyph>
<glyph name="mu" format="1">
  <advance width="450"/>
  <unicode hex="00B5"/>
  <outline>
    <contour>
      <point x="383" y="507" type="line"/>
      <point x="402" y="510" type="line"/>
      <point x="402" y="70" type="line" smooth="yes"/>
      <point x="402" y="42"/>
      <point x="406" y="27"/>
      <point x="424" y="10" type="curve"/>
      <point x="413" y="-2" type="line"/>
      <point x="415" y="-2"/>
      <point x="382" y="18"/>
      <point x="383" y="62" type="curve"/>
      <point x="361" y="20"/>
      <point x="303" y="-14"/>
      <point x="232" y="-14" type="curve" smooth="yes"/>
      <point x="152" y="-14"/>
      <point x="86" y="12"/>
      <point x="50" y="80" type="curve"/>
      <point x="50" y="-211" type="line"/>
      <point x="32" y="-206" type="line"/>
      <point x="32" y="501" type="line"/>
      <point x="50" y="501" type="line"/>
      <point x="50" y="152" type="line" smooth="yes"/>
      <point x="50" y="88"/>
      <point x="103" y="2"/>
      <point x="229" y="2" type="curve" smooth="yes"/>
      <point x="312" y="2"/>
      <point x="383" y="48"/>
      <point x="383" y="132" type="curve" smooth="yes"/>
    </contour>
  </outline>
</glyph>
<glyph name="paragraph" format="1">
  <advance width="586"/>
  <unicode hex="00B6"/>
  <outline>
    <contour>
      <point x="432" y="1" type="line"/>
      <point x="432" y="282" type="line"/>
      <point x="209" y="282" type="line" smooth="yes"/>
      <point x="76" y="282"/>
      <point x="19" y="356"/>
      <point x="19" y="493" type="curve" smooth="yes"/>
      <point x="19" y="624"/>
      <point x="77" y="700"/>
      <point x="202" y="700" type="curve" smooth="yes"/>
      <point x="550" y="700" type="line"/>
      <point x="550" y="1" type="line"/>
      <point x="530" y="1" type="line"/>
      <point x="530" y="680" type="line"/>
      <point x="451" y="680" type="line"/>
      <point x="451" y="1" type="line"/>
    </contour>
    <contour>
      <point x="432" y="300" type="line"/>
      <point x="432" y="680" type="line"/>
      <point x="201" y="680" type="line" smooth="yes"/>
      <point x="86" y="680"/>
      <point x="37" y="612"/>
      <point x="37" y="493" type="curve" smooth="yes"/>
      <point x="37" y="370"/>
      <point x="89" y="300"/>
      <point x="211" y="300" type="curve" smooth="yes"/>
    </contour>
  </outline>
</glyph>
<glyph name="guillemotright" format="1">
  <advance width="462"/>
  <unicode hex="00BB"/>
  <outline>
    <contour>
      <point x="37" y="79" type="line"/>
      <point x="23" y="96" type="line"/>
      <point x="195" y="266" type="line"/>
      <point x="22" y="440" type="line"/>
      <point x="37" y="453" type="line"/>
      <point x="224" y="266" type="line"/>
    </contour>
    <contour>
      <point x="257" y="79" type="line"/>
      <point x="242" y="96" type="line"/>
      <point x="414" y="266" type="line"/>
      <point x="241" y="440" type="line"/>
      <point x="257" y="453" type="line"/>
      <point x="443" y="266" type="line"/>
    </contour>
  </outline>
</glyph>
<glyph name="questiondown" format="1">
  <advance width="390"/>
  <unicode hex="00BF"/>
  <outline>
    <contour>
      <point x="351" y="162" type="curve"/>
      <point x="371" y="162" type="line"/>
      <point x="371" y="40"/>
      <point x="284" y="-16"/>
      <point x="196" y="-15" type="curve" smooth="yes"/>
      <point x="107" y="-14"/>
      <point x="18" y="46"/>
      <point x="18" y="156" type="curve" smooth="yes"/>
      <point x="18" y="229"/>
      <point x="48" y="274"/>
      <point x="91" y="319" type="curve" smooth="yes"/>
      <point x="172" y="405"/>
      <point x="196" y="419"/>
      <point x="196" y="499" type="curve" smooth="yes"/>
      <point x="196" y="573" type="line"/>
      <point x="215" y="573" type="line"/>
      <point x="215" y="503" type="line" smooth="yes"/>
      <point x="215" y="401"/>
      <point x="171" y="383"/>
      <point x="98" y="303" type="curve" smooth="yes"/>
      <point x="51" y="252"/>
      <point x="36" y="210"/>
      <point x="36" y="156" type="curve" smooth="yes"/>
      <point x="36" y="75"/>
      <point x="99" y="3"/>
      <point x="194" y="3" type="curve" smooth="yes"/>
      <point x="272" y="3"/>
      <point x="351" y="53"/>
    </contour>
    <contour>
      <point x="205" y="695" type="curve" smooth="yes"/>
      <point x="216" y="695"/>
      <point x="222" y="690"/>
      <point x="222" y="679" type="curve" smooth="yes"/>
      <point x="222" y="670"/>
      <point x="216" y="662"/>
      <point x="205" y="662" type="curve" smooth="yes"/>
      <point x="196" y="662"/>
      <point x="188" y="670"/>
      <point x="188" y="679" type="curve" smooth="yes"/>
      <point x="188" y="690"/>
      <point x="196" y="695"/>
    </contour>
  </outline>
</glyph>
<glyph name="AE" format="1">
  <advance width="714"/>
  <unicode hex="00C6"/>
  <outline>
    <contour>
      <point x="700" y="20" type="line"/>
      <point x="700" y="0" type="line"/>
      <point x="368" y="0" type="line"/>
      <point x="368" y="279" type="line"/>
      <point x="135" y="279" type="line"/>
      <point x="27" y="0" type="line"/>
      <point x="5" y="0" type="line"/>
      <point x="276" y="698" type="line"/>
      <point x="700" y="698" type="line"/>
      <point x="700" y="678" type="line"/>
      <point x="388" y="678" type="line"/>
      <point x="388" y="413" type="line"/>
      <point x="616" y="413" type="line"/>
      <point x="608" y="393" type="line"/>
      <point x="388" y="393" type="line"/>
      <point x="388" y="20" type="line"/>
    </contour>
    <contour>
      <point x="368" y="678" type="line"/>
      <point x="288" y="678" type="line"/>
      <point x="142" y="299" type="line"/>
      <point x="368" y="299" type="line"/>
    </contour>
  </outline>
</glyph>
<glyph name="Eth" format="1">
  <advance width="284"/>
  <unicode hex="00D0"/>
  <outline>
    <contour>
      <point x="258" y="411" type="line"/>
      <point x="252" y="393" type="line"/>
      <point x="21" y="393" type="line"/>
      <point x="21" y="411" type="line"/>
    </contour>
    <component base="D"/>
  </outline>
</glyph>
<glyph name="multiply" format="1">
  <advance width="308"/>
  <unicode hex="00D7"/>
  <outline>
    <contour>
      <point x="24" y="472" type="line"/>
      <point x="37" y="484" type="line"/>
      <point x="154" y="343" type="line"/>
      <point x="269" y="483" type="line"/>
      <point x="283" y="470" type="line"/>
      <point x="167" y="330" type="line"/>
      <point x="281" y="193" type="line"/>
      <point x="264" y="179" type="line"/>
      <point x="153" y="315" type="line"/>
      <point x="40" y="179" type="line"/>
      <point x="26" y="190" type="line"/>
      <point x="141" y="329" type="line"/>
    </contour>
  </outline>
</glyph>
<glyph name="Oslash" format="1">
  <advance width="331"/>
  <unicode hex="00D8"/>
  <outline>
    <contour>
      <point x="339" y="815" type="line"/>
      <point x="16" y="-113" type="line"/>
      <point x="-4" y="-113" type="line"/>
      <point x="318" y="815" type="line"/>
    </contour>
    <component base="O"/>
  </outline>
</glyph>
<glyph name="Thorn" format="1">
  <advance width="380"/>
  <unicode hex="00DE"/>
  <outline>
    <contour>
      <point x="362" y="436" type="curve" smooth="yes"/>
      <point x="362" y="290" type="line" smooth="yes"/>
      <point x="362" y="192"/>
      <point x="318" y="141"/>
      <point x="251" y="119" type="curve" smooth="yes"/>
      <point x="195" y="101"/>
      <point x="118" y="102"/>
      <point x="53" y="120" type="curve"/>
      <point x="53" y="0" type="line"/>
      <point x="34" y="0" type="line"/>
      <point x="34" y="700" type="line"/>
      <point x="53" y="700" type="line"/>
      <point x="53" y="599" type="line"/>
      <point x="108" y="623"/>
      <point x="171" y="633"/>
      <point x="225" y="622" type="curve" smooth="yes"/>
      <point x="315" y="603"/>
      <point x="362" y="524"/>
    </contour>
    <contour>
      <point x="218" y="604" type="curve" smooth="yes"/>
      <point x="169" y="613"/>
      <point x="109" y="605"/>
      <point x="53" y="576" type="curve"/>
      <point x="53" y="138" type="line"/>
      <point x="79" y="132"/>
      <point x="171" y="113"/>
      <point x="248" y="138" type="curve" smooth="yes"/>
      <point x="320" y="162"/>
      <point x="343" y="216"/>
      <point x="343" y="292" type="curve" smooth="yes"/>
      <point x="343" y="430" type="line" smooth="yes"/>
      <point x="343" y="515"/>
      <point x="305" y="584"/>
    </contour>
  </outline>
</glyph>
<glyph name="germandbls" format="1">
  <advance width="441"/>
  <unicode hex="00DF"/>
  <outline>
    <contour>
      <point x="52" y="541" type="curve" smooth="yes"/>
      <point x="52" y="0" type="line"/>
      <point x="32" y="0" type="line"/>
      <point x="32" y="541" type="line" smooth="yes"/>
      <point x="32" y="665"/>
      <point x="98" y="700"/>
      <point x="159" y="700" type="curve" smooth="yes"/>
      <point x="232" y="700"/>
      <point x="278" y="639"/>
      <point x="278" y="585" type="curve" smooth="yes"/>
      <point x="278" y="542"/>
      <point x="256" y="500"/>
      <point x="208" y="494" type="curve"/>
      <point x="203" y="494"/>
      <point x="200" y="494"/>
      <point x="197" y="494" type="curve"/>
      <point x="187" y="476"/>
      <point x="184" y="459"/>
      <point x="186" y="444" type="curve"/>
      <point x="190" y="377"/>
      <point x="277" y="338"/>
      <point x="358" y="275" type="curve" smooth="yes"/>
      <point x="406" y="238"/>
      <point x="431" y="196"/>
      <point x="431" y="136" type="curve" smooth="yes"/>
      <point x="431" y="59"/>
      <point x="376" y="-11"/>
      <point x="276" y="-11" type="curve" smooth="yes"/>
      <point x="182" y="-11"/>
      <point x="134" y="31"/>
      <point x="127" y="36" type="curve"/>
      <point x="137" y="50" type="line"/>
      <point x="143" y="46"/>
      <point x="192" y="8"/>
      <point x="269" y="8" type="curve" smooth="yes"/>
      <point x="386" y="8"/>
      <point x="411" y="87"/>
      <point x="411" y="138" type="curve" smooth="yes"/>
      <point x="411" y="221"/>
      <point x="356" y="255"/>
      <point x="298" y="295" type="curve" smooth="yes"/>
      <point x="234" y="340"/>
      <point x="168" y="381"/>
      <point x="168" y="447" type="curve" smooth="yes"/>
      <point x="168" y="465"/>
      <point x="172" y="485"/>
      <point x="183" y="507" type="curve"/>
      <point x="237" y="507"/>
      <point x="261" y="544"/>
      <point x="260" y="584" type="curve" smooth="yes"/>
      <point x="258" y="630"/>
      <point x="223" y="681"/>
      <point x="160" y="681" type="curve" smooth="yes"/>
      <point x="88" y="681"/>
      <point x="52" y="635"/>
    </contour>
  </outline>
</glyph>
<glyph name="eth" format="1">
  <advance width="410"/>
  <unicode hex="00F0"/>
  <outline>
    <contour>
      <point x="169" y="686" type="curve"/>
      <point x="172" y="699" type="line"/>
      <point x="238" y="690"/>
      <point x="289" y="665"/>
      <point x="326" y="623" type="curve" smooth="yes"/>
      <point x="362" y="580"/>
      <point x="380" y="529"/>
      <point x="380" y="469" type="curve" smooth="yes"/>
      <point x="380" y="187" type="line" smooth="yes"/>
      <point x="380" y="60"/>
      <point x="313" y="-9"/>
      <point x="194" y="-9" type="curve" smooth="yes"/>
      <point x="75" y="-9"/>
      <point x="11" y="66"/>
      <point x="11" y="187" type="curve" smooth="yes"/>
      <point x="11" y="245" type="line" smooth="yes"/>
      <point x="11" y="368"/>
      <point x="75" y="433"/>
      <point x="186" y="433" type="curve" smooth="yes"/>
      <point x="247" y="433"/>
      <point x="338" y="397"/>
      <point x="360" y="339" type="curve"/>
      <point x="360" y="469" type="line" smooth="yes"/>
      <point x="360" y="630"/>
      <point x="234" y="675"/>
    </contour>
    <contour>
      <point x="31" y="251" type="curve" smooth="yes"/>
      <point x="31" y="182" type="line" smooth="yes"/>
      <point x="31" y="69"/>
      <point x="98" y="11"/>
      <point x="194" y="11" type="curve" smooth="yes"/>
      <point x="303" y="11"/>
      <point x="360" y="75"/>
      <point x="360" y="182" type="curve" smooth="yes"/>
      <point x="360" y="273" type="line" smooth="yes"/>
      <point x="362" y="370"/>
      <point x="252" y="422"/>
      <point x="167" y="416" type="curve" smooth="yes"/>
      <point x="80" y="411"/>
      <point x="31" y="352"/>
    </contour>
    <contour>
      <point x="173" y="524" type="line"/>
      <point x="346" y="700" type="line"/>
      <point x="358" y="689" type="line"/>
      <point x="185" y="513" type="line"/>
    </contour>
  </outline>
</glyph>
<glyph name="divide" format="1">
  <advance width="358"/>
  <unicode hex="00F7"/>
  <outline>
    <contour>
      <point x="338" y="393" type="line"/>
      <point x="338" y="372" type="line"/>
      <point x="19" y="372" type="line"/>
      <point x="19" y="393" type="line"/>
    </contour>
    <contour>
      <point x="179" y="528" type="curve" smooth="yes"/>
      <point x="190" y="528"/>
      <point x="197" y="521"/>
      <point x="197" y="510" type="curve" smooth="yes"/>
      <point x="197" y="502"/>
      <point x="190" y="494"/>
      <point x="179" y="494" type="curve" smooth="yes"/>
      <point x="171" y="494"/>
      <point x="163" y="502"/>
      <point x="163" y="510" type="curve" smooth="yes"/>
      <point x="163" y="521"/>
      <point x="171" y="528"/>
    </contour>
    <contour>
      <point x="179" y="271" type="curve" smooth="yes"/>
      <point x="190" y="271"/>
      <point x="197" y="265"/>
      <point x="197" y="254" type="curve" smooth="yes"/>
      <point x="197" y="245"/>
      <point x="190" y="238"/>
      <point x="179" y="238" type="curve" smooth="yes"/>
      <point x="171" y="238"/>
      <point x="163" y="245"/>
      <point x="163" y="254" type="curve" smooth="yes"/>
      <point x="163" y="265"/>
      <point x="171" y="271"/>
    </contour>
  </outline>
</glyph>
<glyph name="oslash" format="1">
  <advance width="275"/>
  <unicode hex="00F8"/>
  <outline>
    <contour>
      <point x="5" y="-20" type="line"/>
      <point x="244" y="512" type="line"/>
      <point x="265" y="512" type="line"/>
      <point x="26" y="-20" type="line"/>
    </contour>
    <component base="o"/>
  </outline>
</glyph>
<glyph name="thorn" format="1">
  <advance width="424"/>
  <unicode hex="00FE"/>
  <outline>
    <contour>
      <point x="34" y="698" type="line"/>
      <point x="54" y="698" type="line"/>
      <point x="54" y="399" type="line"/>
      <point x="89" y="472"/>
      <point x="151" y="509"/>
      <point x="223" y="509" type="curve" smooth="yes"/>
      <point x="337" y="509"/>
      <point x="412" y="427"/>
      <point x="412" y="309" type="curve" smooth="yes"/>
      <point x="412" y="205"/>
      <point x="335" y="116"/>
      <point x="224" y="116" type="curve" smooth="yes"/>
      <point x="148" y="116"/>
      <point x="83" y="155"/>
      <point x="54" y="234" type="curve"/>
      <point x="54" y="0" type="line"/>
      <point x="34" y="0" type="line"/>
    </contour>
    <contour>
      <point x="225" y="493" type="curve" smooth="yes"/>
      <point x="131" y="493"/>
      <point x="56" y="417"/>
      <point x="56" y="319" type="curve" smooth="yes"/>
      <point x="56" y="227"/>
      <point x="109" y="133"/>
      <point x="223" y="133" type="curve" smooth="yes"/>
      <point x="323" y="133"/>
      <point x="394" y="213"/>
      <point x="394" y="315" type="curve" smooth="yes"/>
      <point x="394" y="409"/>
      <point x="327" y="493"/>
    </contour>
  </outline>
</glyph>
<glyph name="dcroat" format="1">
  <advance width="282"/>
  <unicode hex="0111"/>
  <outline>
    <contour>
      <point x="20" y="615" type="line"/>
      <point x="20" y="595" type="line"/>
      <point x="256" y="595" type="line"/>
      <point x="256" y="615" type="line"/>
    </contour>
    <component base="d"/>
  </outline>
</glyph>
<glyph name="Hbar" format="1">
  <advance width="541"/>
  <unicode hex="0126"/>
  <outline>
    <contour>
      <point x="20" y="518" type="line"/>
      <point x="517" y="518" type="line"/>
      <point x="517" y="498" type="line"/>
      <point x="20" y="498" type="line"/>
    </contour>
    <component base="Eta"/>
  </outline>
</glyph>
<glyph name="hbar" format="1">
  <advance width="453"/>
  <unicode hex="0127"/>
  <outline>
    <contour>
      <point x="17" y="615" type="line"/>
      <point x="252" y="615" type="line"/>
      <point x="252" y="595" type="line"/>
      <point x="17" y="595" type="line"/>
    </contour>
    <contour>
      <point x="60" y="698" type="line"/>
      <point x="80" y="698" type="line"/>
      <point x="80" y="471" type="line"/>
      <point x="112" y="486"/>
      <point x="173" y="505"/>
      <point x="225" y="508" type="curve" smooth="yes"/>
      <point x="312" y="513"/>
      <point x="429" y="502"/>
      <point x="429" y="345" type="curve" smooth="yes"/>
      <point x="429" y="0" type="line"/>
      <point x="410" y="0" type="line"/>
      <point x="410" y="346" type="line" smooth="yes"/>
      <point x="410" y="459"/>
      <point x="346" y="499"/>
      <point x="238" y="493" type="curve" smooth="yes"/>
      <point x="181" y="490"/>
      <point x="116" y="472"/>
      <point x="80" y="453" type="curve"/>
      <point x="80" y="0" type="line"/>
      <point x="60" y="0" type="line"/>
    </contour>
  </outline>
</glyph>
<glyph name="dotlessi" format="1">
  <advance width="85"/>
  <unicode hex="0131"/>
  <outline>
    <contour>
      <point x="50" y="499" type="line"/>
      <point x="50" y="0" type="line"/>
      <point x="32" y="0" type="line"/>
      <point x="32" y="499" type="line"/>
    </contour>
  </outline>
</glyph>
<glyph name="IJ" format="1">
  <advance width="542"/>
  <unicode hex="0132"/>
  <outline>
    <contour>
      <point x="405" y="679" type="line"/>
      <point x="405" y="698" type="line"/>
      <point x="509" y="698" type="line"/>
      <point x="509" y="185" type="line" smooth="yes"/>
      <point x="509" y="58"/>
      <point x="424" y="-11"/>
      <point x="301" y="-11" type="curve" smooth="yes"/>
      <point x="176" y="-11"/>
      <point x="91" y="55"/>
      <point x="91" y="185" type="curve" smooth="yes"/>
      <point x="91" y="234" type="line"/>
      <point x="109" y="234" type="line"/>
      <point x="109" y="184" type="line" smooth="yes"/>
      <point x="109" y="64"/>
      <point x="196" y="7"/>
      <point x="301" y="7" type="curve" smooth="yes"/>
      <point x="414" y="7"/>
      <point x="490" y="67"/>
      <point x="490" y="184" type="curve" smooth="yes"/>
      <point x="490" y="677" type="line"/>
    </contour>
    <contour>
      <point x="5" y="679" type="line"/>
      <point x="5" y="698" type="line"/>
      <point x="109" y="698" type="line"/>
      <point x="109" y="262" type="line"/>
      <point x="91" y="262" type="line"/>
      <point x="91" y="676" type="line"/>
    </contour>
  </outline>
</glyph>
<glyph name="ij" format="1">
  <advance width="448"/>
  <unicode hex="0133"/>
  <outline>
    <contour>
      <point x="47" y="708" type="curve" smooth="yes"/>
      <point x="56" y="708"/>
      <point x="64" y="702"/>
      <point x="64" y="691" type="curve" smooth="yes"/>
      <point x="64" y="682"/>
      <point x="56" y="674"/>
      <point x="47" y="674" type="curve" smooth="yes"/>
      <point x="38" y="674"/>
      <point x="30" y="682"/>
      <point x="30" y="691" type="curve" smooth="yes"/>
      <point x="30" y="702"/>
      <point x="38" y="708"/>
    </contour>
    <contour>
      <point x="413" y="691" type="curve" smooth="yes"/>
      <point x="413" y="682"/>
      <point x="407" y="674"/>
      <point x="396" y="674" type="curve" smooth="yes"/>
      <point x="387" y="674"/>
      <point x="380" y="682"/>
      <point x="380" y="691" type="curve" smooth="yes"/>
      <point x="380" y="702"/>
      <point x="387" y="707"/>
      <point x="396" y="707" type="curve" smooth="yes"/>
      <point x="407" y="707"/>
      <point x="413" y="702"/>
    </contour>
    <contour>
      <point x="388" y="169" type="curve" smooth="yes"/>
      <point x="388" y="499" type="line"/>
      <point x="405" y="499" type="line"/>
      <point x="405" y="-67" type="line" smooth="yes"/>
      <point x="405" y="-151"/>
      <point x="376" y="-186"/>
      <point x="300" y="-212" type="curve"/>
      <point x="294" y="-195" type="line"/>
      <point x="360" y="-172"/>
      <point x="388" y="-142"/>
      <point x="388" y="-66" type="curve" smooth="yes"/>
      <point x="388" y="99" type="line"/>
      <point x="364" y="33"/>
      <point x="299" y="-4"/>
      <point x="231" y="-8" type="curve" smooth="yes"/>
      <point x="157" y="-12"/>
      <point x="36" y="0"/>
      <point x="36" y="157" type="curve" smooth="yes"/>
      <point x="36" y="499" type="line"/>
      <point x="56" y="499" type="line"/>
      <point x="56" y="156" type="line" smooth="yes"/>
      <point x="56" y="44"/>
      <point x="123" y="3"/>
      <point x="230" y="10" type="curve" smooth="yes"/>
      <point x="326" y="17"/>
      <point x="388" y="88"/>
    </contour>
  </outline>
</glyph>
<glyph name="Lslash" format="1">
  <advance width="314"/>
  <unicode hex="0141"/>
  <outline>
    <contour>
      <point x="296" y="490" type="line"/>
      <point x="304" y="474" type="line"/>
      <point x="13" y="342" type="line"/>
      <point x="5" y="359" type="line"/>
    </contour>
    <component base="L" xOffset="85"/>
  </outline>
</glyph>
<glyph name="lslash" format="1">
  <advance width="314"/>
  <unicode hex="0142"/>
  <outline>
    <contour>
      <point x="12" y="341" type="line"/>
      <point x="5" y="357" type="line"/>
      <point x="296" y="489" type="line"/>
      <point x="304" y="473" type="line"/>
    </contour>
    <component base="l" xOffset="119"/>
  </outline>
</glyph>
<glyph name="Eng" format="1">
  <advance width="563"/>
  <unicode hex="014A"/>
  <outline>
    <contour>
      <point x="509" y="698" type="line"/>
      <point x="526" y="698" type="line"/>
      <point x="526" y="-67" type="line" smooth="yes"/>
      <point x="526" y="-114"/>
      <point x="516" y="-149"/>
      <point x="489" y="-174" type="curve" smooth="yes"/>
      <point x="473" y="-190"/>
      <point x="450" y="-201"/>
      <point x="419" y="-212" type="curve"/>
      <point x="414" y="-195" type="line"/>
      <point x="445" y="-183"/>
      <point x="455" y="-177"/>
      <point x="476" y="-160" type="curve"/>
      <point x="497" y="-141"/>
      <point x="509" y="-111"/>
      <point x="509" y="-66" type="curve" smooth="yes"/>
      <point x="509" y="1" type="line"/>
      <point x="54" y="668" type="line"/>
      <point x="54" y="0" type="line"/>
      <point x="34" y="0" type="line"/>
      <point x="34" y="698" type="line"/>
      <point x="53" y="698" type="line"/>
      <point x="509" y="33" type="line"/>
    </contour>
  </outline>
</glyph>
<glyph name="eng" format="1">
  <advance width="429"/>
  <unicode hex="014B"/>
  <outline>
    <contour>
      <point x="399" y="345" type="curve" smooth="yes"/>
      <point x="399" y="-48" type="line" smooth="yes"/>
      <point x="399" y="-97"/>
      <point x="388" y="-131"/>
      <point x="363" y="-155" type="curve" smooth="yes"/>
      <point x="346" y="-172"/>
      <point x="323" y="-184"/>
      <point x="292" y="-195" type="curve"/>
      <point x="286" y="-177" type="line"/>
      <point x="317" y="-165"/>
      <point x="325" y="-161"/>
      <point x="349" y="-142" type="curve"/>
      <point x="370" y="-123"/>
      <point x="379" y="-92"/>
      <point x="379" y="-48" type="curve" smooth="yes"/>
      <point x="379" y="346" type="line" smooth="yes"/>
      <point x="379" y="459"/>
      <point x="317" y="499"/>
      <point x="209" y="493" type="curve" smooth="yes"/>
      <point x="149" y="490"/>
      <point x="87" y="472"/>
      <point x="50" y="453" type="curve"/>
      <point x="50" y="0" type="line"/>
      <point x="31" y="0" type="line"/>
      <point x="31" y="498" type="line"/>
      <point x="50" y="498" type="line"/>
      <point x="50" y="471" type="line"/>
      <point x="83" y="486"/>
      <point x="144" y="505"/>
      <point x="196" y="508" type="curve" smooth="yes"/>
      <point x="283" y="513"/>
      <point x="399" y="502"/>
    </contour>
  </outline>
</glyph>
<glyph name="Tbar" format="1">
  <advance width="428"/>
  <unicode hex="0166"/>
  <outline>
    <contour>
      <point x="411" y="359" type="line"/>
      <point x="11" y="359" type="line"/>
      <point x="11" y="378" type="line"/>
      <point x="411" y="378" type="line"/>
    </contour>
    <contour>
      <point x="413" y="698" type="line"/>
      <point x="413" y="678" type="line"/>
      <point x="219" y="678" type="line"/>
      <point x="219" y="0" type="line"/>
      <point x="201" y="0" type="line"/>
      <point x="200" y="678" type="line"/>
      <point x="11" y="678" type="line"/>
      <point x="11" y="698" type="line"/>
    </contour>
  </outline>
</glyph>
<glyph name="tbar" format="1">
  <advance width="260"/>
  <unicode hex="0167"/>
  <outline>
    <contour>
      <point x="13" y="355" type="line"/>
      <point x="243" y="355" type="line"/>
      <point x="243" y="339" type="line"/>
      <point x="13" y="339" type="line"/>
    </contour>
    <contour>
      <point x="235" y="481" type="line"/>
      <point x="88" y="481" type="line"/>
      <point x="88" y="132" type="line" smooth="yes"/>
      <point x="88" y="59"/>
      <point x="113" y="27"/>
      <point x="180" y="4" type="curve"/>
      <point x="173" y="-13" type="line"/>
      <point x="100" y="8"/>
      <point x="68" y="53"/>
      <point x="68" y="132" type="curve" smooth="yes"/>
      <point x="68" y="698" type="line"/>
      <point x="88" y="698" type="line"/>
      <point x="88" y="499" type="line"/>
      <point x="244" y="499" type="line"/>
    </contour>
  </outline>
</glyph>
<glyph name="dotlessj" format="1">
  <advance width="156"/>
  <unicode hex="0237"/>
  <outline>
    <contour>
      <point x="19" y="499" type="line"/>
      <point x="121" y="499" type="line"/>
      <point x="121" y="-68" type="line" smooth="yes"/>
      <point x="121" y="-149"/>
      <point x="91" y="-190"/>
      <point x="15" y="-213" type="curve"/>
      <point x="9" y="-196" type="line"/>
      <point x="76" y="-170"/>
      <point x="104" y="-144"/>
      <point x="104" y="-67" type="curve" smooth="yes"/>
      <point x="104" y="481" type="line"/>
      <point x="19" y="481" type="line"/>
    </contour>
  </outline>
</glyph>
<glyph name="Gamma" format="1">
  <advance width="362"/>
  <unicode hex="0393"/>
  <outline>
    <contour>
      <point x="53" y="678" type="line"/>
      <point x="53" y="0" type="line"/>
      <point x="34" y="0" type="line"/>
      <point x="34" y="698" type="line"/>
      <point x="367" y="698" type="line"/>
      <point x="367" y="678" type="line"/>
    </contour>
  </outline>
</glyph>
<glyph name="Deltagreek" format="1">
  <advance width="517"/>
  <unicode hex="0394"/>
  <outline>
    <contour>
      <point x="246" y="698" type="line"/>
      <point x="265" y="698" type="line"/>
      <point x="510" y="0" type="line"/>
      <point x="6" y="0" type="line"/>
    </contour>
    <contour>
      <point x="483" y="20" type="line"/>
      <point x="256" y="673" type="line"/>
      <point x="34" y="20" type="line"/>
    </contour>
  </outline>
</glyph>
<glyph name="Zeta" format="1">
  <advance width="510"/>
  <unicode hex="0396"/>
  <outline>
    <contour>
      <point x="25" y="679" type="line"/>
      <point x="24" y="698" type="line"/>
      <point x="490" y="698" type="line"/>
      <point x="490" y="679" type="line"/>
      <point x="35" y="19" type="line"/>
      <point x="497" y="19" type="line"/>
      <point x="497" y="0" type="line"/>
      <point x="11" y="0" type="line"/>
      <point x="11" y="19" type="line"/>
      <point x="466" y="679" type="line"/>
    </contour>
  </outline>
</glyph>
<glyph name="Eta" format="1">
  <advance width="499"/>
  <unicode hex="0397"/>
  <outline>
    <contour>
      <point x="53" y="698" type="line"/>
      <point x="53" y="411" type="line"/>
      <point x="444" y="411" type="line"/>
      <point x="444" y="698" type="line"/>
      <point x="463" y="698" type="line"/>
      <point x="463" y="0" type="line"/>
      <point x="444" y="0" type="line"/>
      <point x="444" y="393" type="line"/>
      <point x="53" y="393" type="line"/>
      <point x="53" y="0" type="line"/>
      <point x="34" y="0" type="line"/>
      <point x="34" y="698" type="line"/>
    </contour>
  </outline>
</glyph>
<glyph name="Theta" format="1">
  <advance width="430"/>
  <unicode hex="0398"/>
  <outline>
    <contour>
      <point x="404" y="340" type="line"/>
      <point x="18" y="340" type="line"/>
      <point x="18" y="360" type="line"/>
      <point x="404" y="360" type="line"/>
    </contour>
    <component base="O"/>
  </outline>
</glyph>
<glyph name="Lambda" format="1">
  <advance width="516"/>
  <unicode hex="039B"/>
  <outline>
    <contour>
      <point x="509" y="0" type="line"/>
      <point x="489" y="0" type="line"/>
      <point x="255" y="668" type="line"/>
      <point x="24" y="0" type="line"/>
      <point x="5" y="0" type="line"/>
      <point x="246" y="698" type="line"/>
      <point x="265" y="698" type="line"/>
    </contour>
  </outline>
</glyph>
<glyph name="Xi" format="1">
  <advance width="544"/>
  <unicode hex="039E"/>
  <outline>
    <contour>
      <point x="31" y="586" type="curve"/>
      <point x="13" y="593" type="line"/>
      <point x="34" y="668"/>
      <point x="79" y="698"/>
      <point x="158" y="698" type="curve" smooth="yes"/>
      <point x="482" y="698" type="line"/>
      <point x="473" y="678" type="line"/>
      <point x="158" y="678" type="line" smooth="yes"/>
      <point x="86" y="678"/>
      <point x="50" y="653"/>
    </contour>
    <contour>
      <point x="139" y="362" type="line"/>
      <point x="405" y="362" type="line"/>
      <point x="405" y="342" type="line"/>
      <point x="139" y="342" type="line"/>
    </contour>
    <contour>
      <point x="53" y="0" type="line"/>
      <point x="61" y="20" type="line"/>
      <point x="376" y="20" type="line" smooth="yes"/>
      <point x="449" y="20"/>
      <point x="482" y="46"/>
      <point x="502" y="113" type="curve"/>
      <point x="521" y="106" type="line"/>
      <point x="501" y="31"/>
      <point x="455" y="0"/>
      <point x="376" y="0" type="curve" smooth="yes"/>
    </contour>
  </outline>
</glyph>
<glyph name="Pi" format="1">
  <advance width="499"/>
  <unicode hex="03A0"/>
  <outline>
    <contour>
      <point x="463" y="698" type="line"/>
      <point x="463" y="0" type="line"/>
      <point x="443" y="0" type="line"/>
      <point x="443" y="678" type="line"/>
      <point x="54" y="678" type="line"/>
      <point x="54" y="0" type="line"/>
      <point x="34" y="0" type="line"/>
      <point x="34" y="698" type="line"/>
    </contour>
  </outline>
</glyph>
<glyph name="Sigma" format="1">
  <advance width="491"/>
  <unicode hex="03A3"/>
  <outline>
    <contour>
      <point x="260" y="383" type="line"/>
      <point x="45" y="20" type="line"/>
      <point x="317" y="20" type="line" smooth="yes"/>
      <point x="393" y="20"/>
      <point x="437" y="35"/>
      <point x="459" y="113" type="curve"/>
      <point x="479" y="107" type="line"/>
      <point x="457" y="32"/>
      <point x="413" y="0"/>
      <point x="334" y="0" type="curve" smooth="yes"/>
      <point x="11" y="0" type="line"/>
      <point x="237" y="384" type="line"/>
      <point x="27" y="702" type="line"/>
      <point x="456" y="702" type="line"/>
      <point x="447" y="682" type="line"/>
      <point x="62" y="682" type="line"/>
    </contour>
  </outline>
</glyph>
<glyph name="Upsilon" format="1">
  <advance width="496"/>
  <unicode hex="03A5"/>
  <outline>
    <contour>
      <point x="442" y="698" type="line"/>
      <point x="462" y="698" type="line"/>
      <point x="462" y="145" type="line" smooth="yes"/>
      <point x="462" y="61"/>
      <point x="427" y="10"/>
      <point x="358" y="-7" type="curve"/>
      <point x="352" y="11" type="line"/>
      <point x="390" y="21"/>
      <point x="442" y="42"/>
      <point x="442" y="152" type="curve" smooth="yes"/>
      <point x="442" y="350" type="line"/>
      <point x="426" y="314"/>
      <point x="371" y="244"/>
      <point x="249" y="244" type="curve" smooth="yes"/>
      <point x="178" y="244"/>
      <point x="122" y="263"/>
      <point x="83" y="296" type="curve" smooth="yes"/>
      <point x="42" y="331"/>
      <point x="20" y="383"/>
      <point x="20" y="452" type="curve" smooth="yes"/>
      <point x="20" y="698" type="line"/>
      <point x="39" y="698" type="line"/>
      <point x="39" y="457" type="line" smooth="yes"/>
      <point x="39" y="393"/>
      <point x="57" y="343"/>
      <point x="94" y="311" type="curve" smooth="yes"/>
      <point x="129" y="279"/>
      <point x="180" y="263"/>
      <point x="249" y="263" type="curve" smooth="yes"/>
      <point x="304" y="263"/>
      <point x="348" y="277"/>
      <point x="382" y="304" type="curve" smooth="yes"/>
      <point x="421" y="333"/>
      <point x="442" y="381"/>
      <point x="442" y="430" type="curve" smooth="yes"/>
    </contour>
  </outline>
</glyph>
<glyph name="Phi" format="1">
  <advance width="578"/>
  <unicode hex="03A6"/>
  <outline>
    <contour>
      <point x="141" y="704" type="curve"/>
      <point x="149" y="689" type="line"/>
      <point x="79" y="667"/>
      <point x="42" y="608"/>
      <point x="42" y="516" type="curve" smooth="yes"/>
      <point x="42" y="224" type="line" smooth="yes"/>
      <point x="42" y="100"/>
      <point x="109" y="46"/>
      <point x="215" y="46" type="curve" smooth="yes"/>
      <point x="278" y="46" type="line"/>
      <point x="278" y="603" type="line" smooth="yes"/>
      <point x="278" y="671"/>
      <point x="314" y="706"/>
      <point x="375" y="708" type="curve" smooth="yes"/>
      <point x="486" y="712"/>
      <point x="550" y="631"/>
      <point x="550" y="508" type="curve" smooth="yes"/>
      <point x="550" y="223" type="line" smooth="yes"/>
      <point x="550" y="105"/>
      <point x="491" y="30"/>
      <point x="363" y="30" type="curve" smooth="yes"/>
      <point x="295" y="30" type="line"/>
      <point x="295" y="-35" type="line"/>
      <point x="278" y="-33" type="line"/>
      <point x="278" y="30" type="line"/>
      <point x="213" y="30" type="line" smooth="yes"/>
      <point x="86" y="30"/>
      <point x="25" y="104"/>
      <point x="25" y="224" type="curve" smooth="yes"/>
      <point x="25" y="516" type="line" smooth="yes"/>
      <point x="25" y="616"/>
      <point x="64" y="679"/>
    </contour>
    <contour>
      <point x="295" y="605" type="curve" smooth="yes"/>
      <point x="295" y="46" type="line"/>
      <point x="363" y="46" type="line" smooth="yes"/>
      <point x="496" y="46"/>
      <point x="532" y="134"/>
      <point x="532" y="223" type="curve" smooth="yes"/>
      <point x="532" y="510" type="line" smooth="yes"/>
      <point x="532" y="624"/>
      <point x="471" y="695"/>
      <point x="374" y="691" type="curve" smooth="yes"/>
      <point x="321" y="689"/>
      <point x="295" y="660"/>
    </contour>
  </outline>
</glyph>
<glyph name="Chi" format="1">
  <advance width="530"/>
  <unicode hex="03A7"/>
  <outline>
    <contour>
      <point x="28" y="698" type="line"/>
      <point x="50" y="698" type="line"/>
      <point x="263" y="381" type="line"/>
      <point x="475" y="698" type="line"/>
      <point x="499" y="698" type="line"/>
      <point x="276" y="363" type="line"/>
      <point x="519" y="0" type="line"/>
      <point x="494" y="0" type="line"/>
      <point x="263" y="345" type="line"/>
      <point x="35" y="0" type="line"/>
      <point x="10" y="0" type="line"/>
      <point x="252" y="363" type="line"/>
    </contour>
  </outline>
</glyph>
<glyph name="Psi" format="1">
  <advance width="571"/>
  <unicode hex="03A8"/>
  <outline>
    <contour>
      <point x="22" y="700" type="line"/>
      <point x="42" y="700" type="line"/>
      <point x="42" y="406" type="line" smooth="yes"/>
      <point x="42" y="285"/>
      <point x="108" y="230"/>
      <point x="211" y="230" type="curve" smooth="yes"/>
      <point x="272" y="230" type="line"/>
      <point x="272" y="700" type="line"/>
      <point x="292" y="700" type="line"/>
      <point x="292" y="230" type="line"/>
      <point x="362" y="230" type="line" smooth="yes"/>
      <point x="473" y="230"/>
      <point x="532" y="294"/>
      <point x="532" y="406" type="curve" smooth="yes"/>
      <point x="532" y="599" type="line" smooth="yes"/>
      <point x="532" y="670"/>
      <point x="499" y="688"/>
      <point x="477" y="702" type="curve"/>
      <point x="494" y="709" type="line"/>
      <point x="504" y="705"/>
      <point x="549" y="678"/>
      <point x="549" y="600" type="curve" smooth="yes"/>
      <point x="549" y="406" type="line" smooth="yes"/>
      <point x="549" y="285"/>
      <point x="489" y="213"/>
      <point x="362" y="213" type="curve" smooth="yes"/>
      <point x="292" y="213" type="line"/>
      <point x="292" y="0" type="line"/>
      <point x="272" y="0" type="line"/>
      <point x="272" y="213" type="line"/>
      <point x="211" y="213" type="line" smooth="yes"/>
      <point x="85" y="213"/>
      <point x="22" y="285"/>
      <point x="22" y="406" type="curve" smooth="yes"/>
    </contour>
  </outline>
</glyph>
<glyph name="Omegagreek" format="1">
  <advance width="567"/>
  <unicode hex="03A9"/>
  <outline>
    <contour>
      <point x="525" y="507" type="curve" smooth="yes"/>
      <point x="525" y="186" type="line" smooth="yes"/>
      <point x="525" y="86"/>
      <point x="480" y="35"/>
      <point x="410" y="20" type="curve"/>
      <point x="534" y="20" type="line"/>
      <point x="541" y="0" type="line"/>
      <point x="310" y="0" type="line"/>
      <point x="310" y="20" type="line"/>
      <point x="410" y="26"/>
      <point x="509" y="45"/>
      <point x="509" y="186" type="curve" smooth="yes"/>
      <point x="509" y="507" type="line" smooth="yes"/>
      <point x="509" y="630"/>
      <point x="441" y="688"/>
      <point x="338" y="688" type="curve" smooth="yes"/>
      <point x="226" y="688" type="line" smooth="yes"/>
      <point x="122" y="688"/>
      <point x="56" y="630"/>
      <point x="56" y="507" type="curve" smooth="yes"/>
      <point x="56" y="186" type="line" smooth="yes"/>
      <point x="56" y="45"/>
      <point x="155" y="26"/>
      <point x="253" y="20" type="curve"/>
      <point x="253" y="0" type="line"/>
      <point x="25" y="0" type="line"/>
      <point x="32" y="20" type="line"/>
      <point x="156" y="20" type="line"/>
      <point x="83" y="35"/>
      <point x="39" y="87"/>
      <point x="39" y="186" type="curve" smooth="yes"/>
      <point x="39" y="507" type="line" smooth="yes"/>
      <point x="39" y="630"/>
      <point x="101" y="705"/>
      <point x="226" y="705" type="curve" smooth="yes"/>
      <point x="338" y="705" type="line" smooth="yes"/>
      <point x="464" y="705"/>
      <point x="525" y="630"/>
    </contour>
  </outline>
</glyph>
<glyph name="alpha" format="1">
  <advance width="426"/>
  <unicode hex="03B1"/>
  <outline>
    <contour>
      <point x="379" y="490" type="curve"/>
      <point x="395" y="487" type="line"/>
      <point x="395" y="487"/>
      <point x="388" y="456"/>
      <point x="388" y="434" type="curve" smooth="yes"/>
      <point x="388" y="4" type="line"/>
      <point x="390" y="5"/>
      <point x="274" y="-4"/>
      <point x="200" y="-4" type="curve" smooth="yes"/>
      <point x="63" y="-4"/>
      <point x="23" y="76"/>
      <point x="23" y="158" type="curve" smooth="yes"/>
      <point x="23" y="354" type="line" smooth="yes"/>
      <point x="23" y="476"/>
      <point x="101" y="508"/>
      <point x="180" y="508" type="curve" smooth="yes"/>
      <point x="241" y="508"/>
      <point x="310" y="485"/>
      <point x="371" y="455" type="curve"/>
      <point x="374" y="472"/>
      <point x="379" y="490"/>
    </contour>
    <contour>
      <point x="42" y="351" type="curve" smooth="yes"/>
      <point x="42" y="163" type="line" smooth="yes"/>
      <point x="42" y="65"/>
      <point x="94" y="14"/>
      <point x="200" y="14" type="curve" smooth="yes"/>
      <point x="269" y="14"/>
      <point x="371" y="23"/>
      <point x="369" y="22" type="curve"/>
      <point x="369" y="433" type="line"/>
      <point x="310" y="468"/>
      <point x="237" y="489"/>
      <point x="175" y="489" type="curve" smooth="yes"/>
      <point x="86" y="489"/>
      <point x="42" y="439"/>
    </contour>
  </outline>
</glyph>
<glyph name="beta" format="1">
  <advance width="427"/>
  <unicode hex="03B2"/>
  <outline>
    <contour>
      <point x="52" y="-213" type="line"/>
      <point x="32" y="-207" type="line"/>
      <point x="32" y="522" type="line" smooth="yes"/>
      <point x="32" y="618"/>
      <point x="93" y="703"/>
      <point x="196" y="703" type="curve" smooth="yes"/>
      <point x="290" y="703"/>
      <point x="351" y="641"/>
      <point x="344" y="554" type="curve" smooth="yes"/>
      <point x="340" y="498"/>
      <point x="303" y="437"/>
      <point x="229" y="404" type="curve"/>
      <point x="256" y="405" type="line" smooth="yes"/>
      <point x="351" y="409"/>
      <point x="407" y="356"/>
      <point x="406" y="259" type="curve" smooth="yes"/>
      <point x="405" y="169" type="line" smooth="yes"/>
      <point x="404" y="50"/>
      <point x="358" y="-11"/>
      <point x="213" y="-11" type="curve" smooth="yes"/>
      <point x="191" y="-11"/>
      <point x="94" y="-6"/>
      <point x="52" y="-2" type="curve"/>
    </contour>
    <contour>
      <point x="52" y="522" type="curve" smooth="yes"/>
      <point x="52" y="387" type="line"/>
      <point x="147" y="398" type="line" smooth="yes"/>
      <point x="221" y="407"/>
      <point x="315" y="460"/>
      <point x="324" y="555" type="curve" smooth="yes"/>
      <point x="331" y="629"/>
      <point x="276" y="683"/>
      <point x="197" y="683" type="curve" smooth="yes"/>
      <point x="105" y="683"/>
      <point x="52" y="607"/>
    </contour>
    <contour>
      <point x="149" y="378" type="curve" smooth="yes"/>
      <point x="52" y="366" type="line"/>
      <point x="52" y="18" type="line"/>
      <point x="50" y="19"/>
      <point x="168" y="8"/>
      <point x="213" y="7" type="curve" smooth="yes"/>
      <point x="371" y="5"/>
      <point x="388" y="90"/>
      <point x="388" y="162" type="curve" smooth="yes"/>
      <point x="388" y="251" type="line" smooth="yes"/>
      <point x="388" y="325"/>
      <point x="362" y="386"/>
      <point x="258" y="386" type="curve" smooth="yes"/>
      <point x="229" y="386"/>
      <point x="192" y="384"/>
    </contour>
  </outline>
</glyph>
<glyph name="gamma" format="1">
  <advance width="482"/>
  <unicode hex="03B3"/>
  <outline>
    <contour>
      <point x="463" y="508" type="curve"/>
      <point x="473" y="494" type="line"/>
      <point x="414" y="468"/>
      <point x="401" y="424"/>
      <point x="389" y="385" type="curve" smooth="yes"/>
      <point x="245" y="-92" type="line" smooth="yes"/>
      <point x="232" y="-135"/>
      <point x="199" y="-199"/>
      <point x="106" y="-199" type="curve"/>
      <point x="101" y="-180" type="line"/>
      <point x="196" y="-180"/>
      <point x="216" y="-118"/>
      <point x="228" y="-79" type="curve" smooth="yes"/>
      <point x="250" y="-6" type="line"/>
      <point x="181" y="-2"/>
      <point x="144" y="48"/>
      <point x="120" y="129" type="curve" smooth="yes"/>
      <point x="11" y="500" type="line"/>
      <point x="30" y="500" type="line"/>
      <point x="136" y="140" type="line" smooth="yes"/>
      <point x="160" y="56"/>
      <point x="193" y="15"/>
      <point x="257" y="15" type="curve"/>
      <point x="370" y="387" type="line" smooth="yes"/>
      <point x="391" y="453"/>
      <point x="407" y="481"/>
    </contour>
  </outline>
</glyph>
<glyph name="delta" format="1">
  <advance width="411"/>
  <unicode hex="03B4"/>
  <outline>
    <contour>
      <point x="342" y="698" type="line"/>
      <point x="332" y="679" type="line"/>
      <point x="230" y="679" type="line" smooth="yes"/>
      <point x="187" y="679"/>
      <point x="137" y="664"/>
      <point x="134" y="606" type="curve" smooth="yes"/>
      <point x="131" y="555"/>
      <point x="172" y="529"/>
      <point x="209" y="506" type="curve" smooth="yes"/>
      <point x="228" y="494"/>
      <point x="242" y="487"/>
      <point x="253" y="480" type="curve"/>
      <point x="269" y="471"/>
      <point x="281" y="464"/>
      <point x="302" y="451" type="curve" smooth="yes"/>
      <point x="379" y="404"/>
      <point x="390" y="342"/>
      <point x="390" y="285" type="curve" smooth="yes"/>
      <point x="390" y="183" type="line" smooth="yes"/>
      <point x="390" y="56"/>
      <point x="328" y="-11"/>
      <point x="205" y="-11" type="curve" smooth="yes"/>
      <point x="78" y="-11"/>
      <point x="18" y="63"/>
      <point x="18" y="183" type="curve" smooth="yes"/>
      <point x="18" y="310" type="line" smooth="yes"/>
      <point x="18" y="370"/>
      <point x="39" y="419"/>
      <point x="72" y="453" type="curve" smooth="yes"/>
      <point x="98" y="480"/>
      <point x="131" y="498"/>
      <point x="170" y="506" type="curve"/>
      <point x="158" y="516" type="line" smooth="yes"/>
      <point x="131" y="538"/>
      <point x="113" y="567"/>
      <point x="113" y="600" type="curve" smooth="yes"/>
      <point x="113" y="679"/>
      <point x="184" y="698"/>
      <point x="230" y="698" type="curve" smooth="yes"/>
    </contour>
    <contour>
      <point x="370" y="184" type="curve" smooth="yes"/>
      <point x="370" y="301" type="line" smooth="yes"/>
      <point x="370" y="358"/>
      <point x="346" y="404"/>
      <point x="276" y="444" type="curve" smooth="yes"/>
      <point x="194" y="491" type="line"/>
      <point x="151" y="487"/>
      <point x="112" y="471"/>
      <point x="81" y="438" type="curve" smooth="yes"/>
      <point x="50" y="404"/>
      <point x="37" y="360"/>
      <point x="37" y="309" type="curve" smooth="yes"/>
      <point x="37" y="183" type="line" smooth="yes"/>
      <point x="37" y="91"/>
      <point x="77" y="8"/>
      <point x="202" y="8" type="curve" smooth="yes"/>
      <point x="330" y="8"/>
      <point x="370" y="82"/>
    </contour>
  </outline>
</glyph>
<glyph name="epsilon" format="1">
  <advance width="376"/>
  <unicode hex="03B5"/>
  <outline>
    <contour>
      <point x="293" y="495" type="curve"/>
      <point x="293" y="474" type="line"/>
      <point x="268" y="484"/>
      <point x="215" y="492"/>
      <point x="192" y="492" type="curve" smooth="yes"/>
      <point x="125" y="492"/>
      <point x="58" y="461"/>
      <point x="58" y="385" type="curve" smooth="yes"/>
      <point x="58" y="334"/>
      <point x="92" y="300"/>
      <point x="145" y="300" type="curve" smooth="yes"/>
      <point x="293" y="300" type="line"/>
      <point x="286" y="282" type="line"/>
      <point x="180" y="282" type="line" smooth="yes"/>
      <point x="84" y="282"/>
      <point x="38" y="225"/>
      <point x="38" y="148" type="curve" smooth="yes"/>
      <point x="38" y="67"/>
      <point x="98" y="9"/>
      <point x="197" y="9" type="curve" smooth="yes"/>
      <point x="286" y="9"/>
      <point x="357" y="44"/>
      <point x="356" y="43" type="curve"/>
      <point x="363" y="23" type="line"/>
      <point x="323" y="8"/>
      <point x="259" y="-11"/>
      <point x="200" y="-11" type="curve" smooth="yes"/>
      <point x="64" y="-11"/>
      <point x="19" y="75"/>
      <point x="19" y="151" type="curve" smooth="yes"/>
      <point x="19" y="222"/>
      <point x="55" y="269"/>
      <point x="115" y="288" type="curve"/>
      <point x="53" y="302"/>
      <point x="39" y="352"/>
      <point x="39" y="385" type="curve" smooth="yes"/>
      <point x="39" y="447"/>
      <point x="88" y="509"/>
      <point x="190" y="509" type="curve" smooth="yes"/>
      <point x="223" y="509"/>
      <point x="258" y="504"/>
    </contour>
  </outline>
</glyph>
<glyph name="zeta" format="1">
  <advance width="379"/>
  <unicode hex="03B6"/>
  <outline>
    <contour>
      <point x="81" y="698" type="line"/>
      <point x="353" y="698" type="line"/>
      <point x="359" y="678" type="line"/>
      <point x="291" y="624"/>
      <point x="236" y="563"/>
      <point x="190" y="509" type="curve" smooth="yes"/>
      <point x="152" y="464"/>
      <point x="117" y="417"/>
      <point x="93" y="373" type="curve" smooth="yes"/>
      <point x="55" y="301"/>
      <point x="34" y="237"/>
      <point x="34" y="178" type="curve" smooth="yes"/>
      <point x="34" y="129"/>
      <point x="48" y="90"/>
      <point x="79" y="62" type="curve" smooth="yes"/>
      <point x="128" y="19"/>
      <point x="240" y="2"/>
      <point x="365" y="22" type="curve"/>
      <point x="365" y="-211" type="line"/>
      <point x="345" y="-205" type="line"/>
      <point x="345" y="-1" type="line"/>
      <point x="232" y="-17"/>
      <point x="118" y="-2"/>
      <point x="62" y="50" type="curve" smooth="yes"/>
      <point x="26" y="85"/>
      <point x="11" y="131"/>
      <point x="12" y="184" type="curve" smooth="yes"/>
      <point x="15" y="243"/>
      <point x="37" y="311"/>
      <point x="75" y="382" type="curve" smooth="yes"/>
      <point x="102" y="429"/>
      <point x="134" y="474"/>
      <point x="172" y="519" type="curve" smooth="yes"/>
      <point x="221" y="577"/>
      <point x="275" y="632"/>
      <point x="323" y="678" type="curve"/>
      <point x="81" y="678" type="line"/>
    </contour>
  </outline>
</glyph>
<glyph name="eta" format="1">
  <advance width="430"/>
  <unicode hex="03B7"/>
  <outline>
    <contour>
      <point x="399" y="-212" type="line"/>
      <point x="379" y="-205" type="line"/>
      <point x="379" y="346" type="line" smooth="yes"/>
      <point x="379" y="459"/>
      <point x="317" y="499"/>
      <point x="209" y="493" type="curve" smooth="yes"/>
      <point x="152" y="490"/>
      <point x="88" y="472"/>
      <point x="49" y="453" type="curve"/>
      <point x="49" y="0" type="line"/>
      <point x="31" y="0" type="line"/>
      <point x="31" y="499" type="line"/>
      <point x="49" y="499" type="line"/>
      <point x="49" y="471" type="line"/>
      <point x="82" y="486"/>
      <point x="144" y="505"/>
      <point x="196" y="508" type="curve" smooth="yes"/>
      <point x="283" y="513"/>
      <point x="399" y="502"/>
      <point x="399" y="345" type="curve" smooth="yes"/>
    </contour>
  </outline>
</glyph>
<glyph name="theta" format="1">
  <advance width="424"/>
  <unicode hex="03B8"/>
  <outline>
    <contour>
      <point x="204" y="707" type="curve" smooth="yes"/>
      <point x="331" y="707"/>
      <point x="395" y="629"/>
      <point x="395" y="502" type="curve" smooth="yes"/>
      <point x="395" y="188" type="line" smooth="yes"/>
      <point x="395" y="63"/>
      <point x="333" y="-6"/>
      <point x="210" y="-6" type="curve" smooth="yes"/>
      <point x="85" y="-6"/>
      <point x="23" y="69"/>
      <point x="23" y="188" type="curve" smooth="yes"/>
      <point x="23" y="312" type="line" smooth="yes"/>
      <point x="23" y="380"/>
      <point x="54" y="421"/>
      <point x="91" y="448" type="curve"/>
      <point x="47" y="492"/>
      <point x="42" y="539"/>
      <point x="42" y="557" type="curve" smooth="yes"/>
      <point x="42" y="636"/>
      <point x="99" y="707"/>
    </contour>
    <contour>
      <point x="375" y="385" type="curve"/>
      <point x="375" y="502" type="line" smooth="yes"/>
      <point x="375" y="619"/>
      <point x="313" y="690"/>
      <point x="204" y="690" type="curve" smooth="yes"/>
      <point x="118" y="690"/>
      <point x="62" y="631"/>
      <point x="62" y="559" type="curve" smooth="yes"/>
      <point x="62" y="509"/>
      <point x="91" y="457"/>
      <point x="163" y="423" type="curve" smooth="yes"/>
      <point x="212" y="400"/>
      <point x="281" y="385"/>
    </contour>
    <contour>
      <point x="207" y="14" type="curve" smooth="yes"/>
      <point x="335" y="14"/>
      <point x="375" y="83"/>
      <point x="375" y="186" type="curve" smooth="yes"/>
      <point x="375" y="369" type="line"/>
      <point x="234" y="369"/>
      <point x="152" y="400"/>
      <point x="105" y="437" type="curve"/>
      <point x="68" y="412"/>
      <point x="42" y="370"/>
      <point x="42" y="311" type="curve" smooth="yes"/>
      <point x="42" y="185" type="line" smooth="yes"/>
      <point x="42" y="95"/>
      <point x="84" y="14"/>
    </contour>
  </outline>
</glyph>
<glyph name="kappa" format="1">
  <advance width="413"/>
  <unicode hex="03BA"/>
  <outline>
    <contour>
      <point x="349" y="501" type="line"/>
      <point x="158" y="292" type="line"/>
      <point x="286" y="113" type="line" smooth="yes"/>
      <point x="331" y="50"/>
      <point x="371" y="18"/>
      <point x="401" y="18" type="curve"/>
      <point x="401" y="-1" type="line"/>
      <point x="353" y="-1"/>
      <point x="310" y="50"/>
      <point x="285" y="86" type="curve" smooth="yes"/>
      <point x="146" y="278" type="line"/>
      <point x="50" y="179" type="line"/>
      <point x="50" y="0" type="line"/>
      <point x="32" y="0" type="line"/>
      <point x="32" y="512" type="line"/>
      <point x="50" y="508" type="line"/>
      <point x="50" y="206" type="line"/>
      <point x="323" y="501" type="line"/>
    </contour>
  </outline>
</glyph>
<glyph name="lambda" format="1">
  <advance width="476"/>
  <unicode hex="03BB"/>
  <outline>
    <contour>
      <point x="243" y="590" type="curve" smooth="yes"/>
      <point x="387" y="114" type="line" smooth="yes"/>
      <point x="399" y="74"/>
      <point x="409" y="34"/>
      <point x="471" y="5" type="curve"/>
      <point x="460" y="-8" type="line"/>
      <point x="405" y="18"/>
      <point x="387" y="47"/>
      <point x="367" y="112" type="curve" smooth="yes"/>
      <point x="254" y="485" type="line"/>
      <point x="188" y="485"/>
      <point x="158" y="442"/>
      <point x="134" y="360" type="curve" smooth="yes"/>
      <point x="27" y="-1" type="line"/>
      <point x="9" y="-1" type="line"/>
      <point x="118" y="371" type="line" smooth="yes"/>
      <point x="141" y="450"/>
      <point x="175" y="500"/>
      <point x="247" y="506" type="curve"/>
      <point x="225" y="578" type="line" smooth="yes"/>
      <point x="213" y="617"/>
      <point x="193" y="678"/>
      <point x="99" y="678" type="curve"/>
      <point x="103" y="697" type="line"/>
      <point x="197" y="697"/>
      <point x="229" y="634"/>
    </contour>
  </outline>
</glyph>
<glyph name="nu" format="1">
  <advance width="406"/>
  <unicode hex="03BD"/>
  <outline>
    <contour>
      <point x="208" y="0" type="line"/>
      <point x="195" y="0" type="line"/>
      <point x="10" y="499" type="line"/>
      <point x="29" y="499" type="line"/>
      <point x="201" y="36" type="line"/>
      <point x="374" y="499" type="line"/>
      <point x="394" y="499" type="line"/>
    </contour>
  </outline>
</glyph>
<glyph name="xi" format="1">
  <advance width="385"/>
  <unicode hex="03BE"/>
  <outline>
    <contour>
      <point x="219" y="700" type="curve" smooth="yes"/>
      <point x="370" y="700" type="line"/>
      <point x="360" y="679" type="line"/>
      <point x="223" y="679" type="line" smooth="yes"/>
      <point x="144" y="679"/>
      <point x="103" y="637"/>
      <point x="101" y="564" type="curve" smooth="yes"/>
      <point x="99" y="468"/>
      <point x="186" y="417"/>
      <point x="267" y="407" type="curve" smooth="yes"/>
      <point x="292" y="404" type="line"/>
      <point x="287" y="385" type="line"/>
      <point x="167" y="385" type="line" smooth="yes"/>
      <point x="63" y="385"/>
      <point x="37" y="326"/>
      <point x="37" y="251" type="curve" smooth="yes"/>
      <point x="37" y="162" type="line" smooth="yes"/>
      <point x="37" y="89"/>
      <point x="53" y="10"/>
      <point x="211" y="10" type="curve" smooth="yes"/>
      <point x="247" y="10"/>
      <point x="311" y="13"/>
      <point x="369" y="21" type="curve"/>
      <point x="369" y="-211" type="line"/>
      <point x="349" y="-205" type="line"/>
      <point x="349" y="-1" type="line"/>
      <point x="300" y="-7"/>
      <point x="232" y="-10"/>
      <point x="210" y="-10" type="curve" smooth="yes"/>
      <point x="63" y="-10"/>
      <point x="17" y="50"/>
      <point x="17" y="168" type="curve" smooth="yes"/>
      <point x="17" y="254" type="line" smooth="yes"/>
      <point x="17" y="318"/>
      <point x="33" y="405"/>
      <point x="167" y="405" type="curve" smooth="yes"/>
      <point x="199" y="405" type="line"/>
      <point x="123" y="427"/>
      <point x="79" y="496"/>
      <point x="79" y="563" type="curve" smooth="yes"/>
      <point x="79" y="641"/>
      <point x="127" y="700"/>
    </contour>
  </outline>
</glyph>
<glyph name="pi" format="1">
  <advance width="458"/>
  <unicode hex="03C0"/>
  <outline>
    <contour>
      <point x="32" y="498" type="line"/>
      <point x="407" y="498" type="line"/>
      <point x="407" y="77" type="line" smooth="yes"/>
      <point x="407" y="52"/>
      <point x="416" y="33"/>
      <point x="432" y="21" type="curve"/>
      <point x="419" y="4" type="line"/>
      <point x="400" y="21"/>
      <point x="389" y="44"/>
      <point x="389" y="79" type="curve" smooth="yes"/>
      <point x="391" y="482" type="line"/>
      <point x="48" y="482" type="line"/>
      <point x="48" y="0" type="line"/>
      <point x="32" y="0" type="line"/>
    </contour>
  </outline>
</glyph>
<glyph name="rho" format="1">
  <advance width="420"/>
  <unicode hex="03C1"/>
  <outline>
    <contour>
      <point x="395" y="310" type="curve" smooth="yes"/>
      <point x="395" y="170" type="line" smooth="yes"/>
      <point x="395" y="47"/>
      <point x="331" y="-18"/>
      <point x="220" y="-18" type="curve" smooth="yes"/>
      <point x="157" y="-18"/>
      <point x="70" y="16"/>
      <point x="46" y="76" type="curve"/>
      <point x="46" y="-212" type="line"/>
      <point x="26" y="-206" type="line"/>
      <point x="26" y="310" type="line" smooth="yes"/>
      <point x="26" y="437"/>
      <point x="93" y="506"/>
      <point x="212" y="506" type="curve" smooth="yes"/>
      <point x="331" y="506"/>
      <point x="395" y="431"/>
    </contour>
    <contour>
      <point x="375" y="164" type="curve" smooth="yes"/>
      <point x="375" y="315" type="line" smooth="yes"/>
      <point x="375" y="430"/>
      <point x="308" y="486"/>
      <point x="212" y="486" type="curve" smooth="yes"/>
      <point x="102" y="486"/>
      <point x="46" y="423"/>
      <point x="46" y="315" type="curve" smooth="yes"/>
      <point x="46" y="142" type="line"/>
      <point x="44" y="46"/>
      <point x="151" y="-7"/>
      <point x="236" y="-1" type="curve" smooth="yes"/>
      <point x="323" y="4"/>
      <point x="375" y="63"/>
    </contour>
  </outline>
</glyph>
<glyph name="sigma1" format="1">
  <advance width="314"/>
  <unicode hex="03C2"/>
  <outline>
    <contour>
      <point x="32" y="348" type="curve" smooth="yes"/>
      <point x="32" y="283" type="line" smooth="yes"/>
      <point x="32" y="234"/>
      <point x="44" y="201"/>
      <point x="100" y="162" type="curve" smooth="yes"/>
      <point x="199" y="94" type="line" smooth="yes"/>
      <point x="247" y="61"/>
      <point x="272" y="29"/>
      <point x="272" y="-22" type="curve" smooth="yes"/>
      <point x="272" y="-79"/>
      <point x="221" y="-121"/>
      <point x="184" y="-142" type="curve"/>
      <point x="174" y="-124" type="line"/>
      <point x="210" y="-102"/>
      <point x="252" y="-68"/>
      <point x="252" y="-22" type="curve" smooth="yes"/>
      <point x="252" y="19"/>
      <point x="228" y="49"/>
      <point x="188" y="77" type="curve" smooth="yes"/>
      <point x="89" y="145" type="line" smooth="yes"/>
      <point x="32" y="184"/>
      <point x="12" y="224"/>
      <point x="12" y="283" type="curve" smooth="yes"/>
      <point x="12" y="342" type="line" smooth="yes"/>
      <point x="12" y="456"/>
      <point x="98" y="503"/>
      <point x="175" y="503" type="curve" smooth="yes"/>
      <point x="250" y="503"/>
      <point x="299" y="469"/>
      <point x="299" y="468" type="curve"/>
      <point x="289" y="453" type="line"/>
      <point x="289" y="452"/>
      <point x="242" y="486"/>
      <point x="175" y="485" type="curve" smooth="yes"/>
      <point x="115" y="485"/>
      <point x="32" y="450"/>
    </contour>
  </outline>
</glyph>
<glyph name="sigma" format="1">
  <advance width="434"/>
  <unicode hex="03C3"/>
  <outline>
    <contour>
      <point x="401" y="541" type="curve"/>
      <point x="413" y="529" type="line"/>
      <point x="405" y="515"/>
      <point x="359" y="486"/>
      <point x="316" y="482" type="curve"/>
      <point x="367" y="447"/>
      <point x="387" y="400"/>
      <point x="387" y="319" type="curve" smooth="yes"/>
      <point x="387" y="184" type="line" smooth="yes"/>
      <point x="387" y="67"/>
      <point x="326" y="-10"/>
      <point x="205" y="-10" type="curve" smooth="yes"/>
      <point x="78" y="-10"/>
      <point x="19" y="77"/>
      <point x="19" y="184" type="curve" smooth="yes"/>
      <point x="19" y="327" type="line" smooth="yes"/>
      <point x="19" y="461"/>
      <point x="111" y="510"/>
      <point x="200" y="510" type="curve" smooth="yes"/>
      <point x="280" y="510"/>
      <point x="298" y="496"/>
      <point x="326" y="502" type="curve" smooth="yes"/>
      <point x="352" y="507"/>
      <point x="377" y="520"/>
    </contour>
    <contour>
      <point x="368" y="184" type="curve" smooth="yes"/>
      <point x="368" y="319" type="line" smooth="yes"/>
      <point x="368" y="458"/>
      <point x="289" y="478"/>
      <point x="276" y="486" type="curve"/>
      <point x="255" y="491"/>
      <point x="226" y="494"/>
      <point x="199" y="493" type="curve" smooth="yes"/>
      <point x="111" y="490"/>
      <point x="39" y="440"/>
      <point x="39" y="323" type="curve" smooth="yes"/>
      <point x="39" y="184" type="line" smooth="yes"/>
      <point x="39" y="86"/>
      <point x="97" y="8"/>
      <point x="207" y="8" type="curve" smooth="yes"/>
      <point x="321" y="8"/>
      <point x="368" y="84"/>
    </contour>
  </outline>
</glyph>
<glyph name="tau" format="1">
  <advance width="323"/>
  <unicode hex="03C4"/>
  <outline>
    <contour>
      <point x="310" y="479" type="line"/>
      <point x="167" y="479" type="line"/>
      <point x="167" y="132" type="line" smooth="yes"/>
      <point x="167" y="78"/>
      <point x="167" y="24"/>
      <point x="241" y="4" type="curve"/>
      <point x="234" y="-13" type="line"/>
      <point x="158" y="10"/>
      <point x="147" y="58"/>
      <point x="147" y="132" type="curve" smooth="yes"/>
      <point x="147" y="479" type="line"/>
      <point x="8" y="479" type="line"/>
      <point x="8" y="498" type="line"/>
      <point x="310" y="498" type="line"/>
    </contour>
  </outline>
</glyph>
<glyph name="upsilon" format="1">
  <advance width="428"/>
  <unicode hex="03C5"/>
  <outline>
    <contour>
      <point x="380" y="499" type="line"/>
      <point x="397" y="499" type="line"/>
      <point x="397" y="184" type="line" smooth="yes"/>
      <point x="397" y="68"/>
      <point x="334" y="-10"/>
      <point x="214" y="-10" type="curve" smooth="yes"/>
      <point x="88" y="-10"/>
      <point x="27" y="77"/>
      <point x="27" y="184" type="curve" smooth="yes"/>
      <point x="27" y="499" type="line"/>
      <point x="47" y="499" type="line"/>
      <point x="47" y="184" type="line" smooth="yes"/>
      <point x="47" y="86"/>
      <point x="105" y="8"/>
      <point x="215" y="8" type="curve" smooth="yes"/>
      <point x="330" y="8"/>
      <point x="380" y="84"/>
      <point x="380" y="184" type="curve" smooth="yes"/>
    </contour>
  </outline>
</glyph>
<glyph name="phi" format="1">
  <advance width="569"/>
  <unicode hex="03C6"/>
  <outline>
    <contour>
      <point x="21" y="188" type="curve" smooth="yes"/>
      <point x="21" y="313" type="line" smooth="yes"/>
      <point x="21" y="414"/>
      <point x="60" y="477"/>
      <point x="137" y="502" type="curve"/>
      <point x="146" y="485" type="line"/>
      <point x="86" y="470"/>
      <point x="41" y="419"/>
      <point x="41" y="315" type="curve" smooth="yes"/>
      <point x="41" y="178" type="line" smooth="yes"/>
      <point x="41" y="68"/>
      <point x="110" y="10"/>
      <point x="210" y="10" type="curve" smooth="yes"/>
      <point x="274" y="10" type="line"/>
      <point x="274" y="408" type="line" smooth="yes"/>
      <point x="274" y="465"/>
      <point x="305" y="505"/>
      <point x="368" y="506" type="curve" smooth="yes"/>
      <point x="484" y="508"/>
      <point x="545" y="424"/>
      <point x="545" y="306" type="curve" smooth="yes"/>
      <point x="545" y="188" type="line" smooth="yes"/>
      <point x="545" y="68"/>
      <point x="487" y="-7"/>
      <point x="360" y="-7" type="curve" smooth="yes"/>
      <point x="290" y="-7" type="line"/>
      <point x="290" y="-211" type="line"/>
      <point x="274" y="-205" type="line"/>
      <point x="274" y="-7" type="line"/>
      <point x="210" y="-7" type="line" smooth="yes"/>
      <point x="82" y="-7"/>
      <point x="21" y="68"/>
    </contour>
    <contour>
      <point x="290" y="401" type="curve" smooth="yes"/>
      <point x="290" y="10" type="line"/>
      <point x="360" y="10" type="line" smooth="yes"/>
      <point x="473" y="10"/>
      <point x="529" y="76"/>
      <point x="529" y="185" type="curve" smooth="yes"/>
      <point x="529" y="316" type="line" smooth="yes"/>
      <point x="529" y="382"/>
      <point x="492" y="489"/>
      <point x="373" y="489" type="curve" smooth="yes"/>
      <point x="320" y="489"/>
      <point x="290" y="462"/>
    </contour>
  </outline>
</glyph>
<glyph name="chi" format="1">
  <advance width="434"/>
  <unicode hex="03C7"/>
  <outline>
    <contour>
      <point x="390" y="498" type="line"/>
      <point x="207" y="148" type="line"/>
      <point x="332" y="-107" type="line" smooth="yes"/>
      <point x="363" y="-168"/>
      <point x="392" y="-195"/>
      <point x="437" y="-198" type="curve"/>
      <point x="428" y="-211" type="line"/>
      <point x="375" y="-211"/>
      <point x="349" y="-176"/>
      <point x="314" y="-107" type="curve" smooth="yes"/>
      <point x="197" y="131" type="line"/>
      <point x="28" y="-196" type="line"/>
      <point x="11" y="-189" type="line"/>
      <point x="187" y="148" type="line"/>
      <point x="11" y="498" type="line"/>
      <point x="31" y="498" type="line"/>
      <point x="196" y="166" type="line"/>
      <point x="370" y="498" type="line"/>
    </contour>
  </outline>
</glyph>
<glyph name="psi" format="1">
  <advance width="580"/>
  <unicode hex="03C8"/>
  <outline>
    <contour>
      <point x="501" y="498" type="curve"/>
      <point x="520" y="504" type="line"/>
      <point x="547" y="471"/>
      <point x="552" y="431"/>
      <point x="552" y="386" type="curve" smooth="yes"/>
      <point x="552" y="188" type="line" smooth="yes"/>
      <point x="552" y="68"/>
      <point x="491" y="-7"/>
      <point x="364" y="-7" type="curve" smooth="yes"/>
      <point x="300" y="-7" type="line"/>
      <point x="300" y="-211" type="line"/>
      <point x="283" y="-205" type="line"/>
      <point x="283" y="-7" type="line"/>
      <point x="213" y="-7" type="line" smooth="yes"/>
      <point x="88" y="-7"/>
      <point x="27" y="68"/>
      <point x="27" y="188" type="curve" smooth="yes"/>
      <point x="27" y="498" type="line"/>
      <point x="45" y="498" type="line"/>
      <point x="45" y="185" type="line" smooth="yes"/>
      <point x="45" y="77"/>
      <point x="103" y="10"/>
      <point x="213" y="10" type="curve" smooth="yes"/>
      <point x="283" y="10" type="line"/>
      <point x="283" y="498" type="line"/>
      <point x="300" y="498" type="line"/>
      <point x="300" y="10" type="line"/>
      <point x="364" y="10" type="line" smooth="yes"/>
      <point x="466" y="10"/>
      <point x="533" y="66"/>
      <point x="533" y="178" type="curve" smooth="yes"/>
      <point x="533" y="388" type="line" smooth="yes"/>
      <point x="533" y="445"/>
      <point x="524" y="471"/>
    </contour>
  </outline>
</glyph>
<glyph name="omega" format="1">
  <advance width="580"/>
  <unicode hex="03C9"/>
  <outline>
    <contour>
      <point x="442" y="482" type="curve"/>
      <point x="448" y="497" type="line"/>
      <point x="519" y="471"/>
      <point x="554" y="410"/>
      <point x="554" y="315" type="curve" smooth="yes"/>
      <point x="554" y="186" type="line" smooth="yes"/>
      <point x="554" y="54"/>
      <point x="503" y="-13"/>
      <point x="396" y="-13" type="curve" smooth="yes"/>
      <point x="356" y="-13"/>
      <point x="295" y="11"/>
      <point x="289" y="73" type="curve"/>
      <point x="283" y="11"/>
      <point x="221" y="-13"/>
      <point x="181" y="-13" type="curve" smooth="yes"/>
      <point x="71" y="-13"/>
      <point x="23" y="52"/>
      <point x="23" y="184" type="curve" smooth="yes"/>
      <point x="23" y="315" type="line" smooth="yes"/>
      <point x="23" y="410"/>
      <point x="58" y="472"/>
      <point x="130" y="497" type="curve"/>
      <point x="135" y="482" type="line"/>
      <point x="79" y="459"/>
      <point x="39" y="414"/>
      <point x="39" y="315" type="curve" smooth="yes"/>
      <point x="39" y="179" type="line" smooth="yes"/>
      <point x="39" y="64"/>
      <point x="86" y="4"/>
      <point x="178" y="4" type="curve" smooth="yes"/>
      <point x="243" y="4"/>
      <point x="276" y="41"/>
      <point x="279" y="109" type="curve" smooth="yes"/>
      <point x="279" y="296" type="line"/>
      <point x="299" y="296" type="line"/>
      <point x="299" y="109" type="line" smooth="yes"/>
      <point x="302" y="41"/>
      <point x="334" y="4"/>
      <point x="399" y="4" type="curve" smooth="yes"/>
      <point x="491" y="4"/>
      <point x="538" y="64"/>
      <point x="538" y="179" type="curve" smooth="yes"/>
      <point x="538" y="315" type="line" smooth="yes"/>
      <point x="538" y="414"/>
      <point x="498" y="459"/>
    </contour>
  </outline>
</glyph>
<glyph name="quoteleft" format="1">
  <advance width="99"/>
  <unicode hex="2018"/>
  <outline>
    <contour>
      <point x="63" y="672" type="curve"/>
      <point x="72" y="665" type="line"/>
      <point x="52" y="648"/>
      <point x="47" y="625"/>
      <point x="45" y="610" type="curve"/>
      <point x="51" y="609"/>
      <point x="58" y="603"/>
      <point x="58" y="595" type="curve" smooth="yes"/>
      <point x="58" y="586"/>
      <point x="50" y="579"/>
      <point x="40" y="579" type="curve" smooth="yes"/>
      <point x="30" y="579"/>
      <point x="25" y="586"/>
      <point x="25" y="595" type="curve" smooth="yes"/>
      <point x="23" y="648"/>
      <point x="64" y="672"/>
    </contour>
  </outline>
</glyph>
<glyph name="quotesinglbase" format="1">
  <advance width="108"/>
  <unicode hex="201A"/>
  <outline>
    <contour>
      <point x="37" y="-37" type="curve"/>
      <point x="28" y="-31" type="line"/>
      <point x="48" y="-12"/>
      <point x="53" y="11"/>
      <point x="54" y="24" type="curve"/>
      <point x="47" y="27"/>
      <point x="43" y="32"/>
      <point x="43" y="40" type="curve" smooth="yes"/>
      <point x="43" y="51"/>
      <point x="50" y="57"/>
      <point x="59" y="57" type="curve" smooth="yes"/>
      <point x="70" y="57"/>
      <point x="76" y="51"/>
      <point x="76" y="40" type="curve" smooth="yes"/>
      <point x="76" y="-13"/>
      <point x="37" y="-37"/>
    </contour>
  </outline>
</glyph>
<glyph name="quotedblleft" format="1">
  <advance width="278"/>
  <unicode hex="201C"/>
  <outline>
    <contour>
      <point x="242" y="672" type="curve"/>
      <point x="251" y="665" type="line"/>
      <point x="231" y="648"/>
      <point x="226" y="625"/>
      <point x="225" y="610" type="curve"/>
      <point x="233" y="609"/>
      <point x="237" y="603"/>
      <point x="237" y="595" type="curve" smooth="yes"/>
      <point x="237" y="586"/>
      <point x="229" y="579"/>
      <point x="220" y="579" type="curve" smooth="yes"/>
      <point x="210" y="579"/>
      <point x="204" y="586"/>
      <point x="204" y="595" type="curve" smooth="yes"/>
      <point x="202" y="648"/>
      <point x="243" y="672"/>
    </contour>
    <contour>
      <point x="63" y="672" type="curve"/>
      <point x="72" y="665" type="line"/>
      <point x="52" y="648"/>
      <point x="47" y="625"/>
      <point x="45" y="610" type="curve"/>
      <point x="51" y="609"/>
      <point x="58" y="603"/>
      <point x="58" y="595" type="curve" smooth="yes"/>
      <point x="58" y="586"/>
      <point x="50" y="579"/>
      <point x="40" y="579" type="curve" smooth="yes"/>
      <point x="30" y="579"/>
      <point x="25" y="586"/>
      <point x="25" y="595" type="curve" smooth="yes"/>
      <point x="23" y="648"/>
      <point x="64" y="672"/>
    </contour>
  </outline>
</glyph>
<glyph name="quotedblright" format="1">
  <advance width="279"/>
  <unicode hex="201D"/>
  <outline>
    <contour>
      <point x="34" y="585" type="curve"/>
      <point x="26" y="591" type="line"/>
      <point x="45" y="610"/>
      <point x="50" y="631"/>
      <point x="51" y="646" type="curve"/>
      <point x="44" y="649"/>
      <point x="40" y="653"/>
      <point x="40" y="661" type="curve" smooth="yes"/>
      <point x="40" y="672"/>
      <point x="48" y="679"/>
      <point x="56" y="679" type="curve" smooth="yes"/>
      <point x="67" y="679"/>
      <point x="73" y="672"/>
      <point x="73" y="661" type="curve" smooth="yes"/>
      <point x="73" y="607"/>
      <point x="34" y="585"/>
    </contour>
    <contour>
      <point x="214" y="585" type="curve"/>
      <point x="205" y="591" type="line"/>
      <point x="225" y="610"/>
      <point x="229" y="631"/>
      <point x="230" y="646" type="curve"/>
      <point x="225" y="649"/>
      <point x="219" y="653"/>
      <point x="219" y="661" type="curve" smooth="yes"/>
      <point x="219" y="672"/>
      <point x="227" y="679"/>
      <point x="236" y="679" type="curve" smooth="yes"/>
      <point x="247" y="679"/>
      <point x="252" y="672"/>
      <point x="252" y="661" type="curve" smooth="yes"/>
      <point x="254" y="607"/>
      <point x="212" y="585"/>
    </contour>
  </outline>
</glyph>
<glyph name="quotedblbase" format="1">
  <advance width="288"/>
  <unicode hex="201E"/>
  <outline>
    <contour>
      <point x="37" y="-37" type="curve"/>
      <point x="28" y="-31" type="line"/>
      <point x="48" y="-12"/>
      <point x="53" y="11"/>
      <point x="54" y="24" type="curve"/>
      <point x="47" y="27"/>
      <point x="43" y="32"/>
      <point x="43" y="40" type="curve" smooth="yes"/>
      <point x="43" y="51"/>
      <point x="50" y="57"/>
      <point x="59" y="57" type="curve" smooth="yes"/>
      <point x="70" y="57"/>
      <point x="76" y="51"/>
      <point x="76" y="40" type="curve" smooth="yes"/>
      <point x="76" y="-13"/>
      <point x="37" y="-37"/>
    </contour>
    <contour>
      <point x="217" y="-37" type="curve"/>
      <point x="208" y="-31" type="line"/>
      <point x="228" y="-12"/>
      <point x="232" y="11"/>
      <point x="233" y="24" type="curve"/>
      <point x="228" y="27"/>
      <point x="222" y="32"/>
      <point x="222" y="40" type="curve" smooth="yes"/>
      <point x="222" y="51"/>
      <point x="230" y="57"/>
      <point x="239" y="57" type="curve" smooth="yes"/>
      <point x="250" y="57"/>
      <point x="255" y="51"/>
      <point x="255" y="40" type="curve" smooth="yes"/>
      <point x="257" y="-13"/>
      <point x="215" y="-37"/>
    </contour>
  </outline>
</glyph>
<glyph name="bullet" format="1">
  <advance width="257"/>
  <unicode hex="2022"/>
  <outline>
    <contour>
      <point x="200" y="408" type="curve" smooth="yes"/>
      <point x="220" y="387"/>
      <point x="230" y="362"/>
      <point x="230" y="335" type="curve" smooth="yes"/>
      <point x="230" y="308"/>
      <point x="219" y="283"/>
      <point x="200" y="263" type="curve" smooth="yes"/>
      <point x="179" y="242"/>
      <point x="155" y="232"/>
      <point x="127" y="232" type="curve" smooth="yes"/>
      <point x="98" y="232"/>
      <point x="74" y="242"/>
      <point x="54" y="263" type="curve" smooth="yes"/>
      <point x="34" y="283"/>
      <point x="24" y="307"/>
      <point x="24" y="335" type="curve" smooth="yes"/>
      <point x="24" y="364"/>
      <point x="34" y="388"/>
      <point x="54" y="408" type="curve" smooth="yes"/>
      <point x="74" y="429"/>
      <point x="98" y="439"/>
      <point x="127" y="439" type="curve" smooth="yes"/>
      <point x="155" y="439"/>
      <point x="179" y="429"/>
    </contour>
  </outline>
</glyph>
<glyph name="ellipsis" format="1">
  <advance width="447"/>
  <unicode hex="2026"/>
  <outline>
    <contour>
      <point x="46" y="30" type="curve" smooth="yes"/>
      <point x="55" y="30"/>
      <point x="63" y="23"/>
      <point x="63" y="12" type="curve" smooth="yes"/>
      <point x="63" y="3"/>
      <point x="55" y="-4"/>
      <point x="46" y="-4" type="curve" smooth="yes"/>
      <point x="37" y="-4"/>
      <point x="30" y="3"/>
      <point x="30" y="12" type="curve" smooth="yes"/>
      <point x="30" y="23"/>
      <point x="37" y="30"/>
    </contour>
    <contour>
      <point x="220" y="30" type="curve" smooth="yes"/>
      <point x="231" y="30"/>
      <point x="238" y="23"/>
      <point x="238" y="12" type="curve" smooth="yes"/>
      <point x="238" y="3"/>
      <point x="231" y="-4"/>
      <point x="220" y="-4" type="curve" smooth="yes"/>
      <point x="211" y="-4"/>
      <point x="204" y="3"/>
      <point x="204" y="12" type="curve" smooth="yes"/>
      <point x="204" y="23"/>
      <point x="211" y="30"/>
    </contour>
    <contour>
      <point x="399" y="30" type="curve" smooth="yes"/>
      <point x="408" y="30"/>
      <point x="416" y="23"/>
      <point x="416" y="12" type="curve" smooth="yes"/>
      <point x="416" y="3"/>
      <point x="408" y="-4"/>
      <point x="399" y="-4" type="curve" smooth="yes"/>
      <point x="390" y="-4"/>
      <point x="383" y="3"/>
      <point x="383" y="12" type="curve" smooth="yes"/>
      <point x="383" y="23"/>
      <point x="390" y="30"/>
    </contour>
  </outline>
</glyph>
<glyph name="perthousand" format="1">
  <advance width="1032"/>
  <unicode hex="2030"/>
  <outline>
    <contour>
      <point x="619" y="698" type="line"/>
      <point x="82" y="0" type="line"/>
      <point x="56" y="0" type="line"/>
      <point x="593" y="698" type="line"/>
    </contour>
    <contour>
      <point x="163" y="712" type="curve" smooth="yes"/>
      <point x="242" y="712"/>
      <point x="308" y="648"/>
      <point x="308" y="566" type="curve" smooth="yes"/>
      <point x="308" y="486"/>
      <point x="242" y="421"/>
      <point x="163" y="421" type="curve" smooth="yes"/>
      <point x="82" y="421"/>
      <point x="17" y="486"/>
      <point x="17" y="566" type="curve" smooth="yes"/>
      <point x="17" y="648"/>
      <point x="82" y="712"/>
    </contour>
    <contour>
      <point x="163" y="692" type="curve" smooth="yes"/>
      <point x="93" y="692"/>
      <point x="37" y="636"/>
      <point x="37" y="566" type="curve" smooth="yes"/>
      <point x="37" y="498"/>
      <point x="93" y="441"/>
      <point x="163" y="441" type="curve" smooth="yes"/>
      <point x="230" y="441"/>
      <point x="287" y="498"/>
      <point x="287" y="566" type="curve" smooth="yes"/>
      <point x="287" y="636"/>
      <point x="230" y="692"/>
    </contour>
    <contour>
      <point x="522" y="276" type="curve" smooth="yes"/>
      <point x="603" y="276"/>
      <point x="667" y="211"/>
      <point x="667" y="131" type="curve" smooth="yes"/>
      <point x="667" y="51"/>
      <point x="603" y="-14"/>
      <point x="522" y="-14" type="curve" smooth="yes"/>
      <point x="442" y="-14"/>
      <point x="377" y="51"/>
      <point x="377" y="131" type="curve" smooth="yes"/>
      <point x="377" y="211"/>
      <point x="442" y="276"/>
    </contour>
    <contour>
      <point x="522" y="256" type="curve" smooth="yes"/>
      <point x="454" y="256"/>
      <point x="397" y="200"/>
      <point x="397" y="131" type="curve" smooth="yes"/>
      <point x="397" y="62"/>
      <point x="454" y="7"/>
      <point x="522" y="7" type="curve" smooth="yes"/>
      <point x="592" y="7"/>
      <point x="648" y="62"/>
      <point x="648" y="131" type="curve" smooth="yes"/>
      <point x="648" y="200"/>
      <point x="592" y="256"/>
    </contour>
    <contour>
      <point x="868" y="276" type="curve" smooth="yes"/>
      <point x="948" y="276"/>
      <point x="1013" y="211"/>
      <point x="1013" y="131" type="curve" smooth="yes"/>
      <point x="1013" y="51"/>
      <point x="948" y="-14"/>
      <point x="868" y="-14" type="curve" smooth="yes"/>
      <point x="788" y="-14"/>
      <point x="723" y="51"/>
      <point x="723" y="131" type="curve" smooth="yes"/>
      <point x="723" y="211"/>
      <point x="788" y="276"/>
    </contour>
    <contour>
      <point x="868" y="256" type="curve" smooth="yes"/>
      <point x="798" y="256"/>
      <point x="742" y="200"/>
      <point x="742" y="131" type="curve" smooth="yes"/>
      <point x="742" y="62"/>
      <point x="798" y="7"/>
      <point x="868" y="7" type="curve" smooth="yes"/>
      <point x="938" y="7"/>
      <point x="992" y="62"/>
      <point x="992" y="131" type="curve" smooth="yes"/>
      <point x="992" y="200"/>
      <point x="938" y="256"/>
    </contour>
  </outline>
</glyph>
<glyph name="guilsinglright" format="1">
  <advance width="243"/>
  <unicode hex="203A"/>
  <outline>
    <contour>
      <point x="38" y="79" type="line"/>
      <point x="23" y="96" type="line"/>
      <point x="195" y="266" type="line"/>
      <point x="22" y="440" type="line"/>
      <point x="38" y="453" type="line"/>
      <point x="224" y="266" type="line"/>
    </contour>
  </outline>
</glyph>
<glyph name="fraction" format="1">
  <advance width="371"/>
  <unicode hex="2044"/>
  <outline>
    <contour>
      <point x="358" y="815" type="line"/>
      <point x="34" y="-113" type="line"/>
      <point x="14" y="-113" type="line"/>
      <point x="338" y="815" type="line"/>
    </contour>
  </outline>
</glyph>
<glyph name="Euro" format="1">
  <advance width="402"/>
  <unicode hex="20AC"/>
  <outline>
    <contour>
      <point x="369" y="411" type="line"/>
      <point x="369" y="393" type="line"/>
      <point x="30" y="393" type="line"/>
      <point x="30" y="411" type="line"/>
    </contour>
    <contour>
      <point x="369" y="307" type="line"/>
      <point x="369" y="288" type="line"/>
      <point x="30" y="288" type="line"/>
      <point x="30" y="307" type="line"/>
    </contour>
    <component base="C"/>
  </outline>
</glyph>
<glyph name="trademark" format="1">
  <advance width="419"/>
  <unicode hex="2122"/>
  <outline>
    <contour>
      <point x="185" y="512" type="line"/>
      <point x="185" y="678" type="line"/>
      <point x="115" y="678" type="line"/>
      <point x="115" y="512" type="line"/>
      <point x="96" y="512" type="line"/>
      <point x="96" y="678" type="line"/>
      <point x="18" y="678" type="line"/>
      <point x="18" y="698" type="line"/>
      <point x="217" y="698" type="line"/>
      <point x="287" y="531" type="line"/>
      <point x="360" y="698" type="line"/>
      <point x="388" y="698" type="line"/>
      <point x="388" y="512" type="line"/>
      <point x="372" y="512" type="line"/>
      <point x="372" y="678" type="line"/>
      <point x="298" y="512" type="line"/>
      <point x="277" y="512" type="line"/>
      <point x="204" y="678" type="line"/>
      <point x="204" y="512" type="line"/>
    </contour>
  </outline>
</glyph>
<glyph name="Y_upper_alt" format="1">
  <advance width="464"/>
  <unicode hex="9997"/>
  <outline>
    <contour>
      <point x="443" y="698" type="line"/>
      <point x="466" y="698" type="line"/>
      <point x="239" y="341" type="line"/>
      <point x="239" y="0" type="line"/>
      <point x="221" y="0" type="line"/>
      <point x="221" y="341" type="line"/>
      <point x="-4" y="698" type="line"/>
      <point x="19" y="698" type="line"/>
      <point x="230" y="361" type="line"/>
    </contour>
  </outline>
</glyph>
<glyph name="y_lower_alt" format="1">
  <advance width="486"/>
  <unicode hex="9998"/>
  <outline>
    <contour>
      <point x="475" y="510" type="line"/>
      <point x="165" y="-210" type="line"/>
      <point x="143" y="-210" type="line"/>
      <point x="245" y="20" type="line"/>
      <point x="8" y="510" type="line"/>
      <point x="29" y="510" type="line"/>
      <point x="255" y="42" type="line"/>
      <point x="455" y="510" type="line"/>
    </contour>
  </outline>
</glyph>
<glyph name="ff" format="1">
  <advance width="472"/>
  <unicode hex="FB00"/>
  <outline>
    <contour>
      <point x="465" y="681" type="curve"/>
      <point x="459" y="667" type="line"/>
      <point x="419" y="682"/>
      <point x="379" y="685"/>
      <point x="340" y="664" type="curve" smooth="yes"/>
      <point x="305" y="643"/>
      <point x="285" y="610"/>
      <point x="285" y="559" type="curve" smooth="yes"/>
      <point x="285" y="498" type="line"/>
      <point x="434" y="498" type="line"/>
      <point x="426" y="482" type="line"/>
      <point x="285" y="482" type="line"/>
      <point x="285" y="0" type="line"/>
      <point x="264" y="0" type="line"/>
      <point x="264" y="560" type="line" smooth="yes"/>
      <point x="264" y="595"/>
      <point x="274" y="625"/>
      <point x="291" y="649" type="curve"/>
      <point x="262" y="674"/>
      <point x="219" y="686"/>
      <point x="182" y="685" type="curve" smooth="yes"/>
      <point x="112" y="685"/>
      <point x="52" y="641"/>
      <point x="52" y="557" type="curve" smooth="yes"/>
      <point x="52" y="498" type="line"/>
      <point x="202" y="498" type="line"/>
      <point x="194" y="482" type="line"/>
      <point x="52" y="482" type="line"/>
      <point x="52" y="0" type="line"/>
      <point x="32" y="0" type="line"/>
      <point x="32" y="560" type="line" smooth="yes"/>
      <point x="32" y="656"/>
      <point x="107" y="702"/>
      <point x="173" y="704" type="curve" smooth="yes"/>
      <point x="222" y="705"/>
      <point x="261" y="697"/>
      <point x="306" y="662" type="curve"/>
      <point x="333" y="686"/>
      <point x="363" y="698"/>
      <point x="398" y="698" type="curve" smooth="yes"/>
      <point x="421" y="698"/>
      <point x="450" y="692"/>
    </contour>
  </outline>
</glyph>
<glyph name="fi" format="1">
  <advance width="335"/>
  <unicode hex="FB01"/>
  <outline>
    <contour>
      <point x="52" y="0" type="line"/>
      <point x="32" y="0" type="line"/>
      <point x="32" y="560" type="line" smooth="yes"/>
      <point x="32" y="644"/>
      <point x="94" y="707"/>
      <point x="178" y="707" type="curve" smooth="yes"/>
      <point x="222" y="707"/>
      <point x="264" y="691"/>
      <point x="297" y="658" type="curve"/>
      <point x="285" y="645" type="line"/>
      <point x="253" y="676"/>
      <point x="214" y="690"/>
      <point x="178" y="690" type="curve" smooth="yes"/>
      <point x="110" y="690"/>
      <point x="48" y="636"/>
      <point x="52" y="554" type="curve" smooth="yes"/>
      <point x="52" y="498" type="line"/>
      <point x="202" y="498" type="line"/>
      <point x="195" y="482" type="line"/>
      <point x="52" y="482" type="line"/>
    </contour>
    <contour>
      <point x="281" y="498" type="line"/>
      <point x="301" y="498" type="line"/>
      <point x="301" y="0" type="line"/>
      <point x="281" y="0" type="line"/>
    </contour>
  </outline>
</glyph>
<glyph name="fl" format="1">
  <advance width="334"/>
  <unicode hex="FB02"/>
  <outline>
    <contour>
      <point x="298" y="0" type="line"/>
      <point x="281" y="0" type="line"/>
      <point x="281" y="646" type="line"/>
      <point x="252" y="673"/>
      <point x="219" y="685"/>
      <point x="184" y="686" type="curve" smooth="yes"/>
      <point x="114" y="688"/>
      <point x="48" y="639"/>
      <point x="52" y="563" type="curve"/>
      <point x="52" y="498" type="line"/>
      <point x="202" y="498" type="line"/>
      <point x="195" y="482" type="line"/>
      <point x="52" y="482" type="line"/>
      <point x="52" y="0" type="line"/>
      <point x="32" y="0" type="line"/>
      <point x="32" y="560" type="line" smooth="yes"/>
      <point x="32" y="670"/>
      <point x="123" y="704"/>
      <point x="182" y="704" type="curve" smooth="yes"/>
      <point x="225" y="704"/>
      <point x="261" y="687"/>
      <point x="298" y="656" type="curve"/>
    </contour>
  </outline>
</glyph>
<glyph name="ffl" format="1">
  <advance width="562"/>
  <unicode hex="FB04"/>
  <outline>
    <contour>
      <point x="527" y="0" type="line"/>
      <point x="510" y="0" type="line"/>
      <point x="510" y="646" type="line"/>
      <point x="467" y="686"/>
      <point x="412" y="695"/>
      <point x="365" y="679" type="curve" smooth="yes"/>
      <point x="317" y="662"/>
      <point x="281" y="620"/>
      <point x="281" y="563" type="curve" smooth="yes"/>
      <point x="281" y="498" type="line"/>
      <point x="432" y="498" type="line"/>
      <point x="425" y="482" type="line"/>
      <point x="281" y="482" type="line"/>
      <point x="281" y="0" type="line"/>
      <point x="261" y="0" type="line"/>
      <point x="261" y="559" type="line" smooth="yes"/>
      <point x="261" y="594"/>
      <point x="272" y="625"/>
      <point x="290" y="649" type="curve"/>
      <point x="258" y="674"/>
      <point x="221" y="686"/>
      <point x="182" y="687" type="curve" smooth="yes"/>
      <point x="113" y="689"/>
      <point x="52" y="642"/>
      <point x="52" y="557" type="curve" smooth="yes"/>
      <point x="52" y="498" type="line"/>
      <point x="202" y="498" type="line"/>
      <point x="194" y="482" type="line"/>
      <point x="52" y="482" type="line"/>
      <point x="52" y="0" type="line"/>
      <point x="32" y="0" type="line"/>
      <point x="32" y="559" type="line" smooth="yes"/>
      <point x="32" y="658"/>
      <point x="112" y="704"/>
      <point x="173" y="704" type="curve" smooth="yes"/>
      <point x="213" y="704"/>
      <point x="253" y="697"/>
      <point x="306" y="662" type="curve"/>
      <point x="329" y="685"/>
      <point x="365" y="703"/>
      <point x="409" y="703" type="curve" smooth="yes"/>
      <point x="453" y="703"/>
      <point x="491" y="686"/>
      <point x="527" y="654" type="curve"/>
    </contour>
  </outline>
</glyph>
<glyph name="commaturnedabovecomb" format="1">
  <advance width="88"/>
  <outline>
    <contour>
      <point x="56" y="685" type="curve"/>
      <point x="65" y="679" type="line"/>
      <point x="47" y="660"/>
      <point x="42" y="639"/>
      <point x="39" y="624" type="curve"/>
      <point x="46" y="621"/>
      <point x="50" y="616"/>
      <point x="50" y="608" type="curve" smooth="yes"/>
      <point x="50" y="599"/>
      <point x="44" y="592"/>
      <point x="34" y="592" type="curve" smooth="yes"/>
      <point x="25" y="592"/>
      <point x="17" y="599"/>
      <point x="17" y="608" type="curve" smooth="yes"/>
      <point x="17" y="661"/>
      <point x="57" y="685"/>
    </contour>
  </outline>
</glyph>
<glyph name="dieresistonoscomb" format="1">
  <advance width="235"/>
  <outline>
    <contour>
      <point x="54" y="690" type="curve" smooth="yes"/>
      <point x="54" y="681"/>
      <point x="46" y="673"/>
      <point x="37" y="673" type="curve" smooth="yes"/>
      <point x="28" y="673"/>
      <point x="19" y="681"/>
      <point x="19" y="690" type="curve" smooth="yes"/>
      <point x="19" y="701"/>
      <point x="28" y="706"/>
      <point x="37" y="706" type="curve" smooth="yes"/>
      <point x="46" y="706"/>
      <point x="54" y="701"/>
    </contour>
    <contour>
      <point x="212" y="690" type="curve" smooth="yes"/>
      <point x="212" y="681"/>
      <point x="205" y="673"/>
      <point x="194" y="673" type="curve" smooth="yes"/>
      <point x="185" y="673"/>
      <point x="178" y="681"/>
      <point x="178" y="690" type="curve" smooth="yes"/>
      <point x="178" y="701"/>
      <point x="185" y="706"/>
      <point x="194" y="706" type="curve" smooth="yes"/>
      <point x="205" y="706"/>
      <point x="212" y="701"/>
    </contour>
    <contour>
      <point x="184" y="824" type="curve"/>
      <point x="129" y="724" type="line"/>
      <point x="107" y="724" type="line"/>
      <point x="158" y="837" type="line" smooth="yes"/>
      <point x="163" y="849"/>
      <point x="174" y="850"/>
      <point x="181" y="846" type="curve"/>
      <point x="187" y="842"/>
      <point x="190" y="833"/>
    </contour>
  </outline>
</glyph>
<glyph name="ft" format="1">
  <advance width="465"/>
  <outline>
    <contour>
      <point x="447" y="482" type="line"/>
      <point x="298" y="482" type="line"/>
      <point x="298" y="132" type="line" smooth="yes"/>
      <point x="298" y="59"/>
      <point x="325" y="27"/>
      <point x="393" y="4" type="curve"/>
      <point x="385" y="-13" type="line"/>
      <point x="310" y="8"/>
      <point x="278" y="53"/>
      <point x="278" y="132" type="curve" smooth="yes"/>
      <point x="278" y="646" type="line"/>
      <point x="251" y="673"/>
      <point x="215" y="685"/>
      <point x="180" y="686" type="curve" smooth="yes"/>
      <point x="110" y="688"/>
      <point x="46" y="639"/>
      <point x="48" y="563" type="curve" smooth="yes"/>
      <point x="48" y="498" type="line"/>
      <point x="201" y="498" type="line"/>
      <point x="194" y="482" type="line"/>
      <point x="48" y="482" type="line"/>
      <point x="48" y="0" type="line"/>
      <point x="43" y="0"/>
      <point x="37" y="0"/>
      <point x="32" y="0" type="curve"/>
      <point x="32" y="560" type="line" smooth="yes"/>
      <point x="32" y="670"/>
      <point x="123" y="704"/>
      <point x="182" y="704" type="curve" smooth="yes"/>
      <point x="225" y="704"/>
      <point x="261" y="687"/>
      <point x="298" y="656" type="curve"/>
      <point x="298" y="498" type="line"/>
      <point x="455" y="498" type="line"/>
    </contour>
  </outline>
</glyph>
<glyph name="gamma_gamma" format="1">
  <advance width="883"/>
  <outline>
    <contour>
      <point x="257" y="15" type="curve"/>
      <point x="405" y="500" type="line"/>
      <point x="424" y="500" type="line"/>
      <point x="245" y="-92" type="line" smooth="yes"/>
      <point x="232" y="-135"/>
      <point x="199" y="-199"/>
      <point x="106" y="-199" type="curve"/>
      <point x="101" y="-180" type="line"/>
      <point x="196" y="-180"/>
      <point x="217" y="-118"/>
      <point x="229" y="-79" type="curve" smooth="yes"/>
      <point x="251" y="-6" type="line"/>
      <point x="182" y="-2"/>
      <point x="144" y="48"/>
      <point x="120" y="129" type="curve" smooth="yes"/>
      <point x="11" y="500" type="line"/>
      <point x="30" y="500" type="line"/>
      <point x="136" y="140" type="line" smooth="yes"/>
      <point x="161" y="56"/>
      <point x="193" y="15"/>
    </contour>
    <contour>
      <point x="864" y="508" type="curve"/>
      <point x="874" y="494" type="line"/>
      <point x="822" y="471"/>
      <point x="806" y="437"/>
      <point x="790" y="385" type="curve" smooth="yes"/>
      <point x="646" y="-92" type="line" smooth="yes"/>
      <point x="633" y="-135"/>
      <point x="600" y="-199"/>
      <point x="507" y="-199" type="curve"/>
      <point x="502" y="-180" type="line"/>
      <point x="597" y="-180"/>
      <point x="617" y="-118"/>
      <point x="629" y="-79" type="curve" smooth="yes"/>
      <point x="651" y="-6" type="line"/>
      <point x="582" y="-2"/>
      <point x="545" y="48"/>
      <point x="521" y="129" type="curve" smooth="yes"/>
      <point x="412" y="500" type="line"/>
      <point x="431" y="500" type="line"/>
      <point x="537" y="140" type="line" smooth="yes"/>
      <point x="561" y="56"/>
      <point x="594" y="15"/>
      <point x="658" y="15" type="curve"/>
      <point x="771" y="387" type="line" smooth="yes"/>
      <point x="791" y="453"/>
      <point x="808" y="481"/>
    </contour>
  </outline>
</glyph>
